<svg xmlns="http://www.w3.org/2000/svg" viewBox="0 0 1200 500" role="img" aria-label="Slop-tell frequency across 25 AI-generated landing pages, raw vs compiled">
  <!-- rule: data viz, swiss, left-aligned, one spot colour only, hairline rules -->
  <rect width="1200" height="500" fill="#f8f5ee"/>
  <line x1="80" y1="48" x2="80" y2="448" stroke="#141414" stroke-width="1"/>
  <text x="96" y="72" font-family="'Neue Haas Grotesk Display',Inter,sans-serif"
        font-size="11" letter-spacing="0.14em" fill="#141414">FIG. 1 · MEASURED · n = 25 raw / 25 compiled · 21 APR 2026</text>
  <text x="96" y="104" font-family="'Neue Haas Grotesk Display',Inter,sans-serif"
        font-size="30" font-weight="700" letter-spacing="-0.02em" fill="#141414">
    Landing-page brief, five models, raw vs compiled.
  </text>
  <text x="96" y="134" font-family="'Neue Haas Grotesk Text',Inter,sans-serif"
        font-size="13" fill="#6b6b6b">
    Claude Opus 4.7 · Mistral Small 3.1 · Llama 3.3 70B · Llama 4 Scout 17B · Qwen 2.5 Coder 32B. Mean slop-tells per page, lower is better.
  </text>

  <!-- legend -->
  <g font-family="'Neue Haas Grotesk Text',Inter,sans-serif" font-size="11" fill="#141414">
    <rect x="96" y="156" width="14" height="10" fill="#141414"/>
    <text x="116" y="165">raw</text>
    <rect x="160" y="156" width="14" height="10" fill="#c53a1a"/>
    <text x="180" y="165">compiled via ahd</text>
  </g>

  <!-- bars: per-model mean-tells, raw vs compiled -->
  <!-- x scale: 0 tells at x=420, 4 tells at x=1060 → 160px per tell -->
  <g font-family="'Neue Haas Grotesk Text',Inter,sans-serif" font-size="13" fill="#141414">
    <!-- Claude Opus 4.7 -->
    <text x="96" y="206">Claude Opus 4.7</text>
    <rect x="420" y="192" width="416" height="11" fill="#141414"/>
    <text x="842" y="202" fill="#6b6b6b">2.60 raw</text>
    <rect x="420" y="206" width="96" height="11" fill="#c53a1a"/>
    <text x="522" y="216" fill="#c53a1a">0.60 compiled · 77%↓</text>

    <!-- Mistral Small 3.1 -->
    <text x="96" y="254">Mistral Small 3.1</text>
    <rect x="420" y="240" width="640" height="11" fill="#141414"/>
    <text x="1066" y="250" fill="#6b6b6b">4.00 raw</text>
    <rect x="420" y="254" width="192" height="11" fill="#c53a1a"/>
    <text x="618" y="264" fill="#c53a1a">1.20 compiled · 70%↓</text>

    <!-- Llama 3.3 70B -->
    <text x="96" y="302">Llama 3.3 70B</text>
    <rect x="420" y="288" width="160" height="11" fill="#141414"/>
    <text x="586" y="298" fill="#6b6b6b">1.00 raw</text>
    <rect x="420" y="302" width="96" height="11" fill="#c53a1a"/>
    <text x="522" y="312" fill="#c53a1a">0.60 compiled · 40%↓</text>

    <!-- Qwen 2.5 Coder -->
    <text x="96" y="350">Qwen 2.5 Coder 32B</text>
    <rect x="420" y="336" width="448" height="11" fill="#141414"/>
    <text x="874" y="346" fill="#6b6b6b">2.80 raw</text>
    <rect x="420" y="350" width="416" height="11" fill="#c53a1a"/>
    <text x="842" y="360" fill="#c53a1a">2.60 compiled · 7%↓</text>

    <!-- Llama 4 Scout -->
    <text x="96" y="398">Llama 4 Scout 17B</text>
    <rect x="420" y="384" width="1" height="11" fill="#141414"/>
    <text x="426" y="394" fill="#6b6b6b">0.00 raw · output too thin to score</text>
    <rect x="420" y="398" width="32" height="11" fill="#c53a1a"/>
    <text x="458" y="408" fill="#c53a1a">0.20 compiled</text>
  </g>

  <!-- separator + aggregate -->
  <line x1="80" y1="432" x2="1120" y2="432" stroke="#141414" stroke-width="1"/>
  <text x="96" y="460" font-family="'Neue Haas Grotesk Display',Inter,sans-serif"
        font-size="22" font-weight="700" letter-spacing="-0.02em" fill="#141414">
    Aggregate: 2.08 → 1.04 tells / page.
  </text>
  <text x="96" y="484" font-family="'Neue Haas Grotesk Text',Inter,sans-serif"
        font-size="11" letter-spacing="0.08em" fill="#c53a1a">
    50% REDUCTION ACROSS ALL FIVE MODELS · 28 DETERMINISTIC SOURCE-LEVEL RULES · see docs/evals/2026-04-21-swiss.md for raw data and caveats
  </text>
</svg>
