<svg xmlns="http://www.w3.org/2000/svg" viewBox="0 0 1200 780" role="img" aria-label="Measured slop-tell reduction by model, same brief raw vs AHD-compiled, 22 April 2026, n=30 per cell">
  <rect width="1200" height="780" fill="#f8f5ee"/>
  <line x1="80" y1="48" x2="80" y2="720" stroke="#141414" stroke-width="1"/>
  <text x="96" y="72" font-family="'Neue Haas Grotesk Display',Inter,sans-serif"
        font-size="11" letter-spacing="0.14em" fill="#141414">FIG. 2 · MEASURED · CONTROLLED · n = 30 per cell · 600 SAMPLES · 22 APR 2026</text>
  <text x="96" y="108" font-family="'Neue Haas Grotesk Display',Inter,sans-serif"
        font-size="30" font-weight="700" letter-spacing="-0.02em" fill="#141414">
    Same brief, raw vs AHD-compiled.
  </text>
  <text x="96" y="136" font-family="'Neue Haas Grotesk Text',Inter,sans-serif"
        font-size="13" fill="#6b6b6b">
    Mean slop-tells per page. Only the AHD system-prompt layer differs between conditions. Ten models, six hundred samples.
  </text>

  <g font-family="'Neue Haas Grotesk Text',Inter,sans-serif" font-size="11" fill="#141414">
    <rect x="96" y="158" width="14" height="10" fill="#141414"/>
    <text x="116" y="167">raw</text>
    <rect x="160" y="158" width="14" height="10" fill="#c53a1a"/>
    <text x="180" y="167">compiled via ahd</text>
  </g>

  <!-- x scale: 0 tells at 460px, 1 tell = 155px. Max raw = 3.50 (gpt-oss) = 543px wide, tip at 1003. -->
  <g font-family="'Neue Haas Grotesk Text',Inter,sans-serif" font-size="13" fill="#141414">

    <!-- gpt-oss 120B · 3.50 -> 0.77 · 78%↓ · best in run -->
    <text x="96" y="200">gpt-oss 120B</text>
    <rect x="460" y="186" width="543" height="11" fill="#141414"/>
    <text x="1009" y="196" fill="#6b6b6b">3.50 raw</text>
    <rect x="460" y="200" width="119" height="11" fill="#c53a1a"/>
    <text x="585" y="210" fill="#c53a1a">0.77 compiled · 78%↓</text>

    <!-- Mistral Small 3.1 · 3.47 -> 1.30 · 62%↓ -->
    <text x="96" y="248">Mistral Small 3.1 24B</text>
    <rect x="460" y="234" width="538" height="11" fill="#141414"/>
    <text x="1004" y="244" fill="#6b6b6b">3.47 raw</text>
    <rect x="460" y="248" width="202" height="11" fill="#c53a1a"/>
    <text x="668" y="258" fill="#c53a1a">1.30 compiled · 62%↓</text>

    <!-- Kimi K2.6 · 2.67 -> 1.00 · 62%↓ (after chat-template fix) -->
    <text x="96" y="296">Kimi K2.6</text>
    <rect x="460" y="282" width="414" height="11" fill="#141414"/>
    <text x="880" y="292" fill="#6b6b6b">2.67 raw</text>
    <rect x="460" y="296" width="155" height="11" fill="#c53a1a"/>
    <text x="621" y="306" fill="#c53a1a">1.00 compiled · 62%↓</text>

    <!-- Gemini 3.1 Pro Preview · 2.97 -> 1.13 · 62%↓ -->
    <text x="96" y="344">Gemini 3.1 Pro Preview</text>
    <rect x="460" y="330" width="460" height="11" fill="#141414"/>
    <text x="926" y="340" fill="#6b6b6b">2.97 raw</text>
    <rect x="460" y="344" width="175" height="11" fill="#c53a1a"/>
    <text x="641" y="354" fill="#c53a1a">1.13 compiled · 62%↓</text>

    <!-- Claude Opus 4.7 · 1.80 -> 0.73 · 59%↓ -->
    <text x="96" y="392">Claude Opus 4.7</text>
    <rect x="460" y="378" width="279" height="11" fill="#141414"/>
    <text x="745" y="388" fill="#6b6b6b">1.80 raw</text>
    <rect x="460" y="392" width="113" height="11" fill="#c53a1a"/>
    <text x="579" y="402" fill="#c53a1a">0.73 compiled · 59%↓</text>

    <!-- Gemma 4 26B · 2.67 -> 1.37 · 49%↓ -->
    <text x="96" y="440">Gemma 4 26B</text>
    <rect x="460" y="426" width="414" height="11" fill="#141414"/>
    <text x="880" y="436" fill="#6b6b6b">2.67 raw</text>
    <rect x="460" y="440" width="212" height="11" fill="#c53a1a"/>
    <text x="678" y="450" fill="#c53a1a">1.37 compiled · 49%↓</text>

    <!-- Llama 4 Scout 17B · 2.17 -> 1.40 · 35%↓ -->
    <text x="96" y="488">Llama 4 Scout 17B</text>
    <rect x="460" y="474" width="336" height="11" fill="#141414"/>
    <text x="802" y="484" fill="#6b6b6b">2.17 raw</text>
    <rect x="460" y="488" width="217" height="11" fill="#c53a1a"/>
    <text x="683" y="498" fill="#c53a1a">1.40 compiled · 35%↓</text>

    <!-- GPT-5.4 · 1.23 -> 1.00 · 19%↓ · inside the Wilson interval, read as flat -->
    <text x="96" y="536">GPT-5.4</text>
    <rect x="460" y="522" width="191" height="11" fill="#141414"/>
    <text x="657" y="532" fill="#6b6b6b">1.23 raw</text>
    <rect x="460" y="536" width="155" height="11" fill="#c53a1a"/>
    <text x="621" y="546" fill="#141414">1.00 compiled · 19%↓ · inside interval, flat</text>

    <!-- Qwen 3 30B · 1.90 -> 1.73 · 9%↓ · flat -->
    <text x="96" y="584">Qwen 3 30B A3B</text>
    <rect x="460" y="570" width="295" height="11" fill="#141414"/>
    <text x="761" y="580" fill="#6b6b6b">1.90 raw</text>
    <rect x="460" y="584" width="268" height="11" fill="#c53a1a"/>
    <text x="734" y="594" fill="#141414">1.73 compiled · 9%↓ · flat</text>

    <!-- Llama 3.3 70B fp8-fast · 0.28 -> 0.60 · regressed 117%↑ -->
    <text x="96" y="632">Llama 3.3 70B fp8-fast</text>
    <rect x="460" y="618" width="43" height="11" fill="#141414"/>
    <text x="509" y="628" fill="#6b6b6b">0.28 raw</text>
    <rect x="460" y="632" width="93" height="11" fill="#c53a1a"/>
    <text x="559" y="642" fill="#c53a1a">0.60 compiled · regressed 117%↑ · reproduces 21 Apr</text>

  </g>

  <!-- separator + aggregate -->
  <line x1="80" y1="672" x2="1120" y2="672" stroke="#141414" stroke-width="1"/>
  <text x="96" y="704" font-family="'Neue Haas Grotesk Display',Inter,sans-serif"
        font-size="24" font-weight="700" letter-spacing="-0.02em" fill="#141414">
    Eight of ten reduced. One flat. One regressed, reproducibly.
  </text>
  <text x="96" y="728" font-family="'Neue Haas Grotesk Text',Inter,sans-serif"
        font-size="11" letter-spacing="0.08em" fill="#c53a1a">
    38 DETERMINISTIC SOURCE RULES · 14 VISION RULES (QUEUED, NOT SCORED IN THIS RUN) · SEE docs/evals/2026-04-22-swiss-n30.md FOR MANIFEST, PROMPTS, COUNTS
  </text>
</svg>
