<?xml version="1.0" encoding="UTF-8" standalone="no"?>
<svg
   viewBox="0 0 600 600"
   width="3in"
   height="3in"
   version="1.1"
   id="svg329"
   xmlns="http://www.w3.org/2000/svg"
   xmlns:svg="http://www.w3.org/2000/svg">
  <!-- Direction 2: The Rule. PRINT-READY DRAFT.
       3-inch die-cut, matte vinyl. Pure black on natural cream.
       Visual argument: the cliched 'Get Started ->' purple CTA, with a
       no-symbol struck through it. Caption names the rule. Wordmark and
       URL below. QR in the bottom-right corner.

       BEFORE PRINT: in a vector editor (Affinity Designer / Illustrator
       / Inkscape), select all text and convert to outlines (paths).
       Sticker Mule prefers PDF or PNG at 300 DPI minimum.

       FONT NOTE: layout uses Inter (SIL OFL, free for commercial print).
       The live AHD site uses Neue Haas Grotesk Display (Linotype, paid).
       Inter is visually close enough at sticker scale and avoids the
       licensing issue. If you have a Neue Haas license, swap font-family
       to "Neue Haas Grotesk Display" before converting to outlines.

       QR encodes https://ahd.adastra.computer (scanned-verified). -->
  <defs
     id="defs1">
    <style
       id="style1">
      .bg { fill: #faf8f1; }
      .ink { fill: #111111; }
      .mark { font-family: &quot;Inter&quot;, &quot;Helvetica Neue&quot;, sans-serif; font-weight: 900; letter-spacing: -0.04em; }
      .sub  { font-family: &quot;Inter&quot;, &quot;Helvetica Neue&quot;, sans-serif; font-weight: 400; letter-spacing: 0.18em; text-transform: uppercase; }
      .url  { font-family: &quot;JetBrains Mono&quot;, &quot;SF Mono&quot;, monospace; font-weight: 500; }
      .button { font-family: &quot;Inter&quot;, &quot;Helvetica Neue&quot;, sans-serif; font-weight: 600; }
      .caption { font-family: &quot;Inter&quot;, &quot;Helvetica Neue&quot;, sans-serif; font-weight: 400; font-style: italic; }
    </style>
  </defs>
  <rect
     class="bg"
     x="10"
     y="10"
     width="580"
     height="580"
     rx="24"
     ry="24"
     id="rect1" />
  <!-- The cliche being argued against. Flat purple, not a gradient. -->
  <g
     transform="translate(130, 110)"
     id="g2">
    <rect
       x="0"
       y="0"
       width="340"
       height="108"
       rx="54"
       fill="#7c3aed"
       id="rect2" />
    <path
       d="m 81.003418,68.292969 q -3.017578,0 -5.288086,-1.347657 -2.270508,-1.362304 -3.544922,-3.867187 -1.274414,-2.519531 -1.274414,-5.961914 0,-3.515625 1.303711,-6.020508 1.318359,-2.519531 3.574219,-3.867187 2.255859,-1.347657 5.112304,-1.347657 2.402344,0 4.350586,0.922852 1.962891,0.922851 3.222657,2.563476 1.274414,1.640625 1.611328,3.779297 h -3.999024 q -0.527343,-1.743164 -1.845703,-2.753906 -1.303711,-1.010742 -3.295898,-1.010742 -1.757813,0 -3.149414,0.893555 -1.376953,0.893554 -2.167969,2.62207 -0.791016,1.713867 -0.791016,4.189453 0,3.706055 1.713868,5.712891 1.728515,1.992187 4.482421,1.992187 2.460938,0 3.925782,-1.376953 1.464843,-1.391602 1.523437,-3.75 h -5.039062 v -3.076172 h 8.833007 v 2.62207 q 0,2.797852 -1.201171,4.848633 -1.186524,2.036133 -3.28125,3.134766 -2.080079,1.098633 -4.775391,1.098633 z m 20.112302,0.04394 q -2.475583,0 -4.262693,-1.040039 -1.772461,-1.040039 -2.739257,-2.929688 -0.952149,-1.889648 -0.952149,-4.453125 0,-2.519531 0.9375,-4.423828 0.952149,-1.918945 2.680664,-2.988281 1.743164,-1.083984 4.086915,-1.083984 1.99219,0 3.69141,0.878906 1.71386,0.864258 2.7539,2.695312 1.04004,1.816407 1.04004,4.6875 v 1.201172 H 96.955566 q 0.07324,2.182618 1.215821,3.325196 1.157226,1.142578 2.988283,1.142578 1.25976,0 2.15332,-0.541992 0.9082,-0.541993 1.28906,-1.582032 l 3.50098,0.717774 q -0.58594,1.977539 -2.43164,3.193359 -1.83106,1.201172 -4.55567,1.201172 z M 96.970215,58.288086 H 104.646 q -0.17579,-1.757813 -1.12793,-2.8125 -0.9375,-1.069336 -2.63672,-1.069336 -1.743166,0 -2.768557,1.12793 -1.010742,1.113281 -1.142578,2.753906 z m 22.221675,-6.665039 v 2.988281 h -3.16406 v 8.774414 q 0,0.893555 0.36621,1.31836 0.38086,0.410156 1.25977,0.410156 0.26367,0 0.68848,-0.05859 0.4248,-0.07324 0.70312,-0.131836 l 0.60059,2.944336 q -0.62989,0.19043 -1.28907,0.263672 -0.65918,0.08789 -1.25976,0.08789 -2.3584,0 -3.61817,-1.171875 -1.25976,-1.171875 -1.25976,-3.339844 v -9.09668 h -2.3291 v -2.988281 h 2.3291 v -3.896485 h 3.80859 v 3.896485 z m 18.41309,16.713867 q -3.80859,0 -6.0791,-1.757812 -2.25586,-1.757813 -2.3877,-4.995118 h 3.85254 q 0.13184,1.728516 1.43555,2.578125 1.30371,0.834961 3.14941,0.834961 1.9336,0 3.14942,-0.864258 1.23047,-0.878906 1.23047,-2.285156 0,-1.274414 -1.08399,-1.918945 -1.08398,-0.65918 -2.85644,-1.113281 l -2.47559,-0.644532 q -2.73926,-0.703125 -4.27734,-2.124023 -1.52344,-1.420898 -1.52344,-3.735352 0,-1.933593 1.04004,-3.36914 1.04004,-1.450196 2.8418,-2.25586 1.80175,-0.805664 4.08691,-0.805664 2.3291,0 4.07227,0.805664 1.75781,0.805664 2.7539,2.226563 0.9961,1.420898 1.04004,3.237305 h -3.79394 q -0.14649,-1.391602 -1.25977,-2.167969 -1.09863,-0.776367 -2.87109,-0.776367 -1.84571,0 -2.90039,0.820312 -1.05469,0.805664 -1.05469,2.050781 0,0.922852 0.55664,1.508789 0.57129,0.57129 1.4209,0.922852 0.86425,0.351563 1.74316,0.571289 l 2.03613,0.527344 q 1.61133,0.395508 3.07618,1.142578 1.47949,0.732422 2.40234,1.977539 0.9375,1.245117 0.9375,3.149414 0,1.918945 -0.98145,3.383789 -0.98144,1.450195 -2.82714,2.270508 -1.84571,0.805664 -4.45313,0.805664 z m 19.24805,-16.713867 v 2.988281 h -3.16407 v 8.774414 q 0,0.893555 0.36622,1.31836 0.38086,0.410156 1.25976,0.410156 0.26367,0 0.68848,-0.05859 0.4248,-0.07324 0.70312,-0.131836 l 0.60059,2.944336 q -0.62988,0.19043 -1.28906,0.263672 -0.65918,0.08789 -1.25977,0.08789 -2.3584,0 -3.61816,-1.171875 -1.25977,-1.171875 -1.25977,-3.339844 v -9.09668 h -2.3291 v -2.988281 h 2.3291 v -3.896485 h 3.80859 v 3.896485 z m 7.73437,16.713867 q -1.55273,0 -2.79785,-0.556641 -1.24512,-0.571289 -1.96289,-1.669921 -0.71777,-1.098633 -0.71777,-2.709961 0,-1.845704 0.89355,-2.856446 0.9082,-1.02539 2.3291,-1.479492 1.43555,-0.46875 3.01758,-0.629883 2.13867,-0.234375 3.09082,-0.424804 0.95215,-0.205079 0.95215,-1.054688 v -0.07324 q 0,-1.201172 -0.73242,-1.860352 -0.73242,-0.673828 -2.12403,-0.673828 -1.43554,0 -2.28515,0.629883 -0.84961,0.629883 -1.14258,1.435547 l -3.53027,-0.717774 q 0.71777,-2.167968 2.59277,-3.222656 1.88965,-1.054687 4.35059,-1.054687 1.15722,0 2.3291,0.27832 1.18652,0.263672 2.16797,0.908203 0.98144,0.629883 1.58203,1.728516 0.60058,1.083984 0.60058,2.724609 V 68 h -3.64746 v -2.255859 h -0.14648 q -0.54199,1.054687 -1.72852,1.831054 -1.18652,0.761719 -3.09082,0.761719 z m 0.98145,-2.827148 q 1.75781,0 2.79785,-1.010743 1.05469,-1.010742 1.05469,-2.373046 v -1.933594 q -0.26368,0.205078 -0.9375,0.366211 -0.67383,0.146484 -1.43555,0.263672 -0.74707,0.102539 -1.24512,0.175781 -1.28906,0.175781 -2.15332,0.703125 -0.84961,0.527344 -0.84961,1.655273 0,1.054688 0.77637,1.611328 0.77637,0.541993 1.99219,0.541993 z M 177.24365,68 V 51.623047 h 3.69141 v 2.739258 h 0.17578 q 0.43945,-1.420899 1.53809,-2.182618 1.09863,-0.776367 2.50488,-0.776367 0.73242,0 1.3916,0.102539 v 3.500977 q -0.23437,-0.05859 -0.76172,-0.117188 -0.52734,-0.07324 -1.04004,-0.07324 -1.59668,0 -2.65136,0.996094 -1.04004,0.981445 -1.04004,2.548828 V 68 Z m 20.02442,-16.376953 v 2.988281 H 194.104 v 8.774414 q 0,0.893555 0.36621,1.31836 0.38086,0.410156 1.25977,0.410156 0.26367,0 0.68848,-0.05859 0.4248,-0.07324 0.70312,-0.131836 l 0.60059,2.944336 q -0.62988,0.19043 -1.28906,0.263672 -0.65918,0.08789 -1.25977,0.08789 -2.3584,0 -3.61816,-1.171875 -1.25977,-1.171875 -1.25977,-3.339844 v -9.09668 h -2.3291 v -2.988281 h 2.3291 v -3.896485 h 3.80859 v 3.896485 z m 9.96093,16.713867 q -2.47558,0 -4.26269,-1.040039 -1.77246,-1.040039 -2.73926,-2.929688 -0.95215,-1.889648 -0.95215,-4.453125 0,-2.519531 0.9375,-4.423828 0.95215,-1.918945 2.68067,-2.988281 1.74316,-1.083984 4.08691,-1.083984 1.99219,0 3.69141,0.878906 1.71386,0.864258 2.7539,2.695312 1.04004,1.816407 1.04004,4.6875 v 1.201172 h -11.39648 q 0.0732,2.182618 1.21582,3.325196 1.15722,1.142578 2.98828,1.142578 1.25976,0 2.15332,-0.541992 0.9082,-0.541993 1.28906,-1.582032 l 3.50098,0.717774 q -0.58594,1.977539 -2.43164,3.193359 -1.83106,1.201172 -4.55567,1.201172 z m -4.1455,-10.048828 h 7.67578 q -0.17578,-1.757813 -1.12793,-2.8125 -0.9375,-1.069336 -2.63672,-1.069336 -1.74317,0 -2.76856,1.12793 -1.01074,1.113281 -1.14257,2.753906 z m 20.68359,10.004883 q -1.93359,0 -3.47168,-0.981446 -1.52344,-0.996093 -2.40234,-2.885742 -0.87891,-1.889648 -0.87891,-4.584961 0,-2.724609 0.89355,-4.599609 0.89356,-1.889649 2.417,-2.856445 1.53808,-0.966797 3.42773,-0.966797 1.46485,0 2.3877,0.498047 0.9375,0.483398 1.47949,1.171875 0.54199,0.673828 0.83496,1.245117 h 0.16113 v -8.15918 h 3.8086 V 68 h -3.73536 v -2.592773 h -0.23437 q -0.30762,0.585937 -0.86426,1.259765 -0.55664,0.673828 -1.49414,1.157227 -0.92285,0.46875 -2.3291,0.46875 z m 1.04004,-3.134766 q 1.86035,0 2.87109,-1.464844 1.01074,-1.479492 1.01074,-3.867187 0,-2.387695 -1.01074,-3.823242 -0.99609,-1.450196 -2.87109,-1.450196 -1.93359,0 -2.91504,1.494141 -0.98145,1.494141 -0.98145,3.779297 0,2.299805 0.98145,3.823242 0.99609,1.508789 2.91504,1.508789 z m 32.57812,3.55957 -2.16796,-2.167968 3.29589,-3.295899 q 0.84961,-0.849609 2.08008,-1.845703 1.24512,-0.996094 2.29981,-1.801758 -0.80567,0.161133 -1.74317,0.292969 -0.92285,0.131836 -1.72851,0.131836 h -13.68164 v -3.149414 h 13.68164 q 0.79101,0 1.71386,0.131836 0.9375,0.131836 1.75782,0.27832 -1.05469,-0.791015 -2.27051,-1.772461 -1.21582,-0.981445 -2.10938,-1.860351 l -3.31054,-3.310547 2.18261,-2.167969 10.26856,10.268555 z"
       id="text2"
       class="button"
       style="font-weight:600;font-size:30px;font-family:Inter, 'Helvetica Neue', sans-serif;text-anchor:middle;fill:#ffffff"
       aria-label="Get Started →" />
    <circle
       cx="170"
       cy="54"
       r="82"
       fill="none"
       stroke="#111"
       stroke-width="10"
       id="circle2" />
    <line
       x1="108"
       y1="108"
       x2="232"
       y2="0"
       stroke="#111"
       stroke-width="10"
       id="line2" />
  </g>
  <path
     d="M 205.72852,298.21875 204.42773,306 h -2.10937 l 2.17969,-13.10156 h 2.02734 l -0.375,2.30859 q 0.84375,-1.33594 1.92188,-1.89844 1.07812,-0.57422 2.36718,-0.57422 2.03907,0 3.09375,1.26563 1.05469,1.26562 0.64453,3.75 l -1.37109,8.25 h -2.10937 l 1.37109,-8.21484 q 0.25781,-1.53516 -0.375,-2.34375 -0.63281,-0.8086 -1.95703,-0.8086 -1.45313,0 -2.58985,0.96094 -1.13671,0.94922 -1.41796,2.625 z m 16.20703,8.0625 q -2.36719,0 -3.72657,-1.45313 -1.35937,-1.46484 -1.35937,-3.90234 0,-1.55859 0.48047,-3.02344 0.49219,-1.46484 1.40625,-2.625 0.92578,-1.17187 2.22656,-1.85156 1.3125,-0.69141 2.95313,-0.69141 2.3789,0 3.73828,1.45313 1.37109,1.45312 1.37109,3.91406 0,1.58203 -0.49219,3.04688 -0.49218,1.46484 -1.42968,2.625 -0.92579,1.16015 -2.23829,1.83984 -1.30078,0.66797 -2.92968,0.66797 z m 0.0469,-1.88672 q 1.20703,0 2.1211,-0.5625 0.92578,-0.5625 1.54687,-1.47656 0.62109,-0.92578 0.9375,-2.02735 0.31641,-1.10156 0.31641,-2.17968 0,-1.5 -0.72657,-2.50782 -0.71484,-1.01953 -2.32031,-1.01953 -1.19531,0 -2.10937,0.5625 -0.91407,0.5625 -1.53516,1.48828 -0.62109,0.92579 -0.9375,2.03907 -0.31641,1.10156 -0.31641,2.1914 0,1.47657 0.71485,2.48438 0.71484,1.00781 2.30859,1.00781 z m 17.84766,-6.82031 -0.32813,1.94531 h -7.66406 l 0.32813,-1.94531 z m 5.9414,8.42578 -2.83593,-13.10156 h 2.20312 l 1.51172,7.76953 q 0.16406,0.85547 0.26953,1.71094 0.10547,0.84375 0.1875,1.66406 0.36328,-0.82031 0.73828,-1.66406 0.38672,-0.85547 0.83203,-1.71094 l 4.07813,-7.76953 h 2.40234 L 247.98633,306 Z m 9.70313,0 2.16797,-13.10156 h 2.10937 L 257.58398,306 Z m 3.58594,-15.24609 q -0.59766,0 -0.96094,-0.41016 -0.36328,-0.41016 -0.26953,-0.98438 0.0937,-0.58593 0.59765,-0.98437 0.50391,-0.41016 1.10157,-0.41016 0.60937,0 0.97265,0.41016 0.36328,0.39844 0.26953,0.98437 -0.0937,0.57422 -0.59765,0.98438 -0.50391,0.41016 -1.11328,0.41016 z m 8.40234,15.52734 q -1.26562,0 -1.98047,-0.41016 -0.71484,-0.42187 -1.0664,-0.96093 -0.35157,-0.55079 -0.52735,-0.9375 h -0.21094 L 263.32617,306 h -2.03906 l 2.89453,-17.46094 h 2.10938 l -1.07813,6.45703 h 0.17578 q 0.30469,-0.375 0.77344,-0.90234 0.46875,-0.53906 1.24219,-0.94922 0.78515,-0.41016 2.01562,-0.41016 2.16797,0 3.4336,1.40625 1.26562,1.39454 1.26562,3.83204 0,1.52343 -0.45703,3.01171 -0.44531,1.47657 -1.30078,2.67188 -0.85547,1.19531 -2.09766,1.91016 -1.23047,0.71484 -2.80078,0.71484 z m -0.28125,-1.88672 q 1.17188,0 2.0625,-0.57422 0.90234,-0.57422 1.51172,-1.51172 0.62109,-0.94922 0.92578,-2.0625 0.31641,-1.125 0.31641,-2.21484 0,-1.5 -0.71485,-2.44922 -0.70312,-0.96094 -2.21484,-0.96094 -1.18359,0 -2.07422,0.5625 -0.89062,0.55078 -1.48828,1.47657 -0.58594,0.92578 -0.89063,2.05078 -0.29296,1.125 -0.29296,2.26172 0,1.55859 0.71484,2.49609 0.71484,0.92578 2.14453,0.92578 z m 14.32031,1.88672 q -2.42578,0 -3.79687,-1.39453 -1.3711,-1.40625 -1.3711,-3.89063 0,-1.72265 0.55079,-3.23437 0.55078,-1.52344 1.53515,-2.67188 0.98438,-1.16015 2.27344,-1.8164 1.30078,-0.65625 2.78906,-0.65625 1.89844,0 3.03516,0.97265 1.13672,0.96094 1.13672,2.60157 0,2.14453 -2.20313,3.10546 -2.1914,0.94922 -7.05469,0.9961 -0.0351,0.35156 -0.0351,0.6914 0,1.44141 0.72656,2.4375 0.73828,0.9961 2.54297,0.9961 1.25391,0 2.22656,-0.53906 0.98438,-0.55079 1.48828,-1.48829 l 1.95703,0.55079 q -0.72656,1.54687 -2.29687,2.44921 -1.55859,0.89063 -3.50391,0.89063 z m -2.82422,-7.58203 q 2.625,-0.0234 4.11329,-0.26953 1.5,-0.2461 2.12109,-0.78516 0.63281,-0.55078 0.63281,-1.5 0,-0.75 -0.63281,-1.19531 -0.62109,-0.45703 -1.64063,-0.45703 -1.28906,0 -2.21484,0.60937 -0.91406,0.60938 -1.5,1.57031 -0.58594,0.96094 -0.87891,2.02735 z m 15.65625,7.58203 q -1.96875,0 -3.17578,-0.83203 -1.19531,-0.83203 -1.37109,-2.37891 -0.0117,-0.082 -0.0234,-0.15234 0,-0.082 0,-0.16406 l 2.03906,-0.33985 q 0.0937,1.07813 0.76172,1.54688 0.66797,0.46875 1.80469,0.46875 1.41797,0 2.36719,-0.63282 0.96094,-0.63281 1.11328,-1.48828 0.1875,-1.24218 -1.58203,-1.67578 l -2.09766,-0.51562 q -3.43359,-0.84375 -2.96484,-3.70313 0.1875,-1.08984 0.9375,-1.92187 0.75,-0.83203 1.88672,-1.28907 1.14843,-0.46875 2.50781,-0.46875 1.88672,0 2.87109,0.77344 0.9961,0.76172 1.3125,1.95703 0.0703,0.2461 0.10547,0.49219 l -1.93359,0.35156 q -0.15235,-0.70312 -0.66797,-1.24218 -0.50391,-0.53907 -1.72266,-0.53907 -1.20703,0 -2.13281,0.58594 -0.91406,0.58594 -1.05469,1.45313 -0.11718,0.67968 0.31641,1.07812 0.43359,0.39844 1.53516,0.66797 l 1.89843,0.46875 q 3.41016,0.84375 2.95313,3.66797 -0.1875,1.11328 -0.97266,1.98047 -0.77344,0.86718 -1.99219,1.35937 -1.20703,0.49219 -2.71875,0.49219 z m 17.05079,-8.70703 -0.32813,1.94531 h -7.66406 l 0.32812,-1.94531 z m 8.32031,8.70703 q -1.26563,0 -1.98047,-0.41016 -0.71484,-0.42187 -1.06641,-0.96093 -0.35156,-0.55079 -0.52734,-0.9375 h -0.21094 L 315.56836,306 h -2.03906 l 2.89453,-17.46094 h 2.10937 l -1.07812,6.45703 h 0.17578 q 0.30469,-0.375 0.77344,-0.90234 0.46875,-0.53906 1.24218,-0.94922 0.78516,-0.41016 2.01563,-0.41016 2.16797,0 3.43359,1.40625 1.26563,1.39454 1.26563,3.83204 0,1.52343 -0.45703,3.01171 -0.44532,1.47657 -1.30078,2.67188 -0.85547,1.19531 -2.09766,1.91016 -1.23047,0.71484 -2.80078,0.71484 z m -0.28125,-1.88672 q 1.17187,0 2.0625,-0.57422 0.90234,-0.57422 1.51172,-1.51172 0.62109,-0.94922 0.92578,-2.0625 0.3164,-1.125 0.3164,-2.21484 0,-1.5 -0.71484,-2.44922 -0.70312,-0.96094 -2.21484,-0.96094 -1.1836,0 -2.07422,0.5625 -0.89063,0.55078 -1.48828,1.47657 -0.58594,0.92578 -0.89063,2.05078 -0.29297,1.125 -0.29297,2.26172 0,1.55859 0.71485,2.49609 0.71484,0.92578 2.14453,0.92578 z m 13.24219,1.76953 q -1.96875,0 -3,-1.21875 -1.03125,-1.21875 -0.6211,-3.72656 l 1.3711,-8.32031 h 2.10937 l -1.33594,8.14453 q -0.24609,1.5 0.38672,2.36719 0.64453,0.85546 2.02735,0.85546 1.38281,0 2.49609,-0.90234 1.11328,-0.90234 1.39453,-2.61328 l 1.28906,-7.85156 h 2.1211 L 338.73633,306 h -2.03906 l 0.41015,-2.44922 q -0.8789,1.42969 -2.01562,2.02734 -1.125,0.58594 -2.42578,0.58594 z m 17.10937,-13.26562 -0.29297,1.80468 h -2.68359 l -1.3125,7.89844 q -0.15235,0.90235 0.15234,1.30078 0.30469,0.38672 1.11328,0.38672 0.19922,0 0.51563,-0.0469 0.3164,-0.0469 0.58594,-0.0937 l 0.1289,1.78125 q -0.70312,0.23437 -1.59375,0.23437 -1.72265,0 -2.51953,-0.90234 -0.78516,-0.90235 -0.52734,-2.4961 l 1.33593,-8.0625 h -1.96875 l 0.29297,-1.80468 h 1.98047 l 0.51563,-3.11719 h 2.10937 l -0.51562,3.11719 z m 7.875,0 -0.29297,1.80468 h -2.68359 l -1.3125,7.89844 q -0.15235,0.90235 0.15234,1.30078 0.30469,0.38672 1.11328,0.38672 0.19922,0 0.51563,-0.0469 0.3164,-0.0469 0.58594,-0.0937 l 0.1289,1.78125 q -0.70312,0.23437 -1.59375,0.23437 -1.72265,0 -2.51953,-0.90234 -0.78516,-0.90235 -0.52734,-2.4961 l 1.33593,-8.0625 h -1.96875 l 0.29297,-1.80468 h 1.98047 l 0.51563,-3.11719 h 2.10937 l -0.51562,3.11719 z m 5.73047,13.38281 q -2.36719,0 -3.72656,-1.45313 -1.35938,-1.46484 -1.35938,-3.90234 0,-1.55859 0.48047,-3.02344 0.49219,-1.46484 1.40625,-2.625 0.92578,-1.17187 2.22656,-1.85156 1.3125,-0.69141 2.95313,-0.69141 2.3789,0 3.73828,1.45313 1.37109,1.45312 1.37109,3.91406 0,1.58203 -0.49218,3.04688 -0.49219,1.46484 -1.42969,2.625 -0.92578,1.16015 -2.23828,1.83984 -1.30078,0.66797 -2.92969,0.66797 z m 0.0469,-1.88672 q 1.20704,0 2.1211,-0.5625 0.92578,-0.5625 1.54687,-1.47656 0.6211,-0.92578 0.9375,-2.02735 0.31641,-1.10156 0.31641,-2.17968 0,-1.5 -0.72656,-2.50782 -0.71485,-1.01953 -2.32032,-1.01953 -1.19531,0 -2.10937,0.5625 -0.91406,0.5625 -1.53516,1.48828 -0.62109,0.92579 -0.9375,2.03907 -0.3164,1.10156 -0.3164,2.1914 0,1.47657 0.71484,2.48438 0.71484,1.00781 2.30859,1.00781 z M 375.76758,298.21875 374.4668,306 h -2.10938 l 2.17969,-13.10156 h 2.02734 l -0.375,2.30859 q 0.84375,-1.33594 1.92188,-1.89844 1.07812,-0.57422 2.36719,-0.57422 2.03906,0 3.09375,1.26563 1.05468,1.26562 0.64453,3.75 l -1.3711,8.25 h -2.10937 l 1.37109,-8.21484 q 0.25781,-1.53516 -0.375,-2.34375 -0.63281,-0.8086 -1.95703,-0.8086 -1.45312,0 -2.58984,0.96094 -1.13672,0.94922 -1.41797,2.625 z m 15.30469,8.0625 q -1.96875,0 -3.17579,-0.83203 -1.19531,-0.83203 -1.37109,-2.37891 -0.0117,-0.082 -0.0234,-0.15234 0,-0.082 0,-0.16406 l 2.03907,-0.33985 q 0.0937,1.07813 0.76171,1.54688 0.66797,0.46875 1.80469,0.46875 1.41797,0 2.36719,-0.63282 0.96094,-0.63281 1.11328,-1.48828 0.1875,-1.24218 -1.58203,-1.67578 l -2.09766,-0.51562 q -3.43359,-0.84375 -2.96484,-3.70313 0.1875,-1.08984 0.9375,-1.92187 0.75,-0.83203 1.88672,-1.28907 1.14844,-0.46875 2.50781,-0.46875 1.88672,0 2.87109,0.77344 0.9961,0.76172 1.3125,1.95703 0.0703,0.2461 0.10547,0.49219 l -1.93359,0.35156 q -0.15234,-0.70312 -0.66797,-1.24218 -0.50391,-0.53907 -1.72266,-0.53907 -1.20703,0 -2.13281,0.58594 -0.91406,0.58594 -1.05469,1.45313 -0.11718,0.67968 0.31641,1.07812 0.43359,0.39844 1.53516,0.66797 l 1.89843,0.46875 q 3.41016,0.84375 2.95313,3.66797 -0.1875,1.11328 -0.97266,1.98047 -0.77343,0.86718 -1.99218,1.35937 -1.20704,0.49219 -2.71875,0.49219 z"
     id="text3"
     class="ink caption"
     style="font-style:italic;font-size:24px;font-family:Inter, 'Helvetica Neue', sans-serif;text-anchor:middle;fill:#111111"
     aria-label="no-vibes-buttons" />
  <line
     x1="160"
     y1="346"
     x2="440"
     y2="346"
     stroke="#111"
     stroke-width="1.4"
     id="line3" />
  <path
     d="m 184.29656,446 25.47071,-78.57422 h 29.10937 L 265.29656,446 h -24.15234 l -4.53516,-15.08203 H 212.45672 L 208.1325,446 Z m 32.69531,-31.00781 h 14.8711 q -2.16211,-7.17188 -4.11328,-14.76563 -1.89844,-7.64648 -3.63867,-15.3457 -1.63477,7.69922 -3.375,15.3457 -1.6875,7.59375 -3.74415,14.76563 z M 268.46484,446 v -78.57422 h 21.30469 v 29.84766 h 28.26563 v -29.84766 h 21.30468 V 446 H 318.03516 V 414.46484 H 289.76953 V 446 Z m 106.94954,0 h -30.26954 v -78.57422 h 29.95313 q 12.12891,0 20.93555,4.74609 8.80664,4.69336 13.60546,13.5 4.79883,8.80665 4.79883,21.09375 0,12.23438 -4.79883,21.04102 -4.74609,8.80664 -13.5,13.5 Q 387.38508,446 375.41438,446 Z m -8.96485,-18.14063 h 8.1211 q 5.85351,0 9.96679,-1.8457 4.16602,-1.8457 6.32813,-6.43359 2.16211,-4.64063 2.16211,-12.81446 0,-8.22656 -2.21485,-12.81445 -2.21484,-4.64062 -6.48633,-6.48633 -4.21875,-1.89843 -10.38867,-1.89843 h -7.48828 z"
     id="text4"
     class="ink mark"
     style="font-weight:900;font-size:108px;font-family:Inter, 'Helvetica Neue', sans-serif;letter-spacing:-0.04em;text-anchor:middle;fill:#111111"
     aria-label="AHD" />
  <path
     d="m 195.04074,478 3.69824,-10.18555 h 1.50391 L 203.98898,478 h -1.36718 l -1.01856,-2.84375 h -4.19726 L 196.4216,478 Z m 2.76172,-3.97852 h 3.39746 l -0.73828,-2.06445 q -0.18457,-0.51269 -0.41699,-1.25098 -0.23242,-0.74511 -0.56055,-1.85253 -0.32129,1.12793 -0.56055,1.87988 -0.23925,0.75195 -0.40332,1.22363 z M 207.94453,478 v -7.64258 h 1.18946 v 1.17578 h 0.082 q 0.21191,-0.58105 0.75195,-0.92968 0.54687,-0.35547 1.23047,-0.35547 0.13672,0 0.32129,0.007 0.1914,0.007 0.30078,0.0137 v 1.23731 q -0.0547,-0.0137 -0.27344,-0.041 -0.21875,-0.0273 -0.46484,-0.0273 -0.82715,0 -1.36719,0.50586 -0.54004,0.49902 -0.54004,1.27148 V 478 Z m 11.01707,-7.64258 v 1.05274 h -1.57226 v 4.60742 q 0,0.51269 0.20508,0.75195 0.21191,0.23242 0.69726,0.23242 0.11621,0 0.29395,-0.0273 0.18457,-0.0273 0.33496,-0.0547 l 0.25293,1.03906 q -0.19141,0.0684 -0.4375,0.10254 -0.23926,0.0342 -0.47852,0.0342 -0.99121,0 -1.54492,-0.51953 -0.55371,-0.52637 -0.55371,-1.46289 v -4.70312 h -1.14844 v -1.05274 h 1.14844 v -1.81836 h 1.23047 v 1.81836 z M 223.05387,478 v -7.64258 h 1.23047 V 478 Z m 0.62207,-8.89355 q -0.34864,0 -0.60157,-0.23926 -0.25293,-0.23926 -0.25293,-0.57422 0,-0.3418 0.25293,-0.57422 0.25293,-0.23926 0.60157,-0.23926 0.35547,0 0.6084,0.23926 0.25293,0.23242 0.25293,0.57422 0,0.33496 -0.25293,0.57422 -0.25293,0.23926 -0.6084,0.23926 z m 8.84324,1.25097 v 1.05274 h -1.76367 V 478 h -1.23047 v -6.58984 h -1.50391 v -1.05274 h 1.50391 v -1.01855 q 0,-0.66309 0.30762,-1.10742 0.31445,-0.44434 0.81347,-0.66993 0.49903,-0.22558 1.05274,-0.22558 0.4375,0 0.72461,0.0752 0.28711,0.0684 0.42383,0.12989 l -0.3418,1.05273 q -0.0957,-0.0342 -0.25293,-0.0752 -0.15039,-0.041 -0.41016,-0.041 -0.56738,0 -0.82714,0.29394 -0.25977,0.28711 -0.25977,0.84082 v 0.74512 z M 236.66613,478 v -7.64258 h 1.23047 V 478 Z m 0.62207,-8.89355 q -0.34863,0 -0.60156,-0.23926 -0.25293,-0.23926 -0.25293,-0.57422 0,-0.3418 0.25293,-0.57422 0.25293,-0.23926 0.60156,-0.23926 0.35547,0 0.6084,0.23926 0.25293,0.23242 0.25293,0.57422 0,0.33496 -0.25293,0.57422 -0.25293,0.23926 -0.6084,0.23926 z m 8.39891,9.05761 q -1.03906,0 -1.8252,-0.49219 -0.77929,-0.49218 -1.21679,-1.38085 -0.4375,-0.88868 -0.4375,-2.06446 0,-1.19629 0.4375,-2.08496 0.4375,-0.89551 1.21679,-1.38769 0.78614,-0.49219 1.8252,-0.49219 1.10742,0 1.9414,0.56055 0.84083,0.55371 1.15528,1.55175 l -1.18262,0.33496 q -0.1709,-0.58789 -0.66992,-0.96386 -0.49219,-0.38282 -1.24414,-0.38282 -0.76563,0 -1.25781,0.40332 -0.49219,0.39649 -0.73145,1.0459 -0.23926,0.64942 -0.23926,1.41504 0,0.75196 0.23926,1.40137 0.23926,0.64258 0.73145,1.03906 0.49218,0.39649 1.25781,0.39649 0.77246,0 1.27148,-0.38965 0.50586,-0.39649 0.67676,-1.01856 l 1.17578,0.33496 q -0.30762,1.01856 -1.15527,1.59961 -0.84766,0.57422 -1.96875,0.57422 z M 253.0948,478 v -7.64258 h 1.23047 V 478 Z m 0.62207,-8.89355 q -0.34863,0 -0.60156,-0.23926 -0.25293,-0.23926 -0.25293,-0.57422 0,-0.3418 0.25293,-0.57422 0.25293,-0.23926 0.60156,-0.23926 0.35547,0 0.6084,0.23926 0.25293,0.23242 0.25293,0.57422 0,0.33496 -0.25293,0.57422 -0.25293,0.23926 -0.6084,0.23926 z m 7.42821,9.07128 q -0.72461,0 -1.31934,-0.27343 -0.58789,-0.27344 -0.93652,-0.79981 -0.34863,-0.52637 -0.34863,-1.27832 0,-0.65625 0.25976,-1.0664 0.25977,-0.41016 0.69043,-0.64258 0.4375,-0.23926 0.96387,-0.35547 0.52637,-0.11621 1.05957,-0.18457 0.68359,-0.0889 1.11426,-0.13672 0.43066,-0.0478 0.63574,-0.16406 0.21191,-0.11621 0.21191,-0.39649 v -0.041 q 0,-0.71094 -0.40332,-1.10059 -0.40332,-0.39648 -1.19629,-0.39648 -0.82714,0 -1.29199,0.3623 -0.46484,0.35547 -0.64258,0.75879 l -1.18261,-0.38965 q 0.29394,-0.69726 0.79296,-1.08691 0.49903,-0.39649 1.10059,-0.56055 0.60156,-0.16406 1.18945,-0.16406 0.38282,0 0.86817,0.0957 0.49219,0.0889 0.94336,0.36231 0.45801,0.27343 0.75195,0.81347 0.30078,0.53321 0.30078,1.42871 V 478 h -1.20996 v -1.03906 h -0.082 q -0.12988,0.2666 -0.41699,0.55371 -0.28711,0.28027 -0.74512,0.47168 -0.45801,0.1914 -1.10742,0.1914 z m 0.21191,-1.08691 q 0.6836,0 1.15528,-0.2666 0.47168,-0.2666 0.71777,-0.69043 0.24609,-0.43067 0.24609,-0.89551 v -1.05957 q -0.0752,0.0889 -0.32812,0.16406 -0.25293,0.0684 -0.58106,0.12305 -0.32129,0.0547 -0.6289,0.0957 -0.30078,0.0342 -0.47852,0.0547 -0.44433,0.0547 -0.83398,0.19141 -0.38282,0.12988 -0.61524,0.38965 -0.23242,0.25293 -0.23242,0.69043 0,0.59472 0.44434,0.90234 0.45117,0.30078 1.13476,0.30078 z m 9.26024,-9.27637 V 478 h -1.23047 V 467.81445 Z M 281.90527,478 v -10.18555 h 1.29883 v 4.40235 h 5.34571 v -4.40235 h 1.29882 V 478 h -1.29882 v -4.63477 H 283.2041 V 478 Z m 15.36473,0.0957 q -1.15528,0 -1.87305,-0.71777 -0.71777,-0.71777 -0.71777,-2.16699 v -4.85352 h 1.23047 v 4.75098 q 0,0.88183 0.46484,1.38086 0.46484,0.49902 1.26465,0.49902 0.82031,0 1.36719,-0.5332 0.55371,-0.54004 0.55371,-1.51758 v -4.58008 h 1.2373 V 478 h -1.18945 v -1.42871 q -0.37598,0.83398 -0.98438,1.18262 -0.60156,0.34179 -1.35351,0.34179 z M 305.4775,478 v -7.64258 h 1.19629 l 0.007,1.40137 q 0.28027,-0.77246 0.86816,-1.15527 0.59473,-0.38282 1.27149,-0.38282 0.75195,0 1.24414,0.43067 0.49902,0.42383 0.7041,1.12793 0.27344,-0.72461 0.92285,-1.1416 0.65625,-0.417 1.4834,-0.417 0.66308,0 1.20996,0.28711 0.54687,0.28711 0.86816,0.86817 0.32813,0.58105 0.32813,1.46972 V 478 h -1.23047 v -5.12012 q 0,-0.82715 -0.46484,-1.18261 -0.46485,-0.35547 -1.08008,-0.35547 -0.77246,0 -1.2168,0.47168 -0.44434,0.47168 -0.44434,1.19629 V 478 h -1.23046 v -5.24316 q 0,-0.63575 -0.42383,-1.02539 -0.42383,-0.38965 -1.07324,-0.38965 -0.66993,0 -1.18946,0.46484 -0.51953,0.46484 -0.51953,1.38086 V 478 Z m 16.92332,0.17773 q -0.72461,0 -1.31934,-0.27343 -0.58789,-0.27344 -0.93652,-0.79981 -0.34863,-0.52637 -0.34863,-1.27832 0,-0.65625 0.25976,-1.0664 0.25977,-0.41016 0.69043,-0.64258 0.4375,-0.23926 0.96387,-0.35547 0.52637,-0.11621 1.05957,-0.18457 0.68359,-0.0889 1.11426,-0.13672 0.43066,-0.0478 0.63574,-0.16406 0.21191,-0.11621 0.21191,-0.39649 v -0.041 q 0,-0.71094 -0.40332,-1.10059 -0.40332,-0.39648 -1.19629,-0.39648 -0.82714,0 -1.29199,0.3623 -0.46484,0.35547 -0.64258,0.75879 l -1.18261,-0.38965 q 0.29394,-0.69726 0.79297,-1.08691 0.49902,-0.39649 1.10058,-0.56055 0.60156,-0.16406 1.18945,-0.16406 0.38282,0 0.86817,0.0957 0.49219,0.0889 0.94336,0.36231 0.45801,0.27343 0.75195,0.81347 0.30078,0.53321 0.30078,1.42871 V 478 h -1.20996 v -1.03906 h -0.082 q -0.12988,0.2666 -0.41699,0.55371 -0.28711,0.28027 -0.74512,0.47168 -0.45801,0.1914 -1.10742,0.1914 z m 0.21191,-1.08691 q 0.6836,0 1.15528,-0.2666 0.47168,-0.2666 0.71777,-0.69043 0.24609,-0.43067 0.24609,-0.89551 v -1.05957 q -0.0752,0.0889 -0.32812,0.16406 -0.25293,0.0684 -0.58106,0.12305 -0.32128,0.0547 -0.6289,0.0957 -0.30078,0.0342 -0.47852,0.0547 -0.44433,0.0547 -0.83398,0.19141 -0.38281,0.12988 -0.61524,0.38965 -0.23242,0.25293 -0.23242,0.69043 0,0.59472 0.44434,0.90234 0.45117,0.30078 1.13476,0.30078 z m 9.26024,-3.6709 V 478 h -1.23047 v -7.64258 h 1.18262 l 0.007,1.41504 q 0.36914,-0.81348 0.96386,-1.16211 0.60157,-0.34863 1.37403,-0.34863 1.16211,0 1.87304,0.71777 0.71094,0.71778 0.71094,2.16699 V 478 h -1.23047 v -4.75098 q 0,-0.88183 -0.46484,-1.38086 -0.45801,-0.49902 -1.25781,-0.49902 -0.82715,0 -1.38086,0.54004 -0.54688,0.5332 -0.54688,1.51074 z M 351.22058,478 h -3.17871 v -10.18555 h 3.3086 q 1.49023,0 2.54296,0.6084 1.05957,0.6084 1.62012,1.75 0.56738,1.13477 0.56738,2.71387 0,1.59277 -0.56738,2.74121 -0.56738,1.1416 -1.6543,1.75684 Q 352.77234,478 351.22058,478 Z m -1.87988,-1.14844 h 1.79785 q 1.85938,0 2.76856,-1.05273 0.91601,-1.05957 0.91601,-2.91211 0,-1.83887 -0.89551,-2.87793 -0.8955,-1.0459 -2.66601,-1.0459 h -1.9209 z m 14.38719,1.3125 q -1.10742,0 -1.91406,-0.49219 -0.79981,-0.49218 -1.23731,-1.37402 -0.43066,-0.88183 -0.43066,-2.05762 0,-1.17578 0.42383,-2.07128 0.42383,-0.89551 1.19629,-1.40137 0.77929,-0.50586 1.81836,-0.50586 0.6084,0 1.19629,0.20508 0.59472,0.19824 1.07324,0.64941 0.48535,0.44434 0.77246,1.17578 0.28711,0.73145 0.28711,1.79102 v 0.51269 H 361.39 q 0.0479,1.19629 0.68359,1.83887 0.64258,0.63574 1.66114,0.63574 0.67676,0 1.16211,-0.29394 0.49218,-0.30078 0.7041,-0.88184 l 1.18945,0.32813 q -0.2666,0.86816 -1.08008,1.4082 -0.80664,0.5332 -1.98242,0.5332 z m -2.33105,-4.60742 h 4.26562 q -0.0889,-0.97754 -0.61523,-1.58594 -0.51953,-0.61523 -1.46289,-0.61523 -0.65625,0 -1.13477,0.30762 -0.47168,0.30761 -0.74512,0.80664 -0.27343,0.49902 -0.30761,1.08691 z m 12.39793,4.60742 q -1.17578,0 -1.95508,-0.51269 -0.77929,-0.5127 -0.98437,-1.50391 l 1.16894,-0.28027 q 0.16407,0.6289 0.61524,0.92285 0.45801,0.29394 1.1416,0.29394 0.7998,0 1.27148,-0.34179 0.47852,-0.3418 0.47852,-0.81348 0,-0.78613 -1.12109,-1.05273 l -1.27149,-0.30078 q -2.05078,-0.48536 -2.05078,-2.08497 0,-0.65625 0.36914,-1.15527 0.36914,-0.50586 1.00488,-0.78613 0.64258,-0.28711 1.45606,-0.28711 1.18261,0 1.83203,0.51953 0.65625,0.5127 0.91601,1.31934 l -1.11425,0.28711 q -0.15723,-0.41016 -0.52637,-0.74512 -0.36231,-0.33496 -1.10059,-0.33496 -0.68359,0 -1.1416,0.31445 -0.45117,0.31445 -0.45117,0.79297 0,0.42383 0.30762,0.68359 0.30761,0.25293 0.97754,0.41016 l 1.15527,0.27344 q 1.03906,0.24609 1.53809,0.76562 0.49902,0.5127 0.49902,1.29883 0,0.66992 -0.38281,1.19629 -0.37598,0.51953 -1.05957,0.82031 -0.67676,0.30078 -1.57227,0.30078 z M 381.10675,478 v -7.64258 h 1.23047 V 478 Z m 0.62207,-8.89355 q -0.34863,0 -0.60156,-0.23926 -0.25293,-0.23926 -0.25293,-0.57422 0,-0.3418 0.25293,-0.57422 0.25293,-0.23926 0.60156,-0.23926 0.35547,0 0.6084,0.23926 0.25293,0.23242 0.25293,0.57422 0,0.33496 -0.25293,0.57422 -0.25293,0.23926 -0.6084,0.23926 z m 8.38524,11.91503 q -1.27148,0 -2.03027,-0.46484 -0.75879,-0.46484 -1.11426,-1.09375 l 0.99805,-0.64258 q 0.16406,0.21875 0.40332,0.48535 0.24609,0.26661 0.65625,0.45118 0.41699,0.1914 1.08691,0.1914 0.91602,0 1.50391,-0.4375 0.59472,-0.4375 0.59472,-1.38086 v -1.53125 h -0.11621 q -0.12988,0.21875 -0.36914,0.51953 -0.23242,0.30079 -0.67676,0.53321 -0.4375,0.22558 -1.17578,0.22558 -0.91601,0 -1.64746,-0.43066 -0.73144,-0.4375 -1.15527,-1.27149 -0.42383,-0.83398 -0.42383,-2.03027 0,-1.18262 0.41699,-2.05078 0.41699,-0.875 1.14844,-1.35352 0.73828,-0.47851 1.68848,-0.47851 0.73828,0 1.17578,0.24609 0.44433,0.23926 0.68359,0.55371 0.23926,0.31446 0.36914,0.51953 h 0.11621 v -1.22363 h 1.19629 v 7.84082 q 0,0.98438 -0.44433,1.60645 -0.44434,0.6289 -1.20313,0.92285 -0.75195,0.29394 -1.68164,0.29394 z m -0.0342,-4.23828 q 1.03906,0 1.59277,-0.7041 0.55372,-0.71094 0.55372,-1.96191 0,-1.2168 -0.54688,-1.98242 -0.54004,-0.77247 -1.59961,-0.77247 -0.72461,0 -1.20996,0.37598 -0.48535,0.36914 -0.73145,0.99121 -0.23925,0.62207 -0.23925,1.3877 0,1.17578 0.55371,1.9209 0.55371,0.74511 1.62695,0.74511 z m 9.27391,-3.36328 V 478 h -1.23047 v -7.64258 h 1.18262 l 0.007,1.41504 q 0.36914,-0.81348 0.96386,-1.16211 0.60157,-0.34863 1.37403,-0.34863 1.16211,0 1.87304,0.71777 0.71094,0.71778 0.71094,2.16699 V 478 h -1.23047 v -4.75098 q 0,-0.88183 -0.46484,-1.38086 -0.45801,-0.49902 -1.25781,-0.49902 -0.82715,0 -1.38086,0.54004 -0.54688,0.5332 -0.54688,1.51074 z"
     id="text5"
     class="ink sub"
     style="font-size:14px;font-family:Inter, 'Helvetica Neue', sans-serif;letter-spacing:0.18em;text-transform:uppercase;text-anchor:middle;fill:#111111"
     aria-label="Artificial Human Design" />
  <path
     d="m 196.48193,538.18 c 1.692,0 2.772,-0.756 2.952,-1.998 h 0.036 V 538 h 1.746 v -6.786 c 0,-2.088 -1.368,-3.294 -3.798,-3.294 -2.25,0 -3.672,1.17 -3.798,2.772 h 1.764 c 0.054,-0.792 0.828,-1.26 2.034,-1.26 1.35,0 2.016,0.594 2.016,1.818 v 0.756 h -2.898 c -2.016,0 -3.366,1.224 -3.366,3.078 0,1.854 1.26,3.096 3.312,3.096 z m 0.468,-1.494 c -1.242,0 -1.98,-0.648 -1.98,-1.692 0,-1.008 0.684,-1.674 1.728,-1.674 h 2.736 v 1.314 c 0,1.26 -0.972,2.052 -2.484,2.052 z m 7.43401,1.314 h 1.782 v -6.282 c 0,-1.44 0.792,-2.286 2.088,-2.286 1.242,0 2.016,0.792 2.016,2.214 V 538 h 1.782 v -6.624 c 0,-2.124 -1.278,-3.456 -3.24,-3.456 -1.512,0 -2.484,0.756 -2.646,2.07 h -0.018 l 0.018,-1.89 v -3.24 h -1.782 z m 13.96801,0.18 c 1.476,0 2.484,-0.792 2.7,-2.106 V 538 h 1.764 v -13.14 h -1.782 v 2.844 l 0.036,2.304 c -0.216,-1.296 -1.26,-2.088 -2.718,-2.088 -1.998,0 -3.258,1.422 -3.258,3.708 v 2.844 c 0,2.286 1.278,3.708 3.258,3.708 z m 0.612,-1.548 c -1.314,0 -2.088,-0.648 -2.088,-2.178 v -2.808 c 0,-1.53 0.774,-2.178 2.088,-2.178 1.278,0 2.07,0.846 2.07,2.268 v 2.628 c 0,1.422 -0.792,2.268 -2.07,2.268 z m 10.836,1.548 c 0.918,0 1.53,-0.594 1.53,-1.476 0,-0.918 -0.612,-1.548 -1.53,-1.548 -0.918,0 -1.53,0.63 -1.53,1.548 0,0.882 0.612,1.476 1.53,1.476 z m 9.88201,0 c 1.692,0 2.772,-0.756 2.952,-1.998 h 0.036 V 538 h 1.746 v -6.786 c 0,-2.088 -1.368,-3.294 -3.798,-3.294 -2.25,0 -3.672,1.17 -3.798,2.772 h 1.764 c 0.054,-0.792 0.828,-1.26 2.034,-1.26 1.35,0 2.016,0.594 2.016,1.818 v 0.756 h -2.898 c -2.016,0 -3.366,1.224 -3.366,3.078 0,1.854 1.26,3.096 3.312,3.096 z m 0.468,-1.494 c -1.242,0 -1.98,-0.648 -1.98,-1.692 0,-1.008 0.684,-1.674 1.728,-1.674 h 2.736 v 1.314 c 0,1.26 -0.972,2.052 -2.484,2.052 z m 10.60201,1.494 c 1.476,0 2.484,-0.792 2.7,-2.106 V 538 h 1.764 v -13.14 h -1.782 v 2.844 l 0.036,2.304 c -0.216,-1.296 -1.26,-2.088 -2.718,-2.088 -1.998,0 -3.258,1.422 -3.258,3.708 v 2.844 c 0,2.286 1.278,3.708 3.258,3.708 z m 0.612,-1.548 c -1.314,0 -2.088,-0.648 -2.088,-2.178 v -2.808 c 0,-1.53 0.774,-2.178 2.088,-2.178 1.278,0 2.07,0.846 2.07,2.268 v 2.628 c 0,1.422 -0.792,2.268 -2.07,2.268 z m 9.918,1.548 c 1.692,0 2.772,-0.756 2.952,-1.998 h 0.036 V 538 h 1.746 v -6.786 c 0,-2.088 -1.368,-3.294 -3.798,-3.294 -2.25,0 -3.672,1.17 -3.798,2.772 h 1.764 c 0.054,-0.792 0.828,-1.26 2.034,-1.26 1.35,0 2.016,0.594 2.016,1.818 v 0.756 h -2.898 c -2.016,0 -3.366,1.224 -3.366,3.078 0,1.854 1.26,3.096 3.312,3.096 z m 0.468,-1.494 c -1.242,0 -1.98,-0.648 -1.98,-1.692 0,-1.008 0.684,-1.674 1.728,-1.674 h 2.736 v 1.314 c 0,1.26 -0.972,2.052 -2.484,2.052 z m 10.85401,1.458 h 0.792 c 2.286,0 3.564,-1.062 3.564,-2.934 0,-1.746 -0.864,-2.754 -2.574,-2.988 l -2.502,-0.36 c -0.648,-0.09 -0.99,-0.45 -0.99,-1.116 0,-0.828 0.612,-1.332 1.692,-1.332 h 0.792 c 0.972,0 1.602,0.486 1.638,1.17 h 1.8 c -0.072,-1.566 -1.44,-2.628 -3.438,-2.628 h -0.792 c -2.16,0 -3.42,1.044 -3.42,2.808 0,1.53 0.792,2.502 2.214,2.718 l 2.664,0.378 c 0.81,0.108 1.188,0.54 1.188,1.35 0,0.918 -0.666,1.44 -1.836,1.44 h -0.792 c -1.134,0 -1.8,-0.504 -1.8,-1.386 h -1.764 c 0,1.836 1.314,2.88 3.564,2.88 z M 284.78999,538 h 2.934 v -1.62 h -2.898 c -0.63,0 -1.026,-0.432 -1.026,-1.098 v -5.562 h 4.014 v -1.62 h -4.014 v -2.79 h -1.782 v 2.79 h -2.826 v 1.62 h 2.826 v 5.58 c 0,1.638 1.08,2.7 2.772,2.7 z m 6.354,0 h 1.782 v -6.246 c 0,-1.476 0.738,-2.286 2.088,-2.286 1.314,0 2.034,0.684 2.034,2.07 v 0.846 h 1.782 v -0.864 c 0,-2.286 -1.17,-3.6 -3.222,-3.6 -1.53,0 -2.484,0.792 -2.682,2.088 h -0.018 V 528.1 h -1.764 z m 13.33801,0.18 c 1.692,0 2.772,-0.756 2.952,-1.998 h 0.036 V 538 h 1.746 v -6.786 c 0,-2.088 -1.368,-3.294 -3.798,-3.294 -2.25,0 -3.672,1.17 -3.798,2.772 h 1.764 c 0.054,-0.792 0.828,-1.26 2.034,-1.26 1.35,0 2.016,0.594 2.016,1.818 v 0.756 h -2.898 c -2.016,0 -3.366,1.224 -3.366,3.078 0,1.854 1.26,3.096 3.312,3.096 z m 0.468,-1.494 c -1.242,0 -1.98,-0.648 -1.98,-1.692 0,-1.008 0.684,-1.674 1.728,-1.674 h 2.736 v 1.314 c 0,1.26 -0.972,2.052 -2.484,2.052 z m 11.25001,1.494 c 0.918,0 1.53,-0.594 1.53,-1.476 0,-0.918 -0.612,-1.548 -1.53,-1.548 -0.918,0 -1.53,0.63 -1.53,1.548 0,0.882 0.612,1.476 1.53,1.476 z m 10.944,0 c 2.34,0 3.87,-1.332 3.942,-3.456 h -1.764 c -0.072,1.188 -0.9,1.872 -2.178,1.872 -1.368,0 -2.232,-0.792 -2.232,-2.232 v -2.646 c 0,-1.422 0.864,-2.232 2.232,-2.232 1.278,0 2.106,0.702 2.178,1.89 h 1.764 c -0.072,-2.124 -1.602,-3.456 -3.942,-3.456 -2.43,0 -4.014,1.44 -4.014,3.798 v 2.646 c 0,2.376 1.584,3.816 4.014,3.816 z m 10.65601,-0.036 c 2.412,0 3.96,-1.476 3.96,-3.96 v -2.268 c 0,-2.502 -1.53,-3.96 -3.96,-3.96 -2.43,0 -3.96,1.458 -3.96,3.96 v 2.268 c 0,2.484 1.548,3.96 3.96,3.96 z m 0,-1.566 c -1.35,0 -2.178,-0.774 -2.178,-2.232 v -2.592 c 0,-1.458 0.828,-2.232 2.178,-2.232 1.35,0 2.178,0.774 2.178,2.232 v 2.592 c 0,1.458 -0.828,2.232 -2.178,2.232 z m 6.42602,1.422 h 1.62 v -7.506 c 0,-0.774 0.396,-1.224 1.026,-1.224 0.63,0 1.008,0.468 1.008,1.224 V 538 h 1.44 v -7.506 c 0,-0.774 0.396,-1.224 1.008,-1.224 0.63,0 1.026,0.468 1.026,1.224 V 538 h 1.62 v -7.524 c 0,-1.512 -0.828,-2.556 -2.088,-2.556 -0.918,0 -1.548,0.558 -1.692,1.458 -0.252,-0.9 -0.882,-1.458 -1.764,-1.458 -0.9,0 -1.53,0.612 -1.638,1.53 h -0.054 v -1.35 h -1.512 z m 11.358,3.24 h 1.782 v -2.862 l -0.036,-2.286 h 0.036 c 0.216,1.296 1.224,2.088 2.7,2.088 1.98,0 3.24,-1.44 3.24,-3.726 v -2.826 c 0,-2.286 -1.278,-3.708 -3.24,-3.708 -1.494,0 -2.502,0.792 -2.7,2.088 h -0.018 V 528.1 h -1.764 z m 3.852,-4.608 c -1.278,0 -2.07,-0.846 -2.07,-2.268 v -2.628 c 0,-1.422 0.792,-2.268 2.07,-2.268 1.314,0 2.088,0.648 2.088,2.178 v 2.808 c 0,1.53 -0.774,2.178 -2.088,2.178 z m 10.746,1.548 c 2.34,0 3.87,-1.458 3.87,-3.816 V 528.1 h -1.782 v 6.264 c 0,1.386 -0.81,2.25 -2.088,2.25 -1.26,0 -2.052,-0.864 -2.052,-2.25 V 528.1 h -1.782 v 6.264 c 0,2.34 1.494,3.816 3.834,3.816 z m 11.808,-0.18 h 2.934 v -1.62 h -2.898 c -0.63,0 -1.026,-0.432 -1.026,-1.098 v -5.562 h 4.014 v -1.62 h -4.014 v -2.79 h -1.782 v 2.79 h -2.826 v 1.62 h 2.826 v 5.58 c 0,1.638 1.08,2.7 2.772,2.7 z m 9.81001,0.18 c 2.106,0 3.636,-1.062 3.87,-2.736 h -1.782 c -0.144,0.756 -0.954,1.224 -2.088,1.224 -1.368,0 -2.214,-0.864 -2.214,-2.304 V 533.5 h 6.174 v -1.782 c 0,-2.286 -1.566,-3.798 -3.96,-3.798 -2.376,0 -3.96,1.512 -3.96,3.96 v 2.34 c 0,2.448 1.584,3.96 3.96,3.96 z m -2.214,-6.462 c 0,-1.512 0.792,-2.358 2.214,-2.358 1.422,0 2.214,0.846 2.214,2.358 v 0.468 h -4.428 z m 9.55802,6.282 h 1.782 v -6.246 c 0,-1.476 0.738,-2.286 2.088,-2.286 1.314,0 2.034,0.684 2.034,2.07 v 0.846 h 1.782 v -0.864 c 0,-2.286 -1.17,-3.6 -3.222,-3.6 -1.53,0 -2.484,0.792 -2.682,2.088 h -0.018 V 528.1 h -1.764 z"
     id="text6"
     class="ink url"
     style="font-weight:500;font-size:18px;font-family:'JetBrains Mono', 'SF Mono', monospace;text-anchor:middle;fill:#111111"
     aria-label="ahd.adastra.computer" />
  <!-- QR: scaled to ~16mm at 3-inch print, plenty for a phone camera -->
  <g
     transform="translate(486, 486) scale(3.6)"
     id="g329">
    <rect
       x="0"
       y="0"
       width="1"
       height="1"
       fill="#000000"
       id="rect6" />
    <rect
       x="1"
       y="0"
       width="1"
       height="1"
       fill="#000000"
       id="rect7" />
    <rect
       x="2"
       y="0"
       width="1"
       height="1"
       fill="#000000"
       id="rect8" />
    <rect
       x="3"
       y="0"
       width="1"
       height="1"
       fill="#000000"
       id="rect9" />
    <rect
       x="4"
       y="0"
       width="1"
       height="1"
       fill="#000000"
       id="rect10" />
    <rect
       x="5"
       y="0"
       width="1"
       height="1"
       fill="#000000"
       id="rect11" />
    <rect
       x="6"
       y="0"
       width="1"
       height="1"
       fill="#000000"
       id="rect12" />
    <rect
       x="8"
       y="0"
       width="1"
       height="1"
       fill="#000000"
       id="rect13" />
    <rect
       x="9"
       y="0"
       width="1"
       height="1"
       fill="#000000"
       id="rect14" />
    <rect
       x="10"
       y="0"
       width="1"
       height="1"
       fill="#000000"
       id="rect15" />
    <rect
       x="11"
       y="0"
       width="1"
       height="1"
       fill="#000000"
       id="rect16" />
    <rect
       x="13"
       y="0"
       width="1"
       height="1"
       fill="#000000"
       id="rect17" />
    <rect
       x="18"
       y="0"
       width="1"
       height="1"
       fill="#000000"
       id="rect18" />
    <rect
       x="19"
       y="0"
       width="1"
       height="1"
       fill="#000000"
       id="rect19" />
    <rect
       x="20"
       y="0"
       width="1"
       height="1"
       fill="#000000"
       id="rect20" />
    <rect
       x="21"
       y="0"
       width="1"
       height="1"
       fill="#000000"
       id="rect21" />
    <rect
       x="22"
       y="0"
       width="1"
       height="1"
       fill="#000000"
       id="rect22" />
    <rect
       x="23"
       y="0"
       width="1"
       height="1"
       fill="#000000"
       id="rect23" />
    <rect
       x="24"
       y="0"
       width="1"
       height="1"
       fill="#000000"
       id="rect24" />
    <rect
       x="0"
       y="1"
       width="1"
       height="1"
       fill="#000000"
       id="rect25" />
    <rect
       x="6"
       y="1"
       width="1"
       height="1"
       fill="#000000"
       id="rect26" />
    <rect
       x="8"
       y="1"
       width="1"
       height="1"
       fill="#000000"
       id="rect27" />
    <rect
       x="11"
       y="1"
       width="1"
       height="1"
       fill="#000000"
       id="rect28" />
    <rect
       x="13"
       y="1"
       width="1"
       height="1"
       fill="#000000"
       id="rect29" />
    <rect
       x="18"
       y="1"
       width="1"
       height="1"
       fill="#000000"
       id="rect30" />
    <rect
       x="24"
       y="1"
       width="1"
       height="1"
       fill="#000000"
       id="rect31" />
    <rect
       x="0"
       y="2"
       width="1"
       height="1"
       fill="#000000"
       id="rect32" />
    <rect
       x="2"
       y="2"
       width="1"
       height="1"
       fill="#000000"
       id="rect33" />
    <rect
       x="3"
       y="2"
       width="1"
       height="1"
       fill="#000000"
       id="rect34" />
    <rect
       x="4"
       y="2"
       width="1"
       height="1"
       fill="#000000"
       id="rect35" />
    <rect
       x="6"
       y="2"
       width="1"
       height="1"
       fill="#000000"
       id="rect36" />
    <rect
       x="9"
       y="2"
       width="1"
       height="1"
       fill="#000000"
       id="rect37" />
    <rect
       x="13"
       y="2"
       width="1"
       height="1"
       fill="#000000"
       id="rect38" />
    <rect
       x="14"
       y="2"
       width="1"
       height="1"
       fill="#000000"
       id="rect39" />
    <rect
       x="15"
       y="2"
       width="1"
       height="1"
       fill="#000000"
       id="rect40" />
    <rect
       x="18"
       y="2"
       width="1"
       height="1"
       fill="#000000"
       id="rect41" />
    <rect
       x="20"
       y="2"
       width="1"
       height="1"
       fill="#000000"
       id="rect42" />
    <rect
       x="21"
       y="2"
       width="1"
       height="1"
       fill="#000000"
       id="rect43" />
    <rect
       x="22"
       y="2"
       width="1"
       height="1"
       fill="#000000"
       id="rect44" />
    <rect
       x="24"
       y="2"
       width="1"
       height="1"
       fill="#000000"
       id="rect45" />
    <rect
       x="0"
       y="3"
       width="1"
       height="1"
       fill="#000000"
       id="rect46" />
    <rect
       x="2"
       y="3"
       width="1"
       height="1"
       fill="#000000"
       id="rect47" />
    <rect
       x="3"
       y="3"
       width="1"
       height="1"
       fill="#000000"
       id="rect48" />
    <rect
       x="4"
       y="3"
       width="1"
       height="1"
       fill="#000000"
       id="rect49" />
    <rect
       x="6"
       y="3"
       width="1"
       height="1"
       fill="#000000"
       id="rect50" />
    <rect
       x="11"
       y="3"
       width="1"
       height="1"
       fill="#000000"
       id="rect51" />
    <rect
       x="13"
       y="3"
       width="1"
       height="1"
       fill="#000000"
       id="rect52" />
    <rect
       x="14"
       y="3"
       width="1"
       height="1"
       fill="#000000"
       id="rect53" />
    <rect
       x="16"
       y="3"
       width="1"
       height="1"
       fill="#000000"
       id="rect54" />
    <rect
       x="18"
       y="3"
       width="1"
       height="1"
       fill="#000000"
       id="rect55" />
    <rect
       x="20"
       y="3"
       width="1"
       height="1"
       fill="#000000"
       id="rect56" />
    <rect
       x="21"
       y="3"
       width="1"
       height="1"
       fill="#000000"
       id="rect57" />
    <rect
       x="22"
       y="3"
       width="1"
       height="1"
       fill="#000000"
       id="rect58" />
    <rect
       x="24"
       y="3"
       width="1"
       height="1"
       fill="#000000"
       id="rect59" />
    <rect
       x="0"
       y="4"
       width="1"
       height="1"
       fill="#000000"
       id="rect60" />
    <rect
       x="2"
       y="4"
       width="1"
       height="1"
       fill="#000000"
       id="rect61" />
    <rect
       x="3"
       y="4"
       width="1"
       height="1"
       fill="#000000"
       id="rect62" />
    <rect
       x="4"
       y="4"
       width="1"
       height="1"
       fill="#000000"
       id="rect63" />
    <rect
       x="6"
       y="4"
       width="1"
       height="1"
       fill="#000000"
       id="rect64" />
    <rect
       x="8"
       y="4"
       width="1"
       height="1"
       fill="#000000"
       id="rect65" />
    <rect
       x="11"
       y="4"
       width="1"
       height="1"
       fill="#000000"
       id="rect66" />
    <rect
       x="12"
       y="4"
       width="1"
       height="1"
       fill="#000000"
       id="rect67" />
    <rect
       x="13"
       y="4"
       width="1"
       height="1"
       fill="#000000"
       id="rect68" />
    <rect
       x="14"
       y="4"
       width="1"
       height="1"
       fill="#000000"
       id="rect69" />
    <rect
       x="18"
       y="4"
       width="1"
       height="1"
       fill="#000000"
       id="rect70" />
    <rect
       x="20"
       y="4"
       width="1"
       height="1"
       fill="#000000"
       id="rect71" />
    <rect
       x="21"
       y="4"
       width="1"
       height="1"
       fill="#000000"
       id="rect72" />
    <rect
       x="22"
       y="4"
       width="1"
       height="1"
       fill="#000000"
       id="rect73" />
    <rect
       x="24"
       y="4"
       width="1"
       height="1"
       fill="#000000"
       id="rect74" />
    <rect
       x="0"
       y="5"
       width="1"
       height="1"
       fill="#000000"
       id="rect75" />
    <rect
       x="6"
       y="5"
       width="1"
       height="1"
       fill="#000000"
       id="rect76" />
    <rect
       x="8"
       y="5"
       width="1"
       height="1"
       fill="#000000"
       id="rect77" />
    <rect
       x="9"
       y="5"
       width="1"
       height="1"
       fill="#000000"
       id="rect78" />
    <rect
       x="10"
       y="5"
       width="1"
       height="1"
       fill="#000000"
       id="rect79" />
    <rect
       x="16"
       y="5"
       width="1"
       height="1"
       fill="#000000"
       id="rect80" />
    <rect
       x="18"
       y="5"
       width="1"
       height="1"
       fill="#000000"
       id="rect81" />
    <rect
       x="24"
       y="5"
       width="1"
       height="1"
       fill="#000000"
       id="rect82" />
    <rect
       x="0"
       y="6"
       width="1"
       height="1"
       fill="#000000"
       id="rect83" />
    <rect
       x="1"
       y="6"
       width="1"
       height="1"
       fill="#000000"
       id="rect84" />
    <rect
       x="2"
       y="6"
       width="1"
       height="1"
       fill="#000000"
       id="rect85" />
    <rect
       x="3"
       y="6"
       width="1"
       height="1"
       fill="#000000"
       id="rect86" />
    <rect
       x="4"
       y="6"
       width="1"
       height="1"
       fill="#000000"
       id="rect87" />
    <rect
       x="5"
       y="6"
       width="1"
       height="1"
       fill="#000000"
       id="rect88" />
    <rect
       x="6"
       y="6"
       width="1"
       height="1"
       fill="#000000"
       id="rect89" />
    <rect
       x="8"
       y="6"
       width="1"
       height="1"
       fill="#000000"
       id="rect90" />
    <rect
       x="10"
       y="6"
       width="1"
       height="1"
       fill="#000000"
       id="rect91" />
    <rect
       x="12"
       y="6"
       width="1"
       height="1"
       fill="#000000"
       id="rect92" />
    <rect
       x="14"
       y="6"
       width="1"
       height="1"
       fill="#000000"
       id="rect93" />
    <rect
       x="16"
       y="6"
       width="1"
       height="1"
       fill="#000000"
       id="rect94" />
    <rect
       x="18"
       y="6"
       width="1"
       height="1"
       fill="#000000"
       id="rect95" />
    <rect
       x="19"
       y="6"
       width="1"
       height="1"
       fill="#000000"
       id="rect96" />
    <rect
       x="20"
       y="6"
       width="1"
       height="1"
       fill="#000000"
       id="rect97" />
    <rect
       x="21"
       y="6"
       width="1"
       height="1"
       fill="#000000"
       id="rect98" />
    <rect
       x="22"
       y="6"
       width="1"
       height="1"
       fill="#000000"
       id="rect99" />
    <rect
       x="23"
       y="6"
       width="1"
       height="1"
       fill="#000000"
       id="rect100" />
    <rect
       x="24"
       y="6"
       width="1"
       height="1"
       fill="#000000"
       id="rect101" />
    <rect
       x="8"
       y="7"
       width="1"
       height="1"
       fill="#000000"
       id="rect102" />
    <rect
       x="9"
       y="7"
       width="1"
       height="1"
       fill="#000000"
       id="rect103" />
    <rect
       x="11"
       y="7"
       width="1"
       height="1"
       fill="#000000"
       id="rect104" />
    <rect
       x="14"
       y="7"
       width="1"
       height="1"
       fill="#000000"
       id="rect105" />
    <rect
       x="15"
       y="7"
       width="1"
       height="1"
       fill="#000000"
       id="rect106" />
    <rect
       x="0"
       y="8"
       width="1"
       height="1"
       fill="#000000"
       id="rect107" />
    <rect
       x="1"
       y="8"
       width="1"
       height="1"
       fill="#000000"
       id="rect108" />
    <rect
       x="2"
       y="8"
       width="1"
       height="1"
       fill="#000000"
       id="rect109" />
    <rect
       x="5"
       y="8"
       width="1"
       height="1"
       fill="#000000"
       id="rect110" />
    <rect
       x="6"
       y="8"
       width="1"
       height="1"
       fill="#000000"
       id="rect111" />
    <rect
       x="8"
       y="8"
       width="1"
       height="1"
       fill="#000000"
       id="rect112" />
    <rect
       x="9"
       y="8"
       width="1"
       height="1"
       fill="#000000"
       id="rect113" />
    <rect
       x="11"
       y="8"
       width="1"
       height="1"
       fill="#000000"
       id="rect114" />
    <rect
       x="14"
       y="8"
       width="1"
       height="1"
       fill="#000000"
       id="rect115" />
    <rect
       x="15"
       y="8"
       width="1"
       height="1"
       fill="#000000"
       id="rect116" />
    <rect
       x="17"
       y="8"
       width="1"
       height="1"
       fill="#000000"
       id="rect117" />
    <rect
       x="18"
       y="8"
       width="1"
       height="1"
       fill="#000000"
       id="rect118" />
    <rect
       x="19"
       y="8"
       width="1"
       height="1"
       fill="#000000"
       id="rect119" />
    <rect
       x="20"
       y="8"
       width="1"
       height="1"
       fill="#000000"
       id="rect120" />
    <rect
       x="23"
       y="8"
       width="1"
       height="1"
       fill="#000000"
       id="rect121" />
    <rect
       x="24"
       y="8"
       width="1"
       height="1"
       fill="#000000"
       id="rect122" />
    <rect
       x="0"
       y="9"
       width="1"
       height="1"
       fill="#000000"
       id="rect123" />
    <rect
       x="1"
       y="9"
       width="1"
       height="1"
       fill="#000000"
       id="rect124" />
    <rect
       x="4"
       y="9"
       width="1"
       height="1"
       fill="#000000"
       id="rect125" />
    <rect
       x="5"
       y="9"
       width="1"
       height="1"
       fill="#000000"
       id="rect126" />
    <rect
       x="7"
       y="9"
       width="1"
       height="1"
       fill="#000000"
       id="rect127" />
    <rect
       x="11"
       y="9"
       width="1"
       height="1"
       fill="#000000"
       id="rect128" />
    <rect
       x="12"
       y="9"
       width="1"
       height="1"
       fill="#000000"
       id="rect129" />
    <rect
       x="13"
       y="9"
       width="1"
       height="1"
       fill="#000000"
       id="rect130" />
    <rect
       x="15"
       y="9"
       width="1"
       height="1"
       fill="#000000"
       id="rect131" />
    <rect
       x="16"
       y="9"
       width="1"
       height="1"
       fill="#000000"
       id="rect132" />
    <rect
       x="18"
       y="9"
       width="1"
       height="1"
       fill="#000000"
       id="rect133" />
    <rect
       x="19"
       y="9"
       width="1"
       height="1"
       fill="#000000"
       id="rect134" />
    <rect
       x="21"
       y="9"
       width="1"
       height="1"
       fill="#000000"
       id="rect135" />
    <rect
       x="23"
       y="9"
       width="1"
       height="1"
       fill="#000000"
       id="rect136" />
    <rect
       x="24"
       y="9"
       width="1"
       height="1"
       fill="#000000"
       id="rect137" />
    <rect
       x="0"
       y="10"
       width="1"
       height="1"
       fill="#000000"
       id="rect138" />
    <rect
       x="2"
       y="10"
       width="1"
       height="1"
       fill="#000000"
       id="rect139" />
    <rect
       x="5"
       y="10"
       width="1"
       height="1"
       fill="#000000"
       id="rect140" />
    <rect
       x="6"
       y="10"
       width="1"
       height="1"
       fill="#000000"
       id="rect141" />
    <rect
       x="8"
       y="10"
       width="1"
       height="1"
       fill="#000000"
       id="rect142" />
    <rect
       x="9"
       y="10"
       width="1"
       height="1"
       fill="#000000"
       id="rect143" />
    <rect
       x="10"
       y="10"
       width="1"
       height="1"
       fill="#000000"
       id="rect144" />
    <rect
       x="11"
       y="10"
       width="1"
       height="1"
       fill="#000000"
       id="rect145" />
    <rect
       x="15"
       y="10"
       width="1"
       height="1"
       fill="#000000"
       id="rect146" />
    <rect
       x="17"
       y="10"
       width="1"
       height="1"
       fill="#000000"
       id="rect147" />
    <rect
       x="20"
       y="10"
       width="1"
       height="1"
       fill="#000000"
       id="rect148" />
    <rect
       x="21"
       y="10"
       width="1"
       height="1"
       fill="#000000"
       id="rect149" />
    <rect
       x="22"
       y="10"
       width="1"
       height="1"
       fill="#000000"
       id="rect150" />
    <rect
       x="24"
       y="10"
       width="1"
       height="1"
       fill="#000000"
       id="rect151" />
    <rect
       x="0"
       y="11"
       width="1"
       height="1"
       fill="#000000"
       id="rect152" />
    <rect
       x="1"
       y="11"
       width="1"
       height="1"
       fill="#000000"
       id="rect153" />
    <rect
       x="3"
       y="11"
       width="1"
       height="1"
       fill="#000000"
       id="rect154" />
    <rect
       x="5"
       y="11"
       width="1"
       height="1"
       fill="#000000"
       id="rect155" />
    <rect
       x="7"
       y="11"
       width="1"
       height="1"
       fill="#000000"
       id="rect156" />
    <rect
       x="8"
       y="11"
       width="1"
       height="1"
       fill="#000000"
       id="rect157" />
    <rect
       x="10"
       y="11"
       width="1"
       height="1"
       fill="#000000"
       id="rect158" />
    <rect
       x="12"
       y="11"
       width="1"
       height="1"
       fill="#000000"
       id="rect159" />
    <rect
       x="21"
       y="11"
       width="1"
       height="1"
       fill="#000000"
       id="rect160" />
    <rect
       x="1"
       y="12"
       width="1"
       height="1"
       fill="#000000"
       id="rect161" />
    <rect
       x="6"
       y="12"
       width="1"
       height="1"
       fill="#000000"
       id="rect162" />
    <rect
       x="7"
       y="12"
       width="1"
       height="1"
       fill="#000000"
       id="rect163" />
    <rect
       x="8"
       y="12"
       width="1"
       height="1"
       fill="#000000"
       id="rect164" />
    <rect
       x="9"
       y="12"
       width="1"
       height="1"
       fill="#000000"
       id="rect165" />
    <rect
       x="10"
       y="12"
       width="1"
       height="1"
       fill="#000000"
       id="rect166" />
    <rect
       x="11"
       y="12"
       width="1"
       height="1"
       fill="#000000"
       id="rect167" />
    <rect
       x="12"
       y="12"
       width="1"
       height="1"
       fill="#000000"
       id="rect168" />
    <rect
       x="15"
       y="12"
       width="1"
       height="1"
       fill="#000000"
       id="rect169" />
    <rect
       x="16"
       y="12"
       width="1"
       height="1"
       fill="#000000"
       id="rect170" />
    <rect
       x="18"
       y="12"
       width="1"
       height="1"
       fill="#000000"
       id="rect171" />
    <rect
       x="19"
       y="12"
       width="1"
       height="1"
       fill="#000000"
       id="rect172" />
    <rect
       x="24"
       y="12"
       width="1"
       height="1"
       fill="#000000"
       id="rect173" />
    <rect
       x="1"
       y="13"
       width="1"
       height="1"
       fill="#000000"
       id="rect174" />
    <rect
       x="2"
       y="13"
       width="1"
       height="1"
       fill="#000000"
       id="rect175" />
    <rect
       x="3"
       y="13"
       width="1"
       height="1"
       fill="#000000"
       id="rect176" />
    <rect
       x="4"
       y="13"
       width="1"
       height="1"
       fill="#000000"
       id="rect177" />
    <rect
       x="7"
       y="13"
       width="1"
       height="1"
       fill="#000000"
       id="rect178" />
    <rect
       x="9"
       y="13"
       width="1"
       height="1"
       fill="#000000"
       id="rect179" />
    <rect
       x="10"
       y="13"
       width="1"
       height="1"
       fill="#000000"
       id="rect180" />
    <rect
       x="11"
       y="13"
       width="1"
       height="1"
       fill="#000000"
       id="rect181" />
    <rect
       x="12"
       y="13"
       width="1"
       height="1"
       fill="#000000"
       id="rect182" />
    <rect
       x="15"
       y="13"
       width="1"
       height="1"
       fill="#000000"
       id="rect183" />
    <rect
       x="16"
       y="13"
       width="1"
       height="1"
       fill="#000000"
       id="rect184" />
    <rect
       x="18"
       y="13"
       width="1"
       height="1"
       fill="#000000"
       id="rect185" />
    <rect
       x="19"
       y="13"
       width="1"
       height="1"
       fill="#000000"
       id="rect186" />
    <rect
       x="23"
       y="13"
       width="1"
       height="1"
       fill="#000000"
       id="rect187" />
    <rect
       x="24"
       y="13"
       width="1"
       height="1"
       fill="#000000"
       id="rect188" />
    <rect
       x="0"
       y="14"
       width="1"
       height="1"
       fill="#000000"
       id="rect189" />
    <rect
       x="1"
       y="14"
       width="1"
       height="1"
       fill="#000000"
       id="rect190" />
    <rect
       x="2"
       y="14"
       width="1"
       height="1"
       fill="#000000"
       id="rect191" />
    <rect
       x="3"
       y="14"
       width="1"
       height="1"
       fill="#000000"
       id="rect192" />
    <rect
       x="6"
       y="14"
       width="1"
       height="1"
       fill="#000000"
       id="rect193" />
    <rect
       x="7"
       y="14"
       width="1"
       height="1"
       fill="#000000"
       id="rect194" />
    <rect
       x="9"
       y="14"
       width="1"
       height="1"
       fill="#000000"
       id="rect195" />
    <rect
       x="11"
       y="14"
       width="1"
       height="1"
       fill="#000000"
       id="rect196" />
    <rect
       x="12"
       y="14"
       width="1"
       height="1"
       fill="#000000"
       id="rect197" />
    <rect
       x="14"
       y="14"
       width="1"
       height="1"
       fill="#000000"
       id="rect198" />
    <rect
       x="15"
       y="14"
       width="1"
       height="1"
       fill="#000000"
       id="rect199" />
    <rect
       x="16"
       y="14"
       width="1"
       height="1"
       fill="#000000"
       id="rect200" />
    <rect
       x="18"
       y="14"
       width="1"
       height="1"
       fill="#000000"
       id="rect201" />
    <rect
       x="21"
       y="14"
       width="1"
       height="1"
       fill="#000000"
       id="rect202" />
    <rect
       x="22"
       y="14"
       width="1"
       height="1"
       fill="#000000"
       id="rect203" />
    <rect
       x="24"
       y="14"
       width="1"
       height="1"
       fill="#000000"
       id="rect204" />
    <rect
       x="4"
       y="15"
       width="1"
       height="1"
       fill="#000000"
       id="rect205" />
    <rect
       x="5"
       y="15"
       width="1"
       height="1"
       fill="#000000"
       id="rect206" />
    <rect
       x="8"
       y="15"
       width="1"
       height="1"
       fill="#000000"
       id="rect207" />
    <rect
       x="12"
       y="15"
       width="1"
       height="1"
       fill="#000000"
       id="rect208" />
    <rect
       x="14"
       y="15"
       width="1"
       height="1"
       fill="#000000"
       id="rect209" />
    <rect
       x="16"
       y="15"
       width="1"
       height="1"
       fill="#000000"
       id="rect210" />
    <rect
       x="19"
       y="15"
       width="1"
       height="1"
       fill="#000000"
       id="rect211" />
    <rect
       x="20"
       y="15"
       width="1"
       height="1"
       fill="#000000"
       id="rect212" />
    <rect
       x="21"
       y="15"
       width="1"
       height="1"
       fill="#000000"
       id="rect213" />
    <rect
       x="0"
       y="16"
       width="1"
       height="1"
       fill="#000000"
       id="rect214" />
    <rect
       x="1"
       y="16"
       width="1"
       height="1"
       fill="#000000"
       id="rect215" />
    <rect
       x="3"
       y="16"
       width="1"
       height="1"
       fill="#000000"
       id="rect216" />
    <rect
       x="4"
       y="16"
       width="1"
       height="1"
       fill="#000000"
       id="rect217" />
    <rect
       x="5"
       y="16"
       width="1"
       height="1"
       fill="#000000"
       id="rect218" />
    <rect
       x="6"
       y="16"
       width="1"
       height="1"
       fill="#000000"
       id="rect219" />
    <rect
       x="8"
       y="16"
       width="1"
       height="1"
       fill="#000000"
       id="rect220" />
    <rect
       x="9"
       y="16"
       width="1"
       height="1"
       fill="#000000"
       id="rect221" />
    <rect
       x="10"
       y="16"
       width="1"
       height="1"
       fill="#000000"
       id="rect222" />
    <rect
       x="11"
       y="16"
       width="1"
       height="1"
       fill="#000000"
       id="rect223" />
    <rect
       x="15"
       y="16"
       width="1"
       height="1"
       fill="#000000"
       id="rect224" />
    <rect
       x="16"
       y="16"
       width="1"
       height="1"
       fill="#000000"
       id="rect225" />
    <rect
       x="17"
       y="16"
       width="1"
       height="1"
       fill="#000000"
       id="rect226" />
    <rect
       x="18"
       y="16"
       width="1"
       height="1"
       fill="#000000"
       id="rect227" />
    <rect
       x="19"
       y="16"
       width="1"
       height="1"
       fill="#000000"
       id="rect228" />
    <rect
       x="20"
       y="16"
       width="1"
       height="1"
       fill="#000000"
       id="rect229" />
    <rect
       x="23"
       y="16"
       width="1"
       height="1"
       fill="#000000"
       id="rect230" />
    <rect
       x="8"
       y="17"
       width="1"
       height="1"
       fill="#000000"
       id="rect231" />
    <rect
       x="9"
       y="17"
       width="1"
       height="1"
       fill="#000000"
       id="rect232" />
    <rect
       x="11"
       y="17"
       width="1"
       height="1"
       fill="#000000"
       id="rect233" />
    <rect
       x="12"
       y="17"
       width="1"
       height="1"
       fill="#000000"
       id="rect234" />
    <rect
       x="13"
       y="17"
       width="1"
       height="1"
       fill="#000000"
       id="rect235" />
    <rect
       x="16"
       y="17"
       width="1"
       height="1"
       fill="#000000"
       id="rect236" />
    <rect
       x="20"
       y="17"
       width="1"
       height="1"
       fill="#000000"
       id="rect237" />
    <rect
       x="24"
       y="17"
       width="1"
       height="1"
       fill="#000000"
       id="rect238" />
    <rect
       x="0"
       y="18"
       width="1"
       height="1"
       fill="#000000"
       id="rect239" />
    <rect
       x="1"
       y="18"
       width="1"
       height="1"
       fill="#000000"
       id="rect240" />
    <rect
       x="2"
       y="18"
       width="1"
       height="1"
       fill="#000000"
       id="rect241" />
    <rect
       x="3"
       y="18"
       width="1"
       height="1"
       fill="#000000"
       id="rect242" />
    <rect
       x="4"
       y="18"
       width="1"
       height="1"
       fill="#000000"
       id="rect243" />
    <rect
       x="5"
       y="18"
       width="1"
       height="1"
       fill="#000000"
       id="rect244" />
    <rect
       x="6"
       y="18"
       width="1"
       height="1"
       fill="#000000"
       id="rect245" />
    <rect
       x="10"
       y="18"
       width="1"
       height="1"
       fill="#000000"
       id="rect246" />
    <rect
       x="11"
       y="18"
       width="1"
       height="1"
       fill="#000000"
       id="rect247" />
    <rect
       x="16"
       y="18"
       width="1"
       height="1"
       fill="#000000"
       id="rect248" />
    <rect
       x="18"
       y="18"
       width="1"
       height="1"
       fill="#000000"
       id="rect249" />
    <rect
       x="20"
       y="18"
       width="1"
       height="1"
       fill="#000000"
       id="rect250" />
    <rect
       x="24"
       y="18"
       width="1"
       height="1"
       fill="#000000"
       id="rect251" />
    <rect
       x="0"
       y="19"
       width="1"
       height="1"
       fill="#000000"
       id="rect252" />
    <rect
       x="6"
       y="19"
       width="1"
       height="1"
       fill="#000000"
       id="rect253" />
    <rect
       x="8"
       y="19"
       width="1"
       height="1"
       fill="#000000"
       id="rect254" />
    <rect
       x="10"
       y="19"
       width="1"
       height="1"
       fill="#000000"
       id="rect255" />
    <rect
       x="12"
       y="19"
       width="1"
       height="1"
       fill="#000000"
       id="rect256" />
    <rect
       x="14"
       y="19"
       width="1"
       height="1"
       fill="#000000"
       id="rect257" />
    <rect
       x="15"
       y="19"
       width="1"
       height="1"
       fill="#000000"
       id="rect258" />
    <rect
       x="16"
       y="19"
       width="1"
       height="1"
       fill="#000000"
       id="rect259" />
    <rect
       x="20"
       y="19"
       width="1"
       height="1"
       fill="#000000"
       id="rect260" />
    <rect
       x="0"
       y="20"
       width="1"
       height="1"
       fill="#000000"
       id="rect261" />
    <rect
       x="2"
       y="20"
       width="1"
       height="1"
       fill="#000000"
       id="rect262" />
    <rect
       x="3"
       y="20"
       width="1"
       height="1"
       fill="#000000"
       id="rect263" />
    <rect
       x="4"
       y="20"
       width="1"
       height="1"
       fill="#000000"
       id="rect264" />
    <rect
       x="6"
       y="20"
       width="1"
       height="1"
       fill="#000000"
       id="rect265" />
    <rect
       x="10"
       y="20"
       width="1"
       height="1"
       fill="#000000"
       id="rect266" />
    <rect
       x="11"
       y="20"
       width="1"
       height="1"
       fill="#000000"
       id="rect267" />
    <rect
       x="15"
       y="20"
       width="1"
       height="1"
       fill="#000000"
       id="rect268" />
    <rect
       x="16"
       y="20"
       width="1"
       height="1"
       fill="#000000"
       id="rect269" />
    <rect
       x="17"
       y="20"
       width="1"
       height="1"
       fill="#000000"
       id="rect270" />
    <rect
       x="18"
       y="20"
       width="1"
       height="1"
       fill="#000000"
       id="rect271" />
    <rect
       x="19"
       y="20"
       width="1"
       height="1"
       fill="#000000"
       id="rect272" />
    <rect
       x="20"
       y="20"
       width="1"
       height="1"
       fill="#000000"
       id="rect273" />
    <rect
       x="0"
       y="21"
       width="1"
       height="1"
       fill="#000000"
       id="rect274" />
    <rect
       x="2"
       y="21"
       width="1"
       height="1"
       fill="#000000"
       id="rect275" />
    <rect
       x="3"
       y="21"
       width="1"
       height="1"
       fill="#000000"
       id="rect276" />
    <rect
       x="4"
       y="21"
       width="1"
       height="1"
       fill="#000000"
       id="rect277" />
    <rect
       x="6"
       y="21"
       width="1"
       height="1"
       fill="#000000"
       id="rect278" />
    <rect
       x="10"
       y="21"
       width="1"
       height="1"
       fill="#000000"
       id="rect279" />
    <rect
       x="11"
       y="21"
       width="1"
       height="1"
       fill="#000000"
       id="rect280" />
    <rect
       x="12"
       y="21"
       width="1"
       height="1"
       fill="#000000"
       id="rect281" />
    <rect
       x="13"
       y="21"
       width="1"
       height="1"
       fill="#000000"
       id="rect282" />
    <rect
       x="15"
       y="21"
       width="1"
       height="1"
       fill="#000000"
       id="rect283" />
    <rect
       x="20"
       y="21"
       width="1"
       height="1"
       fill="#000000"
       id="rect284" />
    <rect
       x="22"
       y="21"
       width="1"
       height="1"
       fill="#000000"
       id="rect285" />
    <rect
       x="23"
       y="21"
       width="1"
       height="1"
       fill="#000000"
       id="rect286" />
    <rect
       x="0"
       y="22"
       width="1"
       height="1"
       fill="#000000"
       id="rect287" />
    <rect
       x="2"
       y="22"
       width="1"
       height="1"
       fill="#000000"
       id="rect288" />
    <rect
       x="3"
       y="22"
       width="1"
       height="1"
       fill="#000000"
       id="rect289" />
    <rect
       x="4"
       y="22"
       width="1"
       height="1"
       fill="#000000"
       id="rect290" />
    <rect
       x="6"
       y="22"
       width="1"
       height="1"
       fill="#000000"
       id="rect291" />
    <rect
       x="8"
       y="22"
       width="1"
       height="1"
       fill="#000000"
       id="rect292" />
    <rect
       x="10"
       y="22"
       width="1"
       height="1"
       fill="#000000"
       id="rect293" />
    <rect
       x="11"
       y="22"
       width="1"
       height="1"
       fill="#000000"
       id="rect294" />
    <rect
       x="12"
       y="22"
       width="1"
       height="1"
       fill="#000000"
       id="rect295" />
    <rect
       x="13"
       y="22"
       width="1"
       height="1"
       fill="#000000"
       id="rect296" />
    <rect
       x="15"
       y="22"
       width="1"
       height="1"
       fill="#000000"
       id="rect297" />
    <rect
       x="16"
       y="22"
       width="1"
       height="1"
       fill="#000000"
       id="rect298" />
    <rect
       x="17"
       y="22"
       width="1"
       height="1"
       fill="#000000"
       id="rect299" />
    <rect
       x="19"
       y="22"
       width="1"
       height="1"
       fill="#000000"
       id="rect300" />
    <rect
       x="20"
       y="22"
       width="1"
       height="1"
       fill="#000000"
       id="rect301" />
    <rect
       x="21"
       y="22"
       width="1"
       height="1"
       fill="#000000"
       id="rect302" />
    <rect
       x="23"
       y="22"
       width="1"
       height="1"
       fill="#000000"
       id="rect303" />
    <rect
       x="24"
       y="22"
       width="1"
       height="1"
       fill="#000000"
       id="rect304" />
    <rect
       x="0"
       y="23"
       width="1"
       height="1"
       fill="#000000"
       id="rect305" />
    <rect
       x="6"
       y="23"
       width="1"
       height="1"
       fill="#000000"
       id="rect306" />
    <rect
       x="8"
       y="23"
       width="1"
       height="1"
       fill="#000000"
       id="rect307" />
    <rect
       x="9"
       y="23"
       width="1"
       height="1"
       fill="#000000"
       id="rect308" />
    <rect
       x="10"
       y="23"
       width="1"
       height="1"
       fill="#000000"
       id="rect309" />
    <rect
       x="14"
       y="23"
       width="1"
       height="1"
       fill="#000000"
       id="rect310" />
    <rect
       x="16"
       y="23"
       width="1"
       height="1"
       fill="#000000"
       id="rect311" />
    <rect
       x="17"
       y="23"
       width="1"
       height="1"
       fill="#000000"
       id="rect312" />
    <rect
       x="18"
       y="23"
       width="1"
       height="1"
       fill="#000000"
       id="rect313" />
    <rect
       x="19"
       y="23"
       width="1"
       height="1"
       fill="#000000"
       id="rect314" />
    <rect
       x="20"
       y="23"
       width="1"
       height="1"
       fill="#000000"
       id="rect315" />
    <rect
       x="0"
       y="24"
       width="1"
       height="1"
       fill="#000000"
       id="rect316" />
    <rect
       x="1"
       y="24"
       width="1"
       height="1"
       fill="#000000"
       id="rect317" />
    <rect
       x="2"
       y="24"
       width="1"
       height="1"
       fill="#000000"
       id="rect318" />
    <rect
       x="3"
       y="24"
       width="1"
       height="1"
       fill="#000000"
       id="rect319" />
    <rect
       x="4"
       y="24"
       width="1"
       height="1"
       fill="#000000"
       id="rect320" />
    <rect
       x="5"
       y="24"
       width="1"
       height="1"
       fill="#000000"
       id="rect321" />
    <rect
       x="6"
       y="24"
       width="1"
       height="1"
       fill="#000000"
       id="rect322" />
    <rect
       x="8"
       y="24"
       width="1"
       height="1"
       fill="#000000"
       id="rect323" />
    <rect
       x="9"
       y="24"
       width="1"
       height="1"
       fill="#000000"
       id="rect324" />
    <rect
       x="11"
       y="24"
       width="1"
       height="1"
       fill="#000000"
       id="rect325" />
    <rect
       x="16"
       y="24"
       width="1"
       height="1"
       fill="#000000"
       id="rect326" />
    <rect
       x="17"
       y="24"
       width="1"
       height="1"
       fill="#000000"
       id="rect327" />
    <rect
       x="21"
       y="24"
       width="1"
       height="1"
       fill="#000000"
       id="rect328" />
    <rect
       x="24"
       y="24"
       width="1"
       height="1"
       fill="#000000"
       id="rect329" />
  </g>
</svg>
