<svg xmlns="http://www.w3.org/2000/svg" viewBox="0 0 600 600" width="3in" height="3in">
  <!-- Direction 2: The Rule. PRINT-READY DRAFT.
       3-inch die-cut, matte vinyl. Pure black on natural cream.
       Visual argument: the cliched 'Get Started ->' purple CTA, with a
       no-symbol struck through it. Caption names the rule. Wordmark and
       URL below. QR in the bottom-right corner.

       BEFORE PRINT: in a vector editor (Affinity Designer / Illustrator
       / Inkscape), select all text and convert to outlines (paths).
       Sticker Mule prefers PDF or PNG at 300 DPI minimum.

       FONT NOTE: layout uses Inter (SIL OFL, free for commercial print).
       The live AHD site uses Neue Haas Grotesk Display (Linotype, paid).
       Inter is visually close enough at sticker scale and avoids the
       licensing issue. If you have a Neue Haas license, swap font-family
       to "Neue Haas Grotesk Display" before converting to outlines.

       QR encodes https://ahd.adastra.computer (scanned-verified). -->
  <defs>
    <style>
      .bg { fill: #faf8f1; }
      .ink { fill: #111111; }
      .mark { font-family: "Inter", "Helvetica Neue", sans-serif; font-weight: 900; letter-spacing: -0.04em; }
      .sub  { font-family: "Inter", "Helvetica Neue", sans-serif; font-weight: 400; letter-spacing: 0.18em; text-transform: uppercase; }
      .url  { font-family: "JetBrains Mono", "SF Mono", monospace; font-weight: 500; }
      .button { font-family: "Inter", "Helvetica Neue", sans-serif; font-weight: 600; }
      .caption { font-family: "Inter", "Helvetica Neue", sans-serif; font-weight: 400; font-style: italic; }
    </style>
  </defs>

  <rect class="bg" x="10" y="10" width="580" height="580" rx="24" ry="24"/>

  <!-- The cliche being argued against. Flat purple, not a gradient. -->
  <g transform="translate(130, 110)">
    <rect x="0" y="0" width="340" height="108" rx="54" fill="#7c3aed"/>
    <text class="button" x="170" y="68" text-anchor="middle" font-size="30" fill="#ffffff">Get Started &#8594;</text>
    <circle cx="170" cy="54" r="82" fill="none" stroke="#111" stroke-width="10"/>
    <line x1="108" y1="108" x2="232" y2="0" stroke="#111" stroke-width="10"/>
  </g>

  <text class="ink caption" x="300" y="306" text-anchor="middle" font-size="24">no-vibes-buttons</text>

  <line x1="160" y1="346" x2="440" y2="346" stroke="#111" stroke-width="1.4"/>

  <text class="ink mark" x="300" y="446" text-anchor="middle" font-size="108">AHD</text>
  <text class="ink sub" x="300" y="478" text-anchor="middle" font-size="14">Artificial Human Design</text>

  <text class="ink url" x="300" y="538" text-anchor="middle" font-size="18">ahd.adastra.computer</text>

  <!-- QR: scaled to ~16mm at 3-inch print, plenty for a phone camera -->
  <g transform="translate(486, 486) scale(3.6)">
			<rect x="0" y="0" width="1" height="1" fill="#000000"/>
			<rect x="1" y="0" width="1" height="1" fill="#000000"/>
			<rect x="2" y="0" width="1" height="1" fill="#000000"/>
			<rect x="3" y="0" width="1" height="1" fill="#000000"/>
			<rect x="4" y="0" width="1" height="1" fill="#000000"/>
			<rect x="5" y="0" width="1" height="1" fill="#000000"/>
			<rect x="6" y="0" width="1" height="1" fill="#000000"/>
			<rect x="8" y="0" width="1" height="1" fill="#000000"/>
			<rect x="9" y="0" width="1" height="1" fill="#000000"/>
			<rect x="10" y="0" width="1" height="1" fill="#000000"/>
			<rect x="11" y="0" width="1" height="1" fill="#000000"/>
			<rect x="13" y="0" width="1" height="1" fill="#000000"/>
			<rect x="18" y="0" width="1" height="1" fill="#000000"/>
			<rect x="19" y="0" width="1" height="1" fill="#000000"/>
			<rect x="20" y="0" width="1" height="1" fill="#000000"/>
			<rect x="21" y="0" width="1" height="1" fill="#000000"/>
			<rect x="22" y="0" width="1" height="1" fill="#000000"/>
			<rect x="23" y="0" width="1" height="1" fill="#000000"/>
			<rect x="24" y="0" width="1" height="1" fill="#000000"/>
			<rect x="0" y="1" width="1" height="1" fill="#000000"/>
			<rect x="6" y="1" width="1" height="1" fill="#000000"/>
			<rect x="8" y="1" width="1" height="1" fill="#000000"/>
			<rect x="11" y="1" width="1" height="1" fill="#000000"/>
			<rect x="13" y="1" width="1" height="1" fill="#000000"/>
			<rect x="18" y="1" width="1" height="1" fill="#000000"/>
			<rect x="24" y="1" width="1" height="1" fill="#000000"/>
			<rect x="0" y="2" width="1" height="1" fill="#000000"/>
			<rect x="2" y="2" width="1" height="1" fill="#000000"/>
			<rect x="3" y="2" width="1" height="1" fill="#000000"/>
			<rect x="4" y="2" width="1" height="1" fill="#000000"/>
			<rect x="6" y="2" width="1" height="1" fill="#000000"/>
			<rect x="9" y="2" width="1" height="1" fill="#000000"/>
			<rect x="13" y="2" width="1" height="1" fill="#000000"/>
			<rect x="14" y="2" width="1" height="1" fill="#000000"/>
			<rect x="15" y="2" width="1" height="1" fill="#000000"/>
			<rect x="18" y="2" width="1" height="1" fill="#000000"/>
			<rect x="20" y="2" width="1" height="1" fill="#000000"/>
			<rect x="21" y="2" width="1" height="1" fill="#000000"/>
			<rect x="22" y="2" width="1" height="1" fill="#000000"/>
			<rect x="24" y="2" width="1" height="1" fill="#000000"/>
			<rect x="0" y="3" width="1" height="1" fill="#000000"/>
			<rect x="2" y="3" width="1" height="1" fill="#000000"/>
			<rect x="3" y="3" width="1" height="1" fill="#000000"/>
			<rect x="4" y="3" width="1" height="1" fill="#000000"/>
			<rect x="6" y="3" width="1" height="1" fill="#000000"/>
			<rect x="11" y="3" width="1" height="1" fill="#000000"/>
			<rect x="13" y="3" width="1" height="1" fill="#000000"/>
			<rect x="14" y="3" width="1" height="1" fill="#000000"/>
			<rect x="16" y="3" width="1" height="1" fill="#000000"/>
			<rect x="18" y="3" width="1" height="1" fill="#000000"/>
			<rect x="20" y="3" width="1" height="1" fill="#000000"/>
			<rect x="21" y="3" width="1" height="1" fill="#000000"/>
			<rect x="22" y="3" width="1" height="1" fill="#000000"/>
			<rect x="24" y="3" width="1" height="1" fill="#000000"/>
			<rect x="0" y="4" width="1" height="1" fill="#000000"/>
			<rect x="2" y="4" width="1" height="1" fill="#000000"/>
			<rect x="3" y="4" width="1" height="1" fill="#000000"/>
			<rect x="4" y="4" width="1" height="1" fill="#000000"/>
			<rect x="6" y="4" width="1" height="1" fill="#000000"/>
			<rect x="8" y="4" width="1" height="1" fill="#000000"/>
			<rect x="11" y="4" width="1" height="1" fill="#000000"/>
			<rect x="12" y="4" width="1" height="1" fill="#000000"/>
			<rect x="13" y="4" width="1" height="1" fill="#000000"/>
			<rect x="14" y="4" width="1" height="1" fill="#000000"/>
			<rect x="18" y="4" width="1" height="1" fill="#000000"/>
			<rect x="20" y="4" width="1" height="1" fill="#000000"/>
			<rect x="21" y="4" width="1" height="1" fill="#000000"/>
			<rect x="22" y="4" width="1" height="1" fill="#000000"/>
			<rect x="24" y="4" width="1" height="1" fill="#000000"/>
			<rect x="0" y="5" width="1" height="1" fill="#000000"/>
			<rect x="6" y="5" width="1" height="1" fill="#000000"/>
			<rect x="8" y="5" width="1" height="1" fill="#000000"/>
			<rect x="9" y="5" width="1" height="1" fill="#000000"/>
			<rect x="10" y="5" width="1" height="1" fill="#000000"/>
			<rect x="16" y="5" width="1" height="1" fill="#000000"/>
			<rect x="18" y="5" width="1" height="1" fill="#000000"/>
			<rect x="24" y="5" width="1" height="1" fill="#000000"/>
			<rect x="0" y="6" width="1" height="1" fill="#000000"/>
			<rect x="1" y="6" width="1" height="1" fill="#000000"/>
			<rect x="2" y="6" width="1" height="1" fill="#000000"/>
			<rect x="3" y="6" width="1" height="1" fill="#000000"/>
			<rect x="4" y="6" width="1" height="1" fill="#000000"/>
			<rect x="5" y="6" width="1" height="1" fill="#000000"/>
			<rect x="6" y="6" width="1" height="1" fill="#000000"/>
			<rect x="8" y="6" width="1" height="1" fill="#000000"/>
			<rect x="10" y="6" width="1" height="1" fill="#000000"/>
			<rect x="12" y="6" width="1" height="1" fill="#000000"/>
			<rect x="14" y="6" width="1" height="1" fill="#000000"/>
			<rect x="16" y="6" width="1" height="1" fill="#000000"/>
			<rect x="18" y="6" width="1" height="1" fill="#000000"/>
			<rect x="19" y="6" width="1" height="1" fill="#000000"/>
			<rect x="20" y="6" width="1" height="1" fill="#000000"/>
			<rect x="21" y="6" width="1" height="1" fill="#000000"/>
			<rect x="22" y="6" width="1" height="1" fill="#000000"/>
			<rect x="23" y="6" width="1" height="1" fill="#000000"/>
			<rect x="24" y="6" width="1" height="1" fill="#000000"/>
			<rect x="8" y="7" width="1" height="1" fill="#000000"/>
			<rect x="9" y="7" width="1" height="1" fill="#000000"/>
			<rect x="11" y="7" width="1" height="1" fill="#000000"/>
			<rect x="14" y="7" width="1" height="1" fill="#000000"/>
			<rect x="15" y="7" width="1" height="1" fill="#000000"/>
			<rect x="0" y="8" width="1" height="1" fill="#000000"/>
			<rect x="1" y="8" width="1" height="1" fill="#000000"/>
			<rect x="2" y="8" width="1" height="1" fill="#000000"/>
			<rect x="5" y="8" width="1" height="1" fill="#000000"/>
			<rect x="6" y="8" width="1" height="1" fill="#000000"/>
			<rect x="8" y="8" width="1" height="1" fill="#000000"/>
			<rect x="9" y="8" width="1" height="1" fill="#000000"/>
			<rect x="11" y="8" width="1" height="1" fill="#000000"/>
			<rect x="14" y="8" width="1" height="1" fill="#000000"/>
			<rect x="15" y="8" width="1" height="1" fill="#000000"/>
			<rect x="17" y="8" width="1" height="1" fill="#000000"/>
			<rect x="18" y="8" width="1" height="1" fill="#000000"/>
			<rect x="19" y="8" width="1" height="1" fill="#000000"/>
			<rect x="20" y="8" width="1" height="1" fill="#000000"/>
			<rect x="23" y="8" width="1" height="1" fill="#000000"/>
			<rect x="24" y="8" width="1" height="1" fill="#000000"/>
			<rect x="0" y="9" width="1" height="1" fill="#000000"/>
			<rect x="1" y="9" width="1" height="1" fill="#000000"/>
			<rect x="4" y="9" width="1" height="1" fill="#000000"/>
			<rect x="5" y="9" width="1" height="1" fill="#000000"/>
			<rect x="7" y="9" width="1" height="1" fill="#000000"/>
			<rect x="11" y="9" width="1" height="1" fill="#000000"/>
			<rect x="12" y="9" width="1" height="1" fill="#000000"/>
			<rect x="13" y="9" width="1" height="1" fill="#000000"/>
			<rect x="15" y="9" width="1" height="1" fill="#000000"/>
			<rect x="16" y="9" width="1" height="1" fill="#000000"/>
			<rect x="18" y="9" width="1" height="1" fill="#000000"/>
			<rect x="19" y="9" width="1" height="1" fill="#000000"/>
			<rect x="21" y="9" width="1" height="1" fill="#000000"/>
			<rect x="23" y="9" width="1" height="1" fill="#000000"/>
			<rect x="24" y="9" width="1" height="1" fill="#000000"/>
			<rect x="0" y="10" width="1" height="1" fill="#000000"/>
			<rect x="2" y="10" width="1" height="1" fill="#000000"/>
			<rect x="5" y="10" width="1" height="1" fill="#000000"/>
			<rect x="6" y="10" width="1" height="1" fill="#000000"/>
			<rect x="8" y="10" width="1" height="1" fill="#000000"/>
			<rect x="9" y="10" width="1" height="1" fill="#000000"/>
			<rect x="10" y="10" width="1" height="1" fill="#000000"/>
			<rect x="11" y="10" width="1" height="1" fill="#000000"/>
			<rect x="15" y="10" width="1" height="1" fill="#000000"/>
			<rect x="17" y="10" width="1" height="1" fill="#000000"/>
			<rect x="20" y="10" width="1" height="1" fill="#000000"/>
			<rect x="21" y="10" width="1" height="1" fill="#000000"/>
			<rect x="22" y="10" width="1" height="1" fill="#000000"/>
			<rect x="24" y="10" width="1" height="1" fill="#000000"/>
			<rect x="0" y="11" width="1" height="1" fill="#000000"/>
			<rect x="1" y="11" width="1" height="1" fill="#000000"/>
			<rect x="3" y="11" width="1" height="1" fill="#000000"/>
			<rect x="5" y="11" width="1" height="1" fill="#000000"/>
			<rect x="7" y="11" width="1" height="1" fill="#000000"/>
			<rect x="8" y="11" width="1" height="1" fill="#000000"/>
			<rect x="10" y="11" width="1" height="1" fill="#000000"/>
			<rect x="12" y="11" width="1" height="1" fill="#000000"/>
			<rect x="21" y="11" width="1" height="1" fill="#000000"/>
			<rect x="1" y="12" width="1" height="1" fill="#000000"/>
			<rect x="6" y="12" width="1" height="1" fill="#000000"/>
			<rect x="7" y="12" width="1" height="1" fill="#000000"/>
			<rect x="8" y="12" width="1" height="1" fill="#000000"/>
			<rect x="9" y="12" width="1" height="1" fill="#000000"/>
			<rect x="10" y="12" width="1" height="1" fill="#000000"/>
			<rect x="11" y="12" width="1" height="1" fill="#000000"/>
			<rect x="12" y="12" width="1" height="1" fill="#000000"/>
			<rect x="15" y="12" width="1" height="1" fill="#000000"/>
			<rect x="16" y="12" width="1" height="1" fill="#000000"/>
			<rect x="18" y="12" width="1" height="1" fill="#000000"/>
			<rect x="19" y="12" width="1" height="1" fill="#000000"/>
			<rect x="24" y="12" width="1" height="1" fill="#000000"/>
			<rect x="1" y="13" width="1" height="1" fill="#000000"/>
			<rect x="2" y="13" width="1" height="1" fill="#000000"/>
			<rect x="3" y="13" width="1" height="1" fill="#000000"/>
			<rect x="4" y="13" width="1" height="1" fill="#000000"/>
			<rect x="7" y="13" width="1" height="1" fill="#000000"/>
			<rect x="9" y="13" width="1" height="1" fill="#000000"/>
			<rect x="10" y="13" width="1" height="1" fill="#000000"/>
			<rect x="11" y="13" width="1" height="1" fill="#000000"/>
			<rect x="12" y="13" width="1" height="1" fill="#000000"/>
			<rect x="15" y="13" width="1" height="1" fill="#000000"/>
			<rect x="16" y="13" width="1" height="1" fill="#000000"/>
			<rect x="18" y="13" width="1" height="1" fill="#000000"/>
			<rect x="19" y="13" width="1" height="1" fill="#000000"/>
			<rect x="23" y="13" width="1" height="1" fill="#000000"/>
			<rect x="24" y="13" width="1" height="1" fill="#000000"/>
			<rect x="0" y="14" width="1" height="1" fill="#000000"/>
			<rect x="1" y="14" width="1" height="1" fill="#000000"/>
			<rect x="2" y="14" width="1" height="1" fill="#000000"/>
			<rect x="3" y="14" width="1" height="1" fill="#000000"/>
			<rect x="6" y="14" width="1" height="1" fill="#000000"/>
			<rect x="7" y="14" width="1" height="1" fill="#000000"/>
			<rect x="9" y="14" width="1" height="1" fill="#000000"/>
			<rect x="11" y="14" width="1" height="1" fill="#000000"/>
			<rect x="12" y="14" width="1" height="1" fill="#000000"/>
			<rect x="14" y="14" width="1" height="1" fill="#000000"/>
			<rect x="15" y="14" width="1" height="1" fill="#000000"/>
			<rect x="16" y="14" width="1" height="1" fill="#000000"/>
			<rect x="18" y="14" width="1" height="1" fill="#000000"/>
			<rect x="21" y="14" width="1" height="1" fill="#000000"/>
			<rect x="22" y="14" width="1" height="1" fill="#000000"/>
			<rect x="24" y="14" width="1" height="1" fill="#000000"/>
			<rect x="4" y="15" width="1" height="1" fill="#000000"/>
			<rect x="5" y="15" width="1" height="1" fill="#000000"/>
			<rect x="8" y="15" width="1" height="1" fill="#000000"/>
			<rect x="12" y="15" width="1" height="1" fill="#000000"/>
			<rect x="14" y="15" width="1" height="1" fill="#000000"/>
			<rect x="16" y="15" width="1" height="1" fill="#000000"/>
			<rect x="19" y="15" width="1" height="1" fill="#000000"/>
			<rect x="20" y="15" width="1" height="1" fill="#000000"/>
			<rect x="21" y="15" width="1" height="1" fill="#000000"/>
			<rect x="0" y="16" width="1" height="1" fill="#000000"/>
			<rect x="1" y="16" width="1" height="1" fill="#000000"/>
			<rect x="3" y="16" width="1" height="1" fill="#000000"/>
			<rect x="4" y="16" width="1" height="1" fill="#000000"/>
			<rect x="5" y="16" width="1" height="1" fill="#000000"/>
			<rect x="6" y="16" width="1" height="1" fill="#000000"/>
			<rect x="8" y="16" width="1" height="1" fill="#000000"/>
			<rect x="9" y="16" width="1" height="1" fill="#000000"/>
			<rect x="10" y="16" width="1" height="1" fill="#000000"/>
			<rect x="11" y="16" width="1" height="1" fill="#000000"/>
			<rect x="15" y="16" width="1" height="1" fill="#000000"/>
			<rect x="16" y="16" width="1" height="1" fill="#000000"/>
			<rect x="17" y="16" width="1" height="1" fill="#000000"/>
			<rect x="18" y="16" width="1" height="1" fill="#000000"/>
			<rect x="19" y="16" width="1" height="1" fill="#000000"/>
			<rect x="20" y="16" width="1" height="1" fill="#000000"/>
			<rect x="23" y="16" width="1" height="1" fill="#000000"/>
			<rect x="8" y="17" width="1" height="1" fill="#000000"/>
			<rect x="9" y="17" width="1" height="1" fill="#000000"/>
			<rect x="11" y="17" width="1" height="1" fill="#000000"/>
			<rect x="12" y="17" width="1" height="1" fill="#000000"/>
			<rect x="13" y="17" width="1" height="1" fill="#000000"/>
			<rect x="16" y="17" width="1" height="1" fill="#000000"/>
			<rect x="20" y="17" width="1" height="1" fill="#000000"/>
			<rect x="24" y="17" width="1" height="1" fill="#000000"/>
			<rect x="0" y="18" width="1" height="1" fill="#000000"/>
			<rect x="1" y="18" width="1" height="1" fill="#000000"/>
			<rect x="2" y="18" width="1" height="1" fill="#000000"/>
			<rect x="3" y="18" width="1" height="1" fill="#000000"/>
			<rect x="4" y="18" width="1" height="1" fill="#000000"/>
			<rect x="5" y="18" width="1" height="1" fill="#000000"/>
			<rect x="6" y="18" width="1" height="1" fill="#000000"/>
			<rect x="10" y="18" width="1" height="1" fill="#000000"/>
			<rect x="11" y="18" width="1" height="1" fill="#000000"/>
			<rect x="16" y="18" width="1" height="1" fill="#000000"/>
			<rect x="18" y="18" width="1" height="1" fill="#000000"/>
			<rect x="20" y="18" width="1" height="1" fill="#000000"/>
			<rect x="24" y="18" width="1" height="1" fill="#000000"/>
			<rect x="0" y="19" width="1" height="1" fill="#000000"/>
			<rect x="6" y="19" width="1" height="1" fill="#000000"/>
			<rect x="8" y="19" width="1" height="1" fill="#000000"/>
			<rect x="10" y="19" width="1" height="1" fill="#000000"/>
			<rect x="12" y="19" width="1" height="1" fill="#000000"/>
			<rect x="14" y="19" width="1" height="1" fill="#000000"/>
			<rect x="15" y="19" width="1" height="1" fill="#000000"/>
			<rect x="16" y="19" width="1" height="1" fill="#000000"/>
			<rect x="20" y="19" width="1" height="1" fill="#000000"/>
			<rect x="0" y="20" width="1" height="1" fill="#000000"/>
			<rect x="2" y="20" width="1" height="1" fill="#000000"/>
			<rect x="3" y="20" width="1" height="1" fill="#000000"/>
			<rect x="4" y="20" width="1" height="1" fill="#000000"/>
			<rect x="6" y="20" width="1" height="1" fill="#000000"/>
			<rect x="10" y="20" width="1" height="1" fill="#000000"/>
			<rect x="11" y="20" width="1" height="1" fill="#000000"/>
			<rect x="15" y="20" width="1" height="1" fill="#000000"/>
			<rect x="16" y="20" width="1" height="1" fill="#000000"/>
			<rect x="17" y="20" width="1" height="1" fill="#000000"/>
			<rect x="18" y="20" width="1" height="1" fill="#000000"/>
			<rect x="19" y="20" width="1" height="1" fill="#000000"/>
			<rect x="20" y="20" width="1" height="1" fill="#000000"/>
			<rect x="0" y="21" width="1" height="1" fill="#000000"/>
			<rect x="2" y="21" width="1" height="1" fill="#000000"/>
			<rect x="3" y="21" width="1" height="1" fill="#000000"/>
			<rect x="4" y="21" width="1" height="1" fill="#000000"/>
			<rect x="6" y="21" width="1" height="1" fill="#000000"/>
			<rect x="10" y="21" width="1" height="1" fill="#000000"/>
			<rect x="11" y="21" width="1" height="1" fill="#000000"/>
			<rect x="12" y="21" width="1" height="1" fill="#000000"/>
			<rect x="13" y="21" width="1" height="1" fill="#000000"/>
			<rect x="15" y="21" width="1" height="1" fill="#000000"/>
			<rect x="20" y="21" width="1" height="1" fill="#000000"/>
			<rect x="22" y="21" width="1" height="1" fill="#000000"/>
			<rect x="23" y="21" width="1" height="1" fill="#000000"/>
			<rect x="0" y="22" width="1" height="1" fill="#000000"/>
			<rect x="2" y="22" width="1" height="1" fill="#000000"/>
			<rect x="3" y="22" width="1" height="1" fill="#000000"/>
			<rect x="4" y="22" width="1" height="1" fill="#000000"/>
			<rect x="6" y="22" width="1" height="1" fill="#000000"/>
			<rect x="8" y="22" width="1" height="1" fill="#000000"/>
			<rect x="10" y="22" width="1" height="1" fill="#000000"/>
			<rect x="11" y="22" width="1" height="1" fill="#000000"/>
			<rect x="12" y="22" width="1" height="1" fill="#000000"/>
			<rect x="13" y="22" width="1" height="1" fill="#000000"/>
			<rect x="15" y="22" width="1" height="1" fill="#000000"/>
			<rect x="16" y="22" width="1" height="1" fill="#000000"/>
			<rect x="17" y="22" width="1" height="1" fill="#000000"/>
			<rect x="19" y="22" width="1" height="1" fill="#000000"/>
			<rect x="20" y="22" width="1" height="1" fill="#000000"/>
			<rect x="21" y="22" width="1" height="1" fill="#000000"/>
			<rect x="23" y="22" width="1" height="1" fill="#000000"/>
			<rect x="24" y="22" width="1" height="1" fill="#000000"/>
			<rect x="0" y="23" width="1" height="1" fill="#000000"/>
			<rect x="6" y="23" width="1" height="1" fill="#000000"/>
			<rect x="8" y="23" width="1" height="1" fill="#000000"/>
			<rect x="9" y="23" width="1" height="1" fill="#000000"/>
			<rect x="10" y="23" width="1" height="1" fill="#000000"/>
			<rect x="14" y="23" width="1" height="1" fill="#000000"/>
			<rect x="16" y="23" width="1" height="1" fill="#000000"/>
			<rect x="17" y="23" width="1" height="1" fill="#000000"/>
			<rect x="18" y="23" width="1" height="1" fill="#000000"/>
			<rect x="19" y="23" width="1" height="1" fill="#000000"/>
			<rect x="20" y="23" width="1" height="1" fill="#000000"/>
			<rect x="0" y="24" width="1" height="1" fill="#000000"/>
			<rect x="1" y="24" width="1" height="1" fill="#000000"/>
			<rect x="2" y="24" width="1" height="1" fill="#000000"/>
			<rect x="3" y="24" width="1" height="1" fill="#000000"/>
			<rect x="4" y="24" width="1" height="1" fill="#000000"/>
			<rect x="5" y="24" width="1" height="1" fill="#000000"/>
			<rect x="6" y="24" width="1" height="1" fill="#000000"/>
			<rect x="8" y="24" width="1" height="1" fill="#000000"/>
			<rect x="9" y="24" width="1" height="1" fill="#000000"/>
			<rect x="11" y="24" width="1" height="1" fill="#000000"/>
			<rect x="16" y="24" width="1" height="1" fill="#000000"/>
			<rect x="17" y="24" width="1" height="1" fill="#000000"/>
			<rect x="21" y="24" width="1" height="1" fill="#000000"/>
			<rect x="24" y="24" width="1" height="1" fill="#000000"/>
  </g>
</svg>
