<svg xmlns="http://www.w3.org/2000/svg" viewBox="0 0 600 600" width="3in" height="3in">
  <!-- Direction 3: The Manifest. PRINT-READY DRAFT.
       3-inch die-cut, matte vinyl. Pure black on natural cream.
       The sticker IS a rule. Mono-set YAML, wordmark anchored bottom-left,
       QR anchored bottom-right. Tells a passing dev 'this is a linter'
       in two seconds; the QR is the URL so we drop the redundant text.

       BEFORE PRINT: convert all text to outlines in a vector editor.
       Sticker Mule prefers PDF or PNG at 300 DPI minimum.

       FONT NOTE: display uses Inter (SIL OFL); mono uses JetBrains Mono
       (Apache 2.0). Both legally print-safe. The live AHD site uses Neue
       Haas Grotesk for display; swap if you have a license.

       QR encodes https://ahd.adastra.computer (scanned-verified). -->
  <defs>
    <style>
      .bg { fill: #faf8f1; }
      .ink { fill: #111111; }
      .muted { fill: #6b6b6b; }
      .mark { font-family: "Inter", "Helvetica Neue", sans-serif; font-weight: 900; letter-spacing: -0.04em; }
      .sub  { font-family: "Inter", "Helvetica Neue", sans-serif; font-weight: 400; letter-spacing: 0.18em; text-transform: uppercase; }
      .mono { font-family: "JetBrains Mono", "SF Mono", "Menlo", monospace; font-weight: 500; }
    </style>
  </defs>

  <rect class="bg" x="10" y="10" width="580" height="580" rx="24" ry="24"/>

  <!-- File header -->
  <text class="mono muted" x="52" y="74" font-size="18">rules/no-vibes-buttons.yml</text>
  <line x1="52" y1="90" x2="548" y2="90" stroke="#111" stroke-width="1"/>

  <!-- Rule body -->
  <g transform="translate(52, 134)">
    <text class="mono ink" x="0" y="0"   font-size="22"><tspan class="muted">id</tspan>: no-vibes-buttons</text>
    <text class="mono ink" x="0" y="36"  font-size="22"><tspan class="muted">level</tspan>: error</text>
    <text class="mono ink" x="0" y="72"  font-size="22"><tspan class="muted">family</tspan>: editorial</text>
    <text class="mono ink" x="0" y="108" font-size="22"><tspan class="muted">applies_to</tspan>:</text>
    <text class="mono ink" x="36" y="144" font-size="22">- token_pack: !default</text>
    <text class="mono ink" x="0" y="180" font-size="22"><tspan class="muted">reason</tspan>: &gt;</text>
    <text class="mono ink" x="36" y="216" font-size="22">purple gradient CTAs</text>
    <text class="mono ink" x="36" y="246" font-size="22">are the AI-design tell.</text>
  </g>

  <!-- Footer divider -->
  <line x1="52" y1="446" x2="548" y2="446" stroke="#111" stroke-width="1"/>

  <!-- Wordmark + subtitle (bottom-left, baseline-aligned with QR center) -->
  <text class="ink mark" x="52" y="540" font-size="64">AHD</text>
  <text class="ink sub" x="52" y="566" font-size="13">Artificial Human Design</text>

  <!-- QR (bottom-right). 4.0x scale -> 100px -> ~13mm at 3in print. -->
  <g transform="translate(442, 470) scale(4.0)">
			<rect x="0" y="0" width="1" height="1" fill="#000000"/>
			<rect x="1" y="0" width="1" height="1" fill="#000000"/>
			<rect x="2" y="0" width="1" height="1" fill="#000000"/>
			<rect x="3" y="0" width="1" height="1" fill="#000000"/>
			<rect x="4" y="0" width="1" height="1" fill="#000000"/>
			<rect x="5" y="0" width="1" height="1" fill="#000000"/>
			<rect x="6" y="0" width="1" height="1" fill="#000000"/>
			<rect x="8" y="0" width="1" height="1" fill="#000000"/>
			<rect x="9" y="0" width="1" height="1" fill="#000000"/>
			<rect x="10" y="0" width="1" height="1" fill="#000000"/>
			<rect x="11" y="0" width="1" height="1" fill="#000000"/>
			<rect x="13" y="0" width="1" height="1" fill="#000000"/>
			<rect x="18" y="0" width="1" height="1" fill="#000000"/>
			<rect x="19" y="0" width="1" height="1" fill="#000000"/>
			<rect x="20" y="0" width="1" height="1" fill="#000000"/>
			<rect x="21" y="0" width="1" height="1" fill="#000000"/>
			<rect x="22" y="0" width="1" height="1" fill="#000000"/>
			<rect x="23" y="0" width="1" height="1" fill="#000000"/>
			<rect x="24" y="0" width="1" height="1" fill="#000000"/>
			<rect x="0" y="1" width="1" height="1" fill="#000000"/>
			<rect x="6" y="1" width="1" height="1" fill="#000000"/>
			<rect x="8" y="1" width="1" height="1" fill="#000000"/>
			<rect x="11" y="1" width="1" height="1" fill="#000000"/>
			<rect x="13" y="1" width="1" height="1" fill="#000000"/>
			<rect x="18" y="1" width="1" height="1" fill="#000000"/>
			<rect x="24" y="1" width="1" height="1" fill="#000000"/>
			<rect x="0" y="2" width="1" height="1" fill="#000000"/>
			<rect x="2" y="2" width="1" height="1" fill="#000000"/>
			<rect x="3" y="2" width="1" height="1" fill="#000000"/>
			<rect x="4" y="2" width="1" height="1" fill="#000000"/>
			<rect x="6" y="2" width="1" height="1" fill="#000000"/>
			<rect x="9" y="2" width="1" height="1" fill="#000000"/>
			<rect x="13" y="2" width="1" height="1" fill="#000000"/>
			<rect x="14" y="2" width="1" height="1" fill="#000000"/>
			<rect x="15" y="2" width="1" height="1" fill="#000000"/>
			<rect x="18" y="2" width="1" height="1" fill="#000000"/>
			<rect x="20" y="2" width="1" height="1" fill="#000000"/>
			<rect x="21" y="2" width="1" height="1" fill="#000000"/>
			<rect x="22" y="2" width="1" height="1" fill="#000000"/>
			<rect x="24" y="2" width="1" height="1" fill="#000000"/>
			<rect x="0" y="3" width="1" height="1" fill="#000000"/>
			<rect x="2" y="3" width="1" height="1" fill="#000000"/>
			<rect x="3" y="3" width="1" height="1" fill="#000000"/>
			<rect x="4" y="3" width="1" height="1" fill="#000000"/>
			<rect x="6" y="3" width="1" height="1" fill="#000000"/>
			<rect x="11" y="3" width="1" height="1" fill="#000000"/>
			<rect x="13" y="3" width="1" height="1" fill="#000000"/>
			<rect x="14" y="3" width="1" height="1" fill="#000000"/>
			<rect x="16" y="3" width="1" height="1" fill="#000000"/>
			<rect x="18" y="3" width="1" height="1" fill="#000000"/>
			<rect x="20" y="3" width="1" height="1" fill="#000000"/>
			<rect x="21" y="3" width="1" height="1" fill="#000000"/>
			<rect x="22" y="3" width="1" height="1" fill="#000000"/>
			<rect x="24" y="3" width="1" height="1" fill="#000000"/>
			<rect x="0" y="4" width="1" height="1" fill="#000000"/>
			<rect x="2" y="4" width="1" height="1" fill="#000000"/>
			<rect x="3" y="4" width="1" height="1" fill="#000000"/>
			<rect x="4" y="4" width="1" height="1" fill="#000000"/>
			<rect x="6" y="4" width="1" height="1" fill="#000000"/>
			<rect x="8" y="4" width="1" height="1" fill="#000000"/>
			<rect x="11" y="4" width="1" height="1" fill="#000000"/>
			<rect x="12" y="4" width="1" height="1" fill="#000000"/>
			<rect x="13" y="4" width="1" height="1" fill="#000000"/>
			<rect x="14" y="4" width="1" height="1" fill="#000000"/>
			<rect x="18" y="4" width="1" height="1" fill="#000000"/>
			<rect x="20" y="4" width="1" height="1" fill="#000000"/>
			<rect x="21" y="4" width="1" height="1" fill="#000000"/>
			<rect x="22" y="4" width="1" height="1" fill="#000000"/>
			<rect x="24" y="4" width="1" height="1" fill="#000000"/>
			<rect x="0" y="5" width="1" height="1" fill="#000000"/>
			<rect x="6" y="5" width="1" height="1" fill="#000000"/>
			<rect x="8" y="5" width="1" height="1" fill="#000000"/>
			<rect x="9" y="5" width="1" height="1" fill="#000000"/>
			<rect x="10" y="5" width="1" height="1" fill="#000000"/>
			<rect x="16" y="5" width="1" height="1" fill="#000000"/>
			<rect x="18" y="5" width="1" height="1" fill="#000000"/>
			<rect x="24" y="5" width="1" height="1" fill="#000000"/>
			<rect x="0" y="6" width="1" height="1" fill="#000000"/>
			<rect x="1" y="6" width="1" height="1" fill="#000000"/>
			<rect x="2" y="6" width="1" height="1" fill="#000000"/>
			<rect x="3" y="6" width="1" height="1" fill="#000000"/>
			<rect x="4" y="6" width="1" height="1" fill="#000000"/>
			<rect x="5" y="6" width="1" height="1" fill="#000000"/>
			<rect x="6" y="6" width="1" height="1" fill="#000000"/>
			<rect x="8" y="6" width="1" height="1" fill="#000000"/>
			<rect x="10" y="6" width="1" height="1" fill="#000000"/>
			<rect x="12" y="6" width="1" height="1" fill="#000000"/>
			<rect x="14" y="6" width="1" height="1" fill="#000000"/>
			<rect x="16" y="6" width="1" height="1" fill="#000000"/>
			<rect x="18" y="6" width="1" height="1" fill="#000000"/>
			<rect x="19" y="6" width="1" height="1" fill="#000000"/>
			<rect x="20" y="6" width="1" height="1" fill="#000000"/>
			<rect x="21" y="6" width="1" height="1" fill="#000000"/>
			<rect x="22" y="6" width="1" height="1" fill="#000000"/>
			<rect x="23" y="6" width="1" height="1" fill="#000000"/>
			<rect x="24" y="6" width="1" height="1" fill="#000000"/>
			<rect x="8" y="7" width="1" height="1" fill="#000000"/>
			<rect x="9" y="7" width="1" height="1" fill="#000000"/>
			<rect x="11" y="7" width="1" height="1" fill="#000000"/>
			<rect x="14" y="7" width="1" height="1" fill="#000000"/>
			<rect x="15" y="7" width="1" height="1" fill="#000000"/>
			<rect x="0" y="8" width="1" height="1" fill="#000000"/>
			<rect x="1" y="8" width="1" height="1" fill="#000000"/>
			<rect x="2" y="8" width="1" height="1" fill="#000000"/>
			<rect x="5" y="8" width="1" height="1" fill="#000000"/>
			<rect x="6" y="8" width="1" height="1" fill="#000000"/>
			<rect x="8" y="8" width="1" height="1" fill="#000000"/>
			<rect x="9" y="8" width="1" height="1" fill="#000000"/>
			<rect x="11" y="8" width="1" height="1" fill="#000000"/>
			<rect x="14" y="8" width="1" height="1" fill="#000000"/>
			<rect x="15" y="8" width="1" height="1" fill="#000000"/>
			<rect x="17" y="8" width="1" height="1" fill="#000000"/>
			<rect x="18" y="8" width="1" height="1" fill="#000000"/>
			<rect x="19" y="8" width="1" height="1" fill="#000000"/>
			<rect x="20" y="8" width="1" height="1" fill="#000000"/>
			<rect x="23" y="8" width="1" height="1" fill="#000000"/>
			<rect x="24" y="8" width="1" height="1" fill="#000000"/>
			<rect x="0" y="9" width="1" height="1" fill="#000000"/>
			<rect x="1" y="9" width="1" height="1" fill="#000000"/>
			<rect x="4" y="9" width="1" height="1" fill="#000000"/>
			<rect x="5" y="9" width="1" height="1" fill="#000000"/>
			<rect x="7" y="9" width="1" height="1" fill="#000000"/>
			<rect x="11" y="9" width="1" height="1" fill="#000000"/>
			<rect x="12" y="9" width="1" height="1" fill="#000000"/>
			<rect x="13" y="9" width="1" height="1" fill="#000000"/>
			<rect x="15" y="9" width="1" height="1" fill="#000000"/>
			<rect x="16" y="9" width="1" height="1" fill="#000000"/>
			<rect x="18" y="9" width="1" height="1" fill="#000000"/>
			<rect x="19" y="9" width="1" height="1" fill="#000000"/>
			<rect x="21" y="9" width="1" height="1" fill="#000000"/>
			<rect x="23" y="9" width="1" height="1" fill="#000000"/>
			<rect x="24" y="9" width="1" height="1" fill="#000000"/>
			<rect x="0" y="10" width="1" height="1" fill="#000000"/>
			<rect x="2" y="10" width="1" height="1" fill="#000000"/>
			<rect x="5" y="10" width="1" height="1" fill="#000000"/>
			<rect x="6" y="10" width="1" height="1" fill="#000000"/>
			<rect x="8" y="10" width="1" height="1" fill="#000000"/>
			<rect x="9" y="10" width="1" height="1" fill="#000000"/>
			<rect x="10" y="10" width="1" height="1" fill="#000000"/>
			<rect x="11" y="10" width="1" height="1" fill="#000000"/>
			<rect x="15" y="10" width="1" height="1" fill="#000000"/>
			<rect x="17" y="10" width="1" height="1" fill="#000000"/>
			<rect x="20" y="10" width="1" height="1" fill="#000000"/>
			<rect x="21" y="10" width="1" height="1" fill="#000000"/>
			<rect x="22" y="10" width="1" height="1" fill="#000000"/>
			<rect x="24" y="10" width="1" height="1" fill="#000000"/>
			<rect x="0" y="11" width="1" height="1" fill="#000000"/>
			<rect x="1" y="11" width="1" height="1" fill="#000000"/>
			<rect x="3" y="11" width="1" height="1" fill="#000000"/>
			<rect x="5" y="11" width="1" height="1" fill="#000000"/>
			<rect x="7" y="11" width="1" height="1" fill="#000000"/>
			<rect x="8" y="11" width="1" height="1" fill="#000000"/>
			<rect x="10" y="11" width="1" height="1" fill="#000000"/>
			<rect x="12" y="11" width="1" height="1" fill="#000000"/>
			<rect x="21" y="11" width="1" height="1" fill="#000000"/>
			<rect x="1" y="12" width="1" height="1" fill="#000000"/>
			<rect x="6" y="12" width="1" height="1" fill="#000000"/>
			<rect x="7" y="12" width="1" height="1" fill="#000000"/>
			<rect x="8" y="12" width="1" height="1" fill="#000000"/>
			<rect x="9" y="12" width="1" height="1" fill="#000000"/>
			<rect x="10" y="12" width="1" height="1" fill="#000000"/>
			<rect x="11" y="12" width="1" height="1" fill="#000000"/>
			<rect x="12" y="12" width="1" height="1" fill="#000000"/>
			<rect x="15" y="12" width="1" height="1" fill="#000000"/>
			<rect x="16" y="12" width="1" height="1" fill="#000000"/>
			<rect x="18" y="12" width="1" height="1" fill="#000000"/>
			<rect x="19" y="12" width="1" height="1" fill="#000000"/>
			<rect x="24" y="12" width="1" height="1" fill="#000000"/>
			<rect x="1" y="13" width="1" height="1" fill="#000000"/>
			<rect x="2" y="13" width="1" height="1" fill="#000000"/>
			<rect x="3" y="13" width="1" height="1" fill="#000000"/>
			<rect x="4" y="13" width="1" height="1" fill="#000000"/>
			<rect x="7" y="13" width="1" height="1" fill="#000000"/>
			<rect x="9" y="13" width="1" height="1" fill="#000000"/>
			<rect x="10" y="13" width="1" height="1" fill="#000000"/>
			<rect x="11" y="13" width="1" height="1" fill="#000000"/>
			<rect x="12" y="13" width="1" height="1" fill="#000000"/>
			<rect x="15" y="13" width="1" height="1" fill="#000000"/>
			<rect x="16" y="13" width="1" height="1" fill="#000000"/>
			<rect x="18" y="13" width="1" height="1" fill="#000000"/>
			<rect x="19" y="13" width="1" height="1" fill="#000000"/>
			<rect x="23" y="13" width="1" height="1" fill="#000000"/>
			<rect x="24" y="13" width="1" height="1" fill="#000000"/>
			<rect x="0" y="14" width="1" height="1" fill="#000000"/>
			<rect x="1" y="14" width="1" height="1" fill="#000000"/>
			<rect x="2" y="14" width="1" height="1" fill="#000000"/>
			<rect x="3" y="14" width="1" height="1" fill="#000000"/>
			<rect x="6" y="14" width="1" height="1" fill="#000000"/>
			<rect x="7" y="14" width="1" height="1" fill="#000000"/>
			<rect x="9" y="14" width="1" height="1" fill="#000000"/>
			<rect x="11" y="14" width="1" height="1" fill="#000000"/>
			<rect x="12" y="14" width="1" height="1" fill="#000000"/>
			<rect x="14" y="14" width="1" height="1" fill="#000000"/>
			<rect x="15" y="14" width="1" height="1" fill="#000000"/>
			<rect x="16" y="14" width="1" height="1" fill="#000000"/>
			<rect x="18" y="14" width="1" height="1" fill="#000000"/>
			<rect x="21" y="14" width="1" height="1" fill="#000000"/>
			<rect x="22" y="14" width="1" height="1" fill="#000000"/>
			<rect x="24" y="14" width="1" height="1" fill="#000000"/>
			<rect x="4" y="15" width="1" height="1" fill="#000000"/>
			<rect x="5" y="15" width="1" height="1" fill="#000000"/>
			<rect x="8" y="15" width="1" height="1" fill="#000000"/>
			<rect x="12" y="15" width="1" height="1" fill="#000000"/>
			<rect x="14" y="15" width="1" height="1" fill="#000000"/>
			<rect x="16" y="15" width="1" height="1" fill="#000000"/>
			<rect x="19" y="15" width="1" height="1" fill="#000000"/>
			<rect x="20" y="15" width="1" height="1" fill="#000000"/>
			<rect x="21" y="15" width="1" height="1" fill="#000000"/>
			<rect x="0" y="16" width="1" height="1" fill="#000000"/>
			<rect x="1" y="16" width="1" height="1" fill="#000000"/>
			<rect x="3" y="16" width="1" height="1" fill="#000000"/>
			<rect x="4" y="16" width="1" height="1" fill="#000000"/>
			<rect x="5" y="16" width="1" height="1" fill="#000000"/>
			<rect x="6" y="16" width="1" height="1" fill="#000000"/>
			<rect x="8" y="16" width="1" height="1" fill="#000000"/>
			<rect x="9" y="16" width="1" height="1" fill="#000000"/>
			<rect x="10" y="16" width="1" height="1" fill="#000000"/>
			<rect x="11" y="16" width="1" height="1" fill="#000000"/>
			<rect x="15" y="16" width="1" height="1" fill="#000000"/>
			<rect x="16" y="16" width="1" height="1" fill="#000000"/>
			<rect x="17" y="16" width="1" height="1" fill="#000000"/>
			<rect x="18" y="16" width="1" height="1" fill="#000000"/>
			<rect x="19" y="16" width="1" height="1" fill="#000000"/>
			<rect x="20" y="16" width="1" height="1" fill="#000000"/>
			<rect x="23" y="16" width="1" height="1" fill="#000000"/>
			<rect x="8" y="17" width="1" height="1" fill="#000000"/>
			<rect x="9" y="17" width="1" height="1" fill="#000000"/>
			<rect x="11" y="17" width="1" height="1" fill="#000000"/>
			<rect x="12" y="17" width="1" height="1" fill="#000000"/>
			<rect x="13" y="17" width="1" height="1" fill="#000000"/>
			<rect x="16" y="17" width="1" height="1" fill="#000000"/>
			<rect x="20" y="17" width="1" height="1" fill="#000000"/>
			<rect x="24" y="17" width="1" height="1" fill="#000000"/>
			<rect x="0" y="18" width="1" height="1" fill="#000000"/>
			<rect x="1" y="18" width="1" height="1" fill="#000000"/>
			<rect x="2" y="18" width="1" height="1" fill="#000000"/>
			<rect x="3" y="18" width="1" height="1" fill="#000000"/>
			<rect x="4" y="18" width="1" height="1" fill="#000000"/>
			<rect x="5" y="18" width="1" height="1" fill="#000000"/>
			<rect x="6" y="18" width="1" height="1" fill="#000000"/>
			<rect x="10" y="18" width="1" height="1" fill="#000000"/>
			<rect x="11" y="18" width="1" height="1" fill="#000000"/>
			<rect x="16" y="18" width="1" height="1" fill="#000000"/>
			<rect x="18" y="18" width="1" height="1" fill="#000000"/>
			<rect x="20" y="18" width="1" height="1" fill="#000000"/>
			<rect x="24" y="18" width="1" height="1" fill="#000000"/>
			<rect x="0" y="19" width="1" height="1" fill="#000000"/>
			<rect x="6" y="19" width="1" height="1" fill="#000000"/>
			<rect x="8" y="19" width="1" height="1" fill="#000000"/>
			<rect x="10" y="19" width="1" height="1" fill="#000000"/>
			<rect x="12" y="19" width="1" height="1" fill="#000000"/>
			<rect x="14" y="19" width="1" height="1" fill="#000000"/>
			<rect x="15" y="19" width="1" height="1" fill="#000000"/>
			<rect x="16" y="19" width="1" height="1" fill="#000000"/>
			<rect x="20" y="19" width="1" height="1" fill="#000000"/>
			<rect x="0" y="20" width="1" height="1" fill="#000000"/>
			<rect x="2" y="20" width="1" height="1" fill="#000000"/>
			<rect x="3" y="20" width="1" height="1" fill="#000000"/>
			<rect x="4" y="20" width="1" height="1" fill="#000000"/>
			<rect x="6" y="20" width="1" height="1" fill="#000000"/>
			<rect x="10" y="20" width="1" height="1" fill="#000000"/>
			<rect x="11" y="20" width="1" height="1" fill="#000000"/>
			<rect x="15" y="20" width="1" height="1" fill="#000000"/>
			<rect x="16" y="20" width="1" height="1" fill="#000000"/>
			<rect x="17" y="20" width="1" height="1" fill="#000000"/>
			<rect x="18" y="20" width="1" height="1" fill="#000000"/>
			<rect x="19" y="20" width="1" height="1" fill="#000000"/>
			<rect x="20" y="20" width="1" height="1" fill="#000000"/>
			<rect x="0" y="21" width="1" height="1" fill="#000000"/>
			<rect x="2" y="21" width="1" height="1" fill="#000000"/>
			<rect x="3" y="21" width="1" height="1" fill="#000000"/>
			<rect x="4" y="21" width="1" height="1" fill="#000000"/>
			<rect x="6" y="21" width="1" height="1" fill="#000000"/>
			<rect x="10" y="21" width="1" height="1" fill="#000000"/>
			<rect x="11" y="21" width="1" height="1" fill="#000000"/>
			<rect x="12" y="21" width="1" height="1" fill="#000000"/>
			<rect x="13" y="21" width="1" height="1" fill="#000000"/>
			<rect x="15" y="21" width="1" height="1" fill="#000000"/>
			<rect x="20" y="21" width="1" height="1" fill="#000000"/>
			<rect x="22" y="21" width="1" height="1" fill="#000000"/>
			<rect x="23" y="21" width="1" height="1" fill="#000000"/>
			<rect x="0" y="22" width="1" height="1" fill="#000000"/>
			<rect x="2" y="22" width="1" height="1" fill="#000000"/>
			<rect x="3" y="22" width="1" height="1" fill="#000000"/>
			<rect x="4" y="22" width="1" height="1" fill="#000000"/>
			<rect x="6" y="22" width="1" height="1" fill="#000000"/>
			<rect x="8" y="22" width="1" height="1" fill="#000000"/>
			<rect x="10" y="22" width="1" height="1" fill="#000000"/>
			<rect x="11" y="22" width="1" height="1" fill="#000000"/>
			<rect x="12" y="22" width="1" height="1" fill="#000000"/>
			<rect x="13" y="22" width="1" height="1" fill="#000000"/>
			<rect x="15" y="22" width="1" height="1" fill="#000000"/>
			<rect x="16" y="22" width="1" height="1" fill="#000000"/>
			<rect x="17" y="22" width="1" height="1" fill="#000000"/>
			<rect x="19" y="22" width="1" height="1" fill="#000000"/>
			<rect x="20" y="22" width="1" height="1" fill="#000000"/>
			<rect x="21" y="22" width="1" height="1" fill="#000000"/>
			<rect x="23" y="22" width="1" height="1" fill="#000000"/>
			<rect x="24" y="22" width="1" height="1" fill="#000000"/>
			<rect x="0" y="23" width="1" height="1" fill="#000000"/>
			<rect x="6" y="23" width="1" height="1" fill="#000000"/>
			<rect x="8" y="23" width="1" height="1" fill="#000000"/>
			<rect x="9" y="23" width="1" height="1" fill="#000000"/>
			<rect x="10" y="23" width="1" height="1" fill="#000000"/>
			<rect x="14" y="23" width="1" height="1" fill="#000000"/>
			<rect x="16" y="23" width="1" height="1" fill="#000000"/>
			<rect x="17" y="23" width="1" height="1" fill="#000000"/>
			<rect x="18" y="23" width="1" height="1" fill="#000000"/>
			<rect x="19" y="23" width="1" height="1" fill="#000000"/>
			<rect x="20" y="23" width="1" height="1" fill="#000000"/>
			<rect x="0" y="24" width="1" height="1" fill="#000000"/>
			<rect x="1" y="24" width="1" height="1" fill="#000000"/>
			<rect x="2" y="24" width="1" height="1" fill="#000000"/>
			<rect x="3" y="24" width="1" height="1" fill="#000000"/>
			<rect x="4" y="24" width="1" height="1" fill="#000000"/>
			<rect x="5" y="24" width="1" height="1" fill="#000000"/>
			<rect x="6" y="24" width="1" height="1" fill="#000000"/>
			<rect x="8" y="24" width="1" height="1" fill="#000000"/>
			<rect x="9" y="24" width="1" height="1" fill="#000000"/>
			<rect x="11" y="24" width="1" height="1" fill="#000000"/>
			<rect x="16" y="24" width="1" height="1" fill="#000000"/>
			<rect x="17" y="24" width="1" height="1" fill="#000000"/>
			<rect x="21" y="24" width="1" height="1" fill="#000000"/>
			<rect x="24" y="24" width="1" height="1" fill="#000000"/>
  </g>
</svg>
