<?xml version="1.0" encoding="UTF-8" standalone="no"?>
<svg
   viewBox="0 0 600 600"
   width="3in"
   height="3in"
   version="1.1"
   id="svg334"
   xmlns="http://www.w3.org/2000/svg"
   xmlns:svg="http://www.w3.org/2000/svg">
  <!-- Direction 3: The Manifest. PRINT-READY DRAFT.
       3-inch die-cut, matte vinyl. Pure black on natural cream.
       The sticker IS a rule. Mono-set YAML, wordmark anchored bottom-left,
       QR anchored bottom-right. Tells a passing dev 'this is a linter'
       in two seconds; the QR is the URL so we drop the redundant text.

       BEFORE PRINT: convert all text to outlines in a vector editor.
       Sticker Mule prefers PDF or PNG at 300 DPI minimum.

       FONT NOTE: display uses Inter (SIL OFL); mono uses JetBrains Mono
       (Apache 2.0). Both legally print-safe. The live AHD site uses Neue
       Haas Grotesk for display; swap if you have a license.

       QR encodes https://ahd.adastra.computer (scanned-verified). -->
  <defs
     id="defs1">
    <style
       id="style1">
      .bg { fill: #faf8f1; }
      .ink { fill: #111111; }
      .muted { fill: #6b6b6b; }
      .mark { font-family: &quot;Inter&quot;, &quot;Helvetica Neue&quot;, sans-serif; font-weight: 900; letter-spacing: -0.04em; }
      .sub  { font-family: &quot;Inter&quot;, &quot;Helvetica Neue&quot;, sans-serif; font-weight: 400; letter-spacing: 0.18em; text-transform: uppercase; }
      .mono { font-family: &quot;JetBrains Mono&quot;, &quot;SF Mono&quot;, &quot;Menlo&quot;, monospace; font-weight: 500; }
    </style>
  </defs>
  <rect
     class="bg"
     x="10"
     y="10"
     width="580"
     height="580"
     rx="24"
     ry="24"
     id="rect1" />
  <!-- File header -->
  <path
     d="m 53.944,74 h 1.782 v -6.246 c 0,-1.476 0.738,-2.286 2.088,-2.286 1.314,0 2.034,0.684 2.034,2.07 v 0.846 H 61.63 V 67.52 c 0,-2.286 -1.17,-3.6 -3.222,-3.6 -1.53,0 -2.484,0.792 -2.682,2.088 H 55.708 V 64.1 h -1.764 z m 14.238007,0.18 c 2.34,0 3.87,-1.458 3.87,-3.816 V 64.1 h -1.782 v 6.264 c 0,1.386 -0.81,2.25 -2.088,2.25 -1.26,0 -2.052,-0.864 -2.052,-2.25 V 64.1 h -1.782 v 6.264 c 0,2.34 1.494,3.816 3.834,3.816 z M 80.476014,74 h 3.06 v -1.62 h -3.006 c -0.756,0 -1.242,-0.504 -1.242,-1.296 V 60.86 h -5.166 v 1.62 h 3.384 v 8.622 c 0,1.746 1.17,2.898 2.97,2.898 z m 9.324007,0.18 c 2.106,0 3.636,-1.062 3.87,-2.736 h -1.782 c -0.144,0.756 -0.954,1.224 -2.088,1.224 -1.368,0 -2.214,-0.864 -2.214,-2.304 V 69.5 h 6.174 v -1.782 c 0,-2.286 -1.566,-3.798 -3.96,-3.798 -2.376,0 -3.96,1.512 -3.96,3.96 v 2.34 c 0,2.448 1.584,3.96 3.96,3.96 z m -2.214,-6.462 c 0,-1.512 0.792,-2.358 2.214,-2.358 1.422,0 2.214,0.846 2.214,2.358 v 0.468 h -4.428 z m 12.618009,6.426 h 0.792 c 2.286,0 3.564,-1.062 3.564,-2.934 0,-1.746 -0.864,-2.754 -2.574,-2.988 l -2.502003,-0.36 c -0.648,-0.09 -0.99,-0.45 -0.99,-1.116 0,-0.828 0.612,-1.332 1.692003,-1.332 h 0.792 c 0.972,0 1.602,0.486 1.638,1.17 h 1.8 c -0.072,-1.566 -1.44,-2.628 -3.438,-2.628 h -0.792 c -2.160003,0 -3.420003,1.044 -3.420003,2.808 0,1.53 0.792,2.502 2.214,2.718 l 2.664003,0.378 c 0.81,0.108 1.188,0.54 1.188,1.35 0,0.918 -0.666,1.44 -1.836,1.44 h -0.792 c -1.134003,0 -1.800003,-0.504 -1.800003,-1.386 h -1.764 c 0,1.836 1.314,2.88 3.564003,2.88 z m 7.074,1.836 h 1.872 l 6.372,-16.92 h -1.872 z M 118.38404,74 h 1.782 v -6.282 c 0,-1.44 0.792,-2.286 2.088,-2.286 1.242,0 2.016,0.792 2.016,2.232 V 74 h 1.782 v -6.624 c 0,-2.124 -1.278,-3.456 -3.24,-3.456 -1.512,0 -2.484,0.756 -2.646,2.07 h -0.018 V 64.1 h -1.764 z m 14.61601,0.144 c 2.412,0 3.96,-1.476 3.96,-3.96 v -2.268 c 0,-2.502 -1.53,-3.96 -3.96,-3.96 -2.43,0 -3.96,1.458 -3.96,3.96 v 2.268 c 0,2.484 1.548,3.96 3.96,3.96 z m 0,-1.566 c -1.35,0 -2.178,-0.774 -2.178,-2.232 v -2.592 c 0,-1.458 0.828,-2.232 2.178,-2.232 1.35,0 2.178,0.774 2.178,2.232 v 2.592 c 0,1.458 -0.828,2.232 -2.178,2.232 z m 7.92,-3.726 h 5.76 V 67.25 h -5.76 z M 153.44806,74 h 2.304 l 3.366,-9.9 h -1.89 l -2.088,6.498 c -0.234,0.774 -0.414,1.566 -0.504,1.998 -0.108,-0.432 -0.306,-1.224 -0.54,-1.998 l -2.106,-6.498 h -1.89 z m 12.24001,-11.646 c 0.81,0 1.332,-0.45 1.332,-1.17 0,-0.756 -0.522,-1.206 -1.332,-1.206 -0.828,0 -1.332,0.45 -1.332,1.206 0,0.72 0.504,1.17 1.332,1.17 z M 161.49407,74 h 8.514 v -1.62 h -3.258 V 64.1 h -4.896 v 1.62 h 3.114 v 6.66 h -3.474 z m 15.37201,0.18 c 1.962,0 3.24,-1.422 3.24,-3.708 v -2.844 c 0,-2.286 -1.26,-3.708 -3.24,-3.708 -1.476,0 -2.52,0.792 -2.736,2.088 l 0.036,-2.304 V 60.86 h -1.782 V 74 h 1.764 v -1.926 c 0.216,1.314 1.224,2.106 2.718,2.106 z m -0.63,-1.548 c -1.278,0 -2.07,-0.846 -2.07,-2.268 v -2.628 c 0,-1.422 0.792,-2.268 2.07,-2.268 1.314,0 2.088,0.648 2.088,2.178 v 2.808 c 0,1.53 -0.774,2.178 -2.088,2.178 z m 10.764,1.548 c 2.106,0 3.636,-1.062 3.87,-2.736 h -1.782 c -0.144,0.756 -0.954,1.224 -2.088,1.224 -1.368,0 -2.214,-0.864 -2.214,-2.304 V 69.5 h 6.174 v -1.782 c 0,-2.286 -1.566,-3.798 -3.96,-3.798 -2.376,0 -3.96,1.512 -3.96,3.96 v 2.34 c 0,2.448 1.584,3.96 3.96,3.96 z m -2.214,-6.462 c 0,-1.512 0.792,-2.358 2.214,-2.358 1.422,0 2.214,0.846 2.214,2.358 v 0.468 h -4.428 z m 12.61801,6.426 h 0.792 c 2.286,0 3.564,-1.062 3.564,-2.934 0,-1.746 -0.864,-2.754 -2.574,-2.988 l -2.502,-0.36 c -0.648,-0.09 -0.99,-0.45 -0.99,-1.116 0,-0.828 0.612,-1.332 1.692,-1.332 h 0.792 c 0.972,0 1.602,0.486 1.638,1.17 h 1.8 c -0.072,-1.566 -1.44,-2.628 -3.438,-2.628 h -0.792 c -2.16,0 -3.42,1.044 -3.42,2.808 0,1.53 0.792,2.502 2.214,2.718 l 2.664,0.378 c 0.81,0.108 1.188,0.54 1.188,1.35 0,0.918 -0.666,1.44 -1.836,1.44 h -0.792 c -1.134,0 -1.8,-0.504 -1.8,-1.386 h -1.764 c 0,1.836 1.314,2.88 3.564,2.88 z m 8.31601,-5.292 h 5.76 V 67.25 h -5.76 z m 14.34601,5.328 c 1.962,0 3.24,-1.422 3.24,-3.708 v -2.844 c 0,-2.286 -1.26,-3.708 -3.24,-3.708 -1.476,0 -2.52,0.792 -2.736,2.088 l 0.036,-2.304 V 60.86 h -1.782 V 74 h 1.764 v -1.926 c 0.216,1.314 1.224,2.106 2.718,2.106 z m -0.63,-1.548 c -1.278,0 -2.07,-0.846 -2.07,-2.268 v -2.628 c 0,-1.422 0.792,-2.268 2.07,-2.268 1.314,0 2.088,0.648 2.088,2.178 v 2.808 c 0,1.53 -0.774,2.178 -2.088,2.178 z m 10.746,1.548 c 2.34,0 3.87,-1.458 3.87,-3.816 V 64.1 h -1.782 v 6.264 c 0,1.386 -0.81,2.25 -2.088,2.25 -1.26,0 -2.052,-0.864 -2.052,-2.25 V 64.1 h -1.782 v 6.264 c 0,2.34 1.494,3.816 3.834,3.816 z m 11.808,-0.18 h 2.934 v -1.62 h -2.898 c -0.63,0 -1.026,-0.432 -1.026,-1.098 V 65.72 h 4.014 V 64.1 h -4.014 v -2.79 h -1.782 v 2.79 h -2.826 v 1.62 h 2.826 v 5.58 c 0,1.638 1.08,2.7 2.772,2.7 z m 10.80001,0 h 2.934 v -1.62 h -2.898 c -0.63,0 -1.026,-0.432 -1.026,-1.098 V 65.72 h 4.014 V 64.1 h -4.014 v -2.79 h -1.782 v 2.79 h -2.826 v 1.62 h 2.826 v 5.58 c 0,1.638 1.08,2.7 2.772,2.7 z m 9.81001,0.144 c 2.412,0 3.96,-1.476 3.96,-3.96 v -2.268 c 0,-2.502 -1.53,-3.96 -3.96,-3.96 -2.43,0 -3.96,1.458 -3.96,3.96 v 2.268 c 0,2.484 1.548,3.96 3.96,3.96 z m 0,-1.566 c -1.35,0 -2.178,-0.774 -2.178,-2.232 v -2.592 c 0,-1.458 0.828,-2.232 2.178,-2.232 1.35,0 2.178,0.774 2.178,2.232 v 2.592 c 0,1.458 -0.828,2.232 -2.178,2.232 z M 269.58414,74 h 1.782 v -6.282 c 0,-1.44 0.792,-2.286 2.088,-2.286 1.242,0 2.016,0.792 2.016,2.232 V 74 h 1.782 v -6.624 c 0,-2.124 -1.278,-3.456 -3.24,-3.456 -1.512,0 -2.484,0.756 -2.646,2.07 h -0.018 V 64.1 h -1.764 z m 14.22,0.144 h 0.792 c 2.286,0 3.564,-1.062 3.564,-2.934 0,-1.746 -0.864,-2.754 -2.574,-2.988 l -2.502,-0.36 c -0.648,-0.09 -0.99,-0.45 -0.99,-1.116 0,-0.828 0.612,-1.332 1.692,-1.332 h 0.792 c 0.972,0 1.602,0.486 1.638,1.17 h 1.8 c -0.072,-1.566 -1.44,-2.628 -3.438,-2.628 h -0.792 c -2.16,0 -3.42,1.044 -3.42,2.808 0,1.53 0.792,2.502 2.214,2.718 l 2.664,0.378 c 0.81,0.108 1.188,0.54 1.188,1.35 0,0.918 -0.666,1.44 -1.836,1.44 h -0.792 c -1.134,0 -1.8,-0.504 -1.8,-1.386 h -1.764 c 0,1.836 1.314,2.88 3.564,2.88 z m 11.19602,0.036 c 0.918,0 1.53,-0.594 1.53,-1.476 0,-0.918 -0.612,-1.548 -1.53,-1.548 -0.918,0 -1.53,0.63 -1.53,1.548 0,0.882 0.612,1.476 1.53,1.476 z m 8.55,3.06 h 1.854 l 4.914,-13.14 h -1.89 l -2.07,5.85 c -0.198,0.504 -0.378,1.134 -0.45,1.566 -0.072,-0.432 -0.288,-1.062 -0.486,-1.566 l -2.232,-5.85 h -1.89 l 3.69,9.306 z m 8.676,-3.24 h 1.62 v -7.506 c 0,-0.774 0.396,-1.224 1.026,-1.224 0.63,0 1.008,0.468 1.008,1.224 V 74 h 1.44 v -7.506 c 0,-0.774 0.396,-1.224 1.008,-1.224 0.63,0 1.026,0.468 1.026,1.224 V 74 h 1.62 v -7.524 c 0,-1.512 -0.828,-2.556 -2.088,-2.556 -0.918,0 -1.548,0.558 -1.692,1.458 -0.252,-0.9 -0.882,-1.458 -1.764,-1.458 -0.9,0 -1.53,0.612 -1.638,1.53 h -0.054 V 64.1 h -1.512 z m 16.65002,0 h 3.06 v -1.62 h -3.006 c -0.756,0 -1.242,-0.504 -1.242,-1.296 V 60.86 h -5.166 v 1.62 h 3.384 v 8.622 c 0,1.746 1.17,2.898 2.97,2.898 z"
     id="text1"
     class="mono muted"
     style="font-weight:500;font-size:18px;font-family:'JetBrains Mono', 'SF Mono', Menlo, monospace;fill:#6b6b6b"
     aria-label="rules/no-vibes-buttons.yml" />
  <line
     x1="52"
     y1="90"
     x2="548"
     y2="90"
     stroke="#111"
     stroke-width="1"
     id="line1" />
  <!-- Rule body -->
  <g
     transform="translate(52, 134)"
     id="g9">
    <g
       id="text2"
       class="mono ink"
       style="font-weight:500;font-size:22px;font-family:'JetBrains Mono', 'SF Mono', Menlo, monospace;fill:#111111"
       aria-label="id: no-vibes-buttons">
      <path
         style="fill:#6b6b6b"
         d="m 6.952,-14.234 c 0.99,0 1.628,-0.55 1.628,-1.43 0,-0.924 -0.638,-1.474 -1.628,-1.474 -1.012,0 -1.628,0.55 -1.628,1.474 0,0.88 0.616,1.43 1.628,1.43 z M 1.826,0 H 12.232 V -1.98 H 8.25 V -12.1 H 2.266 v 1.98 h 3.806 v 8.14 H 1.826 Z m 17.182008,0.22 c 1.804,0 3.036,-0.968 3.3,-2.574 V 0 h 2.156 v -16.06 h -2.178 v 3.476 l 0.044,2.816 c -0.264,-1.584 -1.54,-2.552 -3.322,-2.552 -2.442,0 -3.982,1.738 -3.982,4.532 v 3.476 c 0,2.794 1.562,4.532 3.982,4.532 z m 0.748,-1.892 c -1.606,0 -2.552,-0.792 -2.552,-2.662 v -3.432 c 0,-1.87 0.946,-2.662 2.552,-2.662 1.562,0 2.53,1.034 2.53,2.772 v 3.212 c 0,1.738 -0.968,2.772 -2.53,2.772 z"
         id="path334" />
      <path
         d="m 33.000017,-8.954 c 1.232,0 1.892,-0.66 1.892,-1.694 0,-1.012 -0.66,-1.672 -1.892,-1.672 -1.232,0 -1.892,0.66 -1.892,1.672 0,1.034 0.66,1.694 1.892,1.694 z m 0,9.174 c 1.232,0 1.892,-0.66 1.892,-1.672 0,-1.034 -0.66,-1.694 -1.892,-1.694 -1.232,0 -1.892,0.66 -1.892,1.694 0,1.012 0.66,1.672 1.892,1.672 z M 54.736034,0 h 2.178 v -7.678 c 0,-1.76 0.968,-2.794 2.552,-2.794 1.518,0 2.464,0.968 2.464,2.728 V 0 h 2.178 v -8.096 c 0,-2.596 -1.562,-4.224 -3.96,-4.224 -1.848,0 -3.036,0.924 -3.234,2.53 h -0.022 v -2.31 h -2.156 z m 17.864012,0.176 c 2.948,0 4.84,-1.804 4.84,-4.84 v -2.772 c 0,-3.058 -1.87,-4.84 -4.84,-4.84 -2.97,0 -4.84,1.782 -4.84,4.84 v 2.772 c 0,3.036 1.892,4.84 4.84,4.84 z m 0,-1.914 c -1.65,0 -2.662,-0.946 -2.662,-2.728 v -3.168 c 0,-1.782 1.012,-2.728 2.662,-2.728 1.65,0 2.662,0.946 2.662,2.728 v 3.168 c 0,1.782 -1.012,2.728 -2.662,2.728 z m 9.680004,-4.554 h 7.04 V -8.25 h -7.04 z M 97.592055,0 h 2.815995 l 4.114,-12.1 h -2.31 l -2.551995,7.942 c -0.286,0.946 -0.506,1.914 -0.616,2.442 -0.132,-0.528 -0.374,-1.496 -0.66,-2.442 l -2.574,-7.942 h -2.31 z m 14.960015,-14.234 c 0.99,0 1.628,-0.55 1.628,-1.43 0,-0.924 -0.638,-1.474 -1.628,-1.474 -1.012,0 -1.628,0.55 -1.628,1.474 0,0.88 0.616,1.43 1.628,1.43 z M 107.42607,0 h 10.406 v -1.98 h -3.982 V -12.1 h -5.984 v 1.98 h 3.806 v 8.14 h -4.246 z m 18.78801,0.22 c 2.398,0 3.96,-1.738 3.96,-4.532 v -3.476 c 0,-2.794 -1.54,-4.532 -3.96,-4.532 -1.804,0 -3.08,0.968 -3.344,2.552 l 0.044,-2.816 v -3.476 h -2.178 V 0 h 2.156 v -2.354 c 0.264,1.606 1.496,2.574 3.322,2.574 z m -0.77,-1.892 c -1.562,0 -2.53,-1.034 -2.53,-2.772 v -3.212 c 0,-1.738 0.968,-2.772 2.53,-2.772 1.606,0 2.552,0.792 2.552,2.662 v 3.432 c 0,1.87 -0.946,2.662 -2.552,2.662 z m 13.15601,1.892 c 2.574,0 4.444,-1.298 4.73,-3.344 h -2.178 c -0.176,0.924 -1.166,1.496 -2.552,1.496 -1.672,0 -2.706,-1.056 -2.706,-2.816 V -5.5 h 7.546 v -2.178 c 0,-2.794 -1.914,-4.642 -4.84,-4.642 -2.904,0 -4.84,1.848 -4.84,4.84 v 2.86 c 0,2.992 1.936,4.84 4.84,4.84 z m -2.706,-7.898 c 0,-1.848 0.968,-2.882 2.706,-2.882 1.738,0 2.706,1.034 2.706,2.882 v 0.572 h -5.412 z m 15.422,7.854 h 0.968 c 2.794,0 4.356,-1.298 4.356,-3.586 0,-2.134 -1.056,-3.366 -3.146,-3.652 l -3.058,-0.44 c -0.792,-0.11 -1.21,-0.55 -1.21,-1.364 0,-1.012 0.748,-1.628 2.068,-1.628 h 0.968 c 1.188,0 1.958,0.594 2.002,1.43 h 2.2 c -0.088,-1.914 -1.76,-3.212 -4.202,-3.212 h -0.968 c -2.64,0 -4.18,1.276 -4.18,3.432 0,1.87 0.968,3.058 2.706,3.322 l 3.256,0.462 c 0.99,0.132 1.452,0.66 1.452,1.65 0,1.122 -0.814,1.76 -2.244,1.76 h -0.968 c -1.386,0 -2.2,-0.616 -2.2,-1.694 h -2.156 c 0,2.244 1.606,3.52 4.356,3.52 z m 10.16401,-6.468 h 7.04 V -8.25 h -7.04 z m 17.53401,6.512 c 2.398,0 3.96,-1.738 3.96,-4.532 v -3.476 c 0,-2.794 -1.54,-4.532 -3.96,-4.532 -1.804,0 -3.08,0.968 -3.344,2.552 l 0.044,-2.816 v -3.476 h -2.178 V 0 h 2.156 v -2.354 c 0.264,1.606 1.496,2.574 3.322,2.574 z m -0.77,-1.892 c -1.562,0 -2.53,-1.034 -2.53,-2.772 v -3.212 c 0,-1.738 0.968,-2.772 2.53,-2.772 1.606,0 2.552,0.792 2.552,2.662 v 3.432 c 0,1.87 -0.946,2.662 -2.552,2.662 z m 13.134,1.892 c 2.86,0 4.73,-1.782 4.73,-4.664 V -12.1 h -2.178 v 7.656 c 0,1.694 -0.99,2.75 -2.552,2.75 -1.54,0 -2.508,-1.056 -2.508,-2.75 V -12.1 h -2.178 v 7.656 c 0,2.86 1.826,4.664 4.686,4.664 z M 205.81012,0 h 3.586 v -1.98 h -3.542 c -0.77,0 -1.254,-0.528 -1.254,-1.342 v -6.798 h 4.906 v -1.98 h -4.906 v -3.41 h -2.178 v 3.41 h -3.454 v 1.98 h 3.454 v 6.82 c 0,2.002 1.32,3.3 3.388,3.3 z m 13.20001,0 h 3.586 v -1.98 h -3.542 c -0.77,0 -1.254,-0.528 -1.254,-1.342 v -6.798 h 4.906 v -1.98 h -4.906 v -3.41 h -2.178 v 3.41 h -3.454 v 1.98 h 3.454 v 6.82 c 0,2.002 1.32,3.3 3.388,3.3 z m 11.99002,0.176 c 2.948,0 4.84,-1.804 4.84,-4.84 v -2.772 c 0,-3.058 -1.87,-4.84 -4.84,-4.84 -2.97,0 -4.84,1.782 -4.84,4.84 v 2.772 c 0,3.036 1.892,4.84 4.84,4.84 z m 0,-1.914 c -1.65,0 -2.662,-0.946 -2.662,-2.728 v -3.168 c 0,-1.782 1.012,-2.728 2.662,-2.728 1.65,0 2.662,0.946 2.662,2.728 v 3.168 c 0,1.782 -1.012,2.728 -2.662,2.728 z M 239.53616,0 h 2.178 v -7.678 c 0,-1.76 0.968,-2.794 2.552,-2.794 1.518,0 2.464,0.968 2.464,2.728 V 0 h 2.178 v -8.096 c 0,-2.596 -1.562,-4.224 -3.96,-4.224 -1.848,0 -3.036,0.924 -3.234,2.53 h -0.022 v -2.31 h -2.156 z m 17.38,0.176 h 0.968 c 2.794,0 4.356,-1.298 4.356,-3.586 0,-2.134 -1.056,-3.366 -3.146,-3.652 l -3.058,-0.44 c -0.792,-0.11 -1.21,-0.55 -1.21,-1.364 0,-1.012 0.748,-1.628 2.068,-1.628 h 0.968 c 1.188,0 1.958,0.594 2.002,1.43 h 2.2 c -0.088,-1.914 -1.76,-3.212 -4.202,-3.212 h -0.968 c -2.64,0 -4.18,1.276 -4.18,3.432 0,1.87 0.968,3.058 2.706,3.322 l 3.256,0.462 c 0.99,0.132 1.452,0.66 1.452,1.65 0,1.122 -0.814,1.76 -2.244,1.76 h -0.968 c -1.386,0 -2.2,-0.616 -2.2,-1.694 h -2.156 c 0,2.244 1.606,3.52 4.356,3.52 z"
         id="path335" />
    </g>
    <g
       id="text3"
       class="mono ink"
       style="font-weight:500;font-size:22px;font-family:'JetBrains Mono', 'SF Mono', Menlo, monospace;fill:#111111"
       aria-label="level: error">
      <path
         style="fill:#6b6b6b"
         d="m 8.404,36 h 3.74 V 34.02 H 8.47 c -0.924,0 -1.518,-0.616 -1.518,-1.584 V 19.94 H 0.638 v 1.98 h 4.136 v 10.538 c 0,2.134 1.43,3.542 3.63,3.542 z m 11.396008,0.22 c 2.574,0 4.444,-1.298 4.73,-3.344 h -2.178 c -0.176,0.924 -1.166,1.496 -2.552,1.496 -1.672,0 -2.706,-1.056 -2.706,-2.816 V 30.5 h 7.546 v -2.178 c 0,-2.794 -1.914,-4.642 -4.84,-4.642 -2.904,0 -4.84,1.848 -4.84,4.84 v 2.86 c 0,2.992 1.936,4.84 4.84,4.84 z m -2.706,-7.898 c 0,-1.848 0.968,-2.882 2.706,-2.882 1.738,0 2.706,1.034 2.706,2.882 v 0.572 h -5.412 z M 31.592017,36 h 2.816 l 4.114,-12.1 h -2.31 l -2.552,7.942 c -0.286,0.946 -0.506,1.914 -0.616,2.442 -0.132,-0.528 -0.374,-1.496 -0.66,-2.442 l -2.574,-7.942 h -2.31 z m 14.608008,0.22 c 2.574,0 4.444,-1.298 4.73,-3.344 h -2.178 c -0.176,0.924 -1.166,1.496 -2.552,1.496 -1.672,0 -2.706,-1.056 -2.706,-2.816 V 30.5 h 7.546 v -2.178 c 0,-2.794 -1.914,-4.642 -4.84,-4.642 -2.904,0 -4.84,1.848 -4.84,4.84 v 2.86 c 0,2.992 1.936,4.84 4.84,4.84 z m -2.706,-7.898 c 0,-1.848 0.968,-2.882 2.706,-2.882 1.738,0 2.706,1.034 2.706,2.882 v 0.572 h -5.412 z M 61.204034,36 h 3.74 v -1.98 h -3.674 c -0.924,0 -1.518,-0.616 -1.518,-1.584 V 19.94 h -6.314 v 1.98 h 4.136 v 10.538 c 0,2.134 1.43,3.542 3.63,3.542 z"
         id="path336" />
      <path
         d="m 72.600046,27.046 c 1.232,0 1.892,-0.66 1.892,-1.694 0,-1.012 -0.66,-1.672 -1.892,-1.672 -1.232,0 -1.892,0.66 -1.892,1.672 0,1.034 0.66,1.694 1.892,1.694 z m 0,9.174 c 1.232,0 1.892,-0.66 1.892,-1.672 0,-1.034 -0.66,-1.694 -1.892,-1.694 -1.232,0 -1.892,0.66 -1.892,1.694 0,1.012 0.66,1.672 1.892,1.672 z m 26.400009,0 c 2.573995,0 4.443995,-1.298 4.729995,-3.344 h -2.178 c -0.176,0.924 -1.166,1.496 -2.551995,1.496 -1.672,0 -2.706,-1.056 -2.706,-2.816 V 30.5 h 7.545995 v -2.178 c 0,-2.794 -1.914,-4.642 -4.839995,-4.642 -2.904,0 -4.84,1.848 -4.84,4.84 v 2.86 c 0,2.992 1.936,4.84 4.84,4.84 z m -2.706,-7.898 c 0,-1.848 0.968,-2.882 2.706,-2.882 1.737995,0 2.705995,1.034 2.705995,2.882 v 0.572 H 96.294055 Z M 107.97607,36 h 2.178 v -7.634 c 0,-1.804 0.902,-2.794 2.552,-2.794 1.606,0 2.486,0.836 2.486,2.53 v 1.034 h 2.178 V 28.08 c 0,-2.794 -1.43,-4.4 -3.938,-4.4 -1.87,0 -3.036,0.968 -3.278,2.552 h -0.022 V 23.9 h -2.156 z m 13.20001,0 h 2.178 v -7.634 c 0,-1.804 0.902,-2.794 2.552,-2.794 1.606,0 2.486,0.836 2.486,2.53 v 1.034 h 2.178 V 28.08 c 0,-2.794 -1.43,-4.4 -3.938,-4.4 -1.87,0 -3.036,0.968 -3.278,2.552 h -0.022 V 23.9 h -2.156 z m 17.42401,0.176 c 2.948,0 4.84,-1.804 4.84,-4.84 v -2.772 c 0,-3.058 -1.87,-4.84 -4.84,-4.84 -2.97,0 -4.84,1.782 -4.84,4.84 v 2.772 c 0,3.036 1.892,4.84 4.84,4.84 z m 0,-1.914 c -1.65,0 -2.662,-0.946 -2.662,-2.728 v -3.168 c 0,-1.782 1.012,-2.728 2.662,-2.728 1.65,0 2.662,0.946 2.662,2.728 v 3.168 c 0,1.782 -1.012,2.728 -2.662,2.728 z m 8.976,1.738 h 2.178 v -7.634 c 0,-1.804 0.902,-2.794 2.552,-2.794 1.606,0 2.486,0.836 2.486,2.53 v 1.034 h 2.178 V 28.08 c 0,-2.794 -1.43,-4.4 -3.938,-4.4 -1.87,0 -3.036,0.968 -3.278,2.552 h -0.022 V 23.9 h -2.156 z"
         id="path337" />
    </g>
    <g
       id="text4"
       class="mono ink"
       style="font-weight:500;font-size:22px;font-family:'JetBrains Mono', 'SF Mono', Menlo, monospace;fill:#111111"
       aria-label="family: editorial">
      <path
         style="fill:#6b6b6b"
         d="M 4.642,72 H 6.82 v -8.47 h 4.884 V 61.55 H 6.82 v -2.42 c 0,-0.792 0.506,-1.232 1.342,-1.232 h 3.542 V 55.94 H 8.162 c -2.178,0 -3.52,1.21 -3.52,3.168 V 61.55 H 1.166 v 1.98 h 3.476 z m 14.036008,0.22 c 2.068,0 3.388,-0.924 3.608,-2.442 h 0.044 V 72 h 2.134 v -8.294 c 0,-2.552 -1.672,-4.026 -4.642,-4.026 -2.75,0 -4.488,1.43 -4.642,3.388 h 2.156 c 0.066,-0.968 1.012,-1.54 2.486,-1.54 1.65,0 2.464,0.726 2.464,2.222 v 0.924 h -3.542 c -2.464,0 -4.114,1.496 -4.114,3.762 0,2.266 1.54,3.784 4.048,3.784 z m 0.572,-1.826 c -1.518,0 -2.42,-0.792 -2.42,-2.068 0,-1.232 0.836,-2.046 2.112,-2.046 h 3.344 v 1.606 c 0,1.54 -1.188,2.508 -3.036,2.508 z M 27.654017,72 h 1.98 v -9.174 c 0,-0.946 0.484,-1.496 1.254,-1.496 0.77,0 1.232,0.572 1.232,1.496 V 72 h 1.76 v -9.174 c 0,-0.946 0.484,-1.496 1.232,-1.496 0.77,0 1.254,0.572 1.254,1.496 V 72 h 1.98 v -9.196 c 0,-1.848 -1.012,-3.124 -2.552,-3.124 -1.122,0 -1.892,0.682 -2.068,1.782 -0.308,-1.1 -1.078,-1.782 -2.156,-1.782 -1.1,0 -1.87,0.748 -2.002,1.87 h -0.066 V 59.9 h -1.848 z M 46.552025,57.766 c 0.99,0 1.628,-0.55 1.628,-1.43 0,-0.924 -0.638,-1.474 -1.628,-1.474 -1.012,0 -1.628,0.55 -1.628,1.474 0,0.88 0.616,1.43 1.628,1.43 z M 41.426025,72 h 10.406 v -1.98 h -3.982 V 59.9 h -5.984 v 1.98 h 3.806 v 8.14 h -4.246 z m 19.778009,0 h 3.74 v -1.98 h -3.674 c -0.924,0 -1.518,-0.616 -1.518,-1.584 V 55.94 h -6.314 v 1.98 h 4.136 v 10.538 c 0,2.134 1.43,3.542 3.63,3.542 z m 8.646012,3.96 h 2.266 l 6.006,-16.06 h -2.31 l -2.53,7.15 c -0.242,0.616 -0.462,1.386 -0.55,1.914 -0.088,-0.528 -0.352,-1.298 -0.594,-1.914 l -2.728,-7.15 h -2.31 l 4.51,11.374 z"
         id="path338" />
      <path
         d="m 85.80005,63.046 c 1.232,0 1.892,-0.66 1.892,-1.694 0,-1.012 -0.66,-1.672 -1.892,-1.672 -1.232,0 -1.892,0.66 -1.892,1.672 0,1.034 0.66,1.694 1.892,1.694 z m 0,9.174 c 1.232,0 1.892,-0.66 1.892,-1.672 0,-1.034 -0.66,-1.694 -1.892,-1.694 -1.232,0 -1.892,0.66 -1.892,1.694 0,1.012 0.66,1.672 1.892,1.672 z m 26.40002,0 c 2.574,0 4.444,-1.298 4.73,-3.344 h -2.178 c -0.176,0.924 -1.166,1.496 -2.552,1.496 -1.672,0 -2.706,-1.056 -2.706,-2.816 V 66.5 h 7.546 v -2.178 c 0,-2.794 -1.914,-4.642 -4.84,-4.642 -2.904,0 -4.84,1.848 -4.84,4.84 v 2.86 c 0,2.992 1.936,4.84 4.84,4.84 z m -2.706,-7.898 c 0,-1.848 0.968,-2.882 2.706,-2.882 1.738,0 2.706,1.034 2.706,2.882 v 0.572 h -5.412 z m 15.11401,7.898 c 1.804,0 3.036,-0.968 3.3,-2.574 V 72 h 2.156 V 55.94 h -2.178 v 3.476 l 0.044,2.816 c -0.264,-1.584 -1.54,-2.552 -3.322,-2.552 -2.442,0 -3.982,1.738 -3.982,4.532 v 3.476 c 0,2.794 1.562,4.532 3.982,4.532 z m 0.748,-1.892 c -1.606,0 -2.552,-0.792 -2.552,-2.662 v -3.432 c 0,-1.87 0.946,-2.662 2.552,-2.662 1.562,0 2.53,1.034 2.53,2.772 v 3.212 c 0,1.738 -0.968,2.772 -2.53,2.772 z m 13.59601,-12.562 c 0.99,0 1.628,-0.55 1.628,-1.43 0,-0.924 -0.638,-1.474 -1.628,-1.474 -1.012,0 -1.628,0.55 -1.628,1.474 0,0.88 0.616,1.43 1.628,1.43 z M 133.82609,72 h 10.406 v -1.98 h -3.982 V 59.9 h -5.984 v 1.98 h 3.806 v 8.14 h -4.246 z m 19.184,0 h 3.586 v -1.98 h -3.542 c -0.77,0 -1.254,-0.528 -1.254,-1.342 V 61.88 h 4.906 V 59.9 h -4.906 v -3.41 h -2.178 v 3.41 h -3.454 v 1.98 h 3.454 v 6.82 c 0,2.002 1.32,3.3 3.388,3.3 z m 11.99001,0.176 c 2.948,0 4.84,-1.804 4.84,-4.84 v -2.772 c 0,-3.058 -1.87,-4.84 -4.84,-4.84 -2.97,0 -4.84,1.782 -4.84,4.84 v 2.772 c 0,3.036 1.892,4.84 4.84,4.84 z m 0,-1.914 c -1.65,0 -2.662,-0.946 -2.662,-2.728 v -3.168 c 0,-1.782 1.012,-2.728 2.662,-2.728 1.65,0 2.662,0.946 2.662,2.728 v 3.168 c 0,1.782 -1.012,2.728 -2.662,2.728 z M 173.97611,72 h 2.178 v -7.634 c 0,-1.804 0.902,-2.794 2.552,-2.794 1.606,0 2.486,0.836 2.486,2.53 v 1.034 h 2.178 V 64.08 c 0,-2.794 -1.43,-4.4 -3.938,-4.4 -1.87,0 -3.036,0.968 -3.278,2.552 h -0.022 V 59.9 h -2.156 z m 17.776,-14.234 c 0.99,0 1.628,-0.55 1.628,-1.43 0,-0.924 -0.638,-1.474 -1.628,-1.474 -1.012,0 -1.628,0.55 -1.628,1.474 0,0.88 0.616,1.43 1.628,1.43 z M 186.62611,72 h 10.406 v -1.98 h -3.982 V 59.9 h -5.984 v 1.98 h 3.806 v 8.14 h -4.246 z m 16.85201,0.22 c 2.068,0 3.388,-0.924 3.608,-2.442 h 0.044 V 72 h 2.134 v -8.294 c 0,-2.552 -1.672,-4.026 -4.642,-4.026 -2.75,0 -4.488,1.43 -4.642,3.388 h 2.156 c 0.066,-0.968 1.012,-1.54 2.486,-1.54 1.65,0 2.464,0.726 2.464,2.222 v 0.924 h -3.542 c -2.464,0 -4.114,1.496 -4.114,3.762 0,2.266 1.54,3.784 4.048,3.784 z m 0.572,-1.826 c -1.518,0 -2.42,-0.792 -2.42,-2.068 0,-1.232 0.836,-2.046 2.112,-2.046 h 3.344 v 1.606 c 0,1.54 -1.188,2.508 -3.036,2.508 z M 219.60413,72 h 3.74 v -1.98 h -3.674 c -0.924,0 -1.518,-0.616 -1.518,-1.584 V 55.94 h -6.314 v 1.98 h 4.136 v 10.538 c 0,2.134 1.43,3.542 3.63,3.542 z"
         id="path339" />
    </g>
    <g
       id="text5"
       class="mono ink"
       style="font-weight:500;font-size:22px;font-family:'JetBrains Mono', 'SF Mono', Menlo, monospace;fill:#111111"
       aria-label="applies_to:">
      <path
         style="fill:#6b6b6b"
         d="m 5.478,108.22 c 2.068,0 3.388,-0.924 3.608,-2.442 H 9.13 V 108 h 2.134 v -8.294 c 0,-2.552 -1.672,-4.026 -4.642,-4.026 -2.75,0 -4.488,1.43 -4.642,3.388 h 2.156 c 0.066,-0.968 1.012,-1.54 2.486,-1.54 1.65,0 2.464,0.726 2.464,2.222 v 0.924 H 5.544 c -2.464,0 -4.114,1.496 -4.114,3.762 0,2.266 1.54,3.784 4.048,3.784 z m 0.572,-1.826 c -1.518,0 -2.42,-0.792 -2.42,-2.068 0,-1.232 0.836,-2.046 2.112,-2.046 h 3.344 v 1.606 c 0,1.54 -1.188,2.508 -3.036,2.508 z m 9.086008,5.566 h 2.178 v -3.498 l -0.044,-2.794 h 0.044 c 0.264,1.584 1.496,2.552 3.3,2.552 2.42,0 3.96,-1.76 3.96,-4.554 v -3.454 c 0,-2.794 -1.562,-4.532 -3.96,-4.532 -1.826,0 -3.058,0.968 -3.3,2.552 h -0.022 V 95.9 h -2.156 z m 4.708,-5.632 c -1.562,0 -2.53,-1.034 -2.53,-2.772 v -3.212 c 0,-1.738 0.968,-2.772 2.53,-2.772 1.606,0 2.552,0.792 2.552,2.662 v 3.432 c 0,1.87 -0.946,2.662 -2.552,2.662 z m 8.492009,5.632 h 2.178 v -3.498 l -0.044,-2.794 h 0.044 c 0.264,1.584 1.496,2.552 3.3,2.552 2.42,0 3.96,-1.76 3.96,-4.554 v -3.454 c 0,-2.794 -1.562,-4.532 -3.96,-4.532 -1.826,0 -3.058,0.968 -3.3,2.552 h -0.022 V 95.9 h -2.156 z m 4.708,-5.632 c -1.562,0 -2.53,-1.034 -2.53,-2.772 v -3.212 c 0,-1.738 0.968,-2.772 2.53,-2.772 1.606,0 2.552,0.792 2.552,2.662 v 3.432 c 0,1.87 -0.946,2.662 -2.552,2.662 z M 48.004025,108 h 3.74 v -1.98 h -3.674 c -0.924,0 -1.518,-0.616 -1.518,-1.584 V 91.94 h -6.314 v 1.98 h 4.136 v 10.538 c 0,2.134 1.43,3.542 3.63,3.542 z M 59.752034,93.766 c 0.99,0 1.628,-0.55 1.628,-1.43 0,-0.924 -0.638,-1.474 -1.628,-1.474 -1.012,0 -1.628,0.55 -1.628,1.474 0,0.88 0.616,1.43 1.628,1.43 z m -5.126,14.234 h 10.406 v -1.98 h -3.982 V 95.9 h -5.984 v 1.98 h 3.806 v 8.14 h -4.246 z m 17.974012,0.22 c 2.574,0 4.444,-1.298 4.73,-3.344 h -2.178 c -0.176,0.924 -1.166,1.496 -2.552,1.496 -1.672,0 -2.706,-1.056 -2.706,-2.816 V 102.5 h 7.546 v -2.178 c 0,-2.794 -1.914,-4.642 -4.84,-4.642 -2.904,0 -4.84,1.848 -4.84,4.84 v 2.86 c 0,2.992 1.936,4.84 4.84,4.84 z m -2.706,-7.898 c 0,-1.848 0.968,-2.882 2.706,-2.882 1.738,0 2.706,1.034 2.706,2.882 v 0.572 h -5.412 z m 15.422004,7.854 h 0.968 c 2.794,0 4.356,-1.298 4.356,-3.586 0,-2.134 -1.056,-3.366 -3.146,-3.652 l -3.058,-0.44 c -0.792,-0.11 -1.21,-0.55 -1.21,-1.364 0,-1.012 0.748,-1.628 2.068,-1.628 h 0.968 c 1.188,0 1.958,0.594 2.002,1.43 h 2.2 c -0.088,-1.914 -1.76,-3.212 -4.202,-3.212 h -0.968 c -2.64,0 -4.18,1.276 -4.18,3.432 0,1.87 0.968,3.058 2.706,3.322 l 3.256,0.462 c 0.99,0.132 1.452,0.66 1.452,1.65 0,1.122 -0.814,1.76 -2.244,1.76 h -0.968 c -1.386,0 -2.2,-0.616 -2.2,-1.694 h -2.156 c 0,2.244 1.606,3.52 4.356,3.52 z m 8.404005,2.244 h 10.559995 v -1.87 H 93.720055 Z M 113.41007,108 h 3.586 v -1.98 h -3.542 c -0.77,0 -1.254,-0.528 -1.254,-1.342 V 97.88 h 4.906 V 95.9 h -4.906 v -3.41 h -2.178 v 3.41 h -3.454 v 1.98 h 3.454 v 6.82 c 0,2.002 1.32,3.3 3.388,3.3 z m 11.99001,0.176 c 2.948,0 4.84,-1.804 4.84,-4.84 v -2.772 c 0,-3.058 -1.87,-4.84 -4.84,-4.84 -2.97,0 -4.84,1.782 -4.84,4.84 v 2.772 c 0,3.036 1.892,4.84 4.84,4.84 z m 0,-1.914 c -1.65,0 -2.662,-0.946 -2.662,-2.728 v -3.168 c 0,-1.782 1.012,-2.728 2.662,-2.728 1.65,0 2.662,0.946 2.662,2.728 v 3.168 c 0,1.782 -1.012,2.728 -2.662,2.728 z"
         id="path340" />
      <path
         d="m 138.60009,99.046 c 1.232,0 1.892,-0.66 1.892,-1.694 0,-1.012 -0.66,-1.672 -1.892,-1.672 -1.232,0 -1.892,0.66 -1.892,1.672 0,1.034 0.66,1.694 1.892,1.694 z m 0,9.174 c 1.232,0 1.892,-0.66 1.892,-1.672 0,-1.034 -0.66,-1.694 -1.892,-1.694 -1.232,0 -1.892,0.66 -1.892,1.694 0,1.012 0.66,1.672 1.892,1.672 z"
         id="path341" />
    </g>
    <path
       d="m 39.08,137.708 h 7.04 V 135.75 H 39.08 Z M 70.210017,144 h 3.586 v -1.98 h -3.542 c -0.77,0 -1.254,-0.528 -1.254,-1.342 v -6.798 h 4.906 v -1.98 h -4.906 v -3.41 h -2.178 v 3.41 h -3.454 v 1.98 h 3.454 v 6.82 c 0,2.002 1.32,3.3 3.388,3.3 z m 11.990008,0.176 c 2.948,0 4.84,-1.804 4.84,-4.84 v -2.772 c 0,-3.058 -1.87,-4.84 -4.84,-4.84 -2.97,0 -4.84,1.782 -4.84,4.84 v 2.772 c 0,3.036 1.892,4.84 4.84,4.84 z m 0,-1.914 c -1.65,0 -2.662,-0.946 -2.662,-2.728 v -3.168 c 0,-1.782 1.012,-2.728 2.662,-2.728 1.65,0 2.662,0.946 2.662,2.728 v 3.168 c 0,1.782 -1.012,2.728 -2.662,2.728 z M 90.846034,144 h 2.178 v -5.302 h 2.244 l 3.388,5.302 h 2.507996 l -4.003996,-6.314 3.805996,-5.786 h -2.463996 l -3.256,4.928 h -2.222 v -8.888 h -2.178 z m 17.754016,0.22 c 2.574,0 4.444,-1.298 4.73,-3.344 h -2.178 c -0.176,0.924 -1.166,1.496 -2.552,1.496 -1.672,0 -2.706,-1.056 -2.706,-2.816 V 138.5 h 7.546 v -2.178 c 0,-2.794 -1.914,-4.642 -4.84,-4.642 -2.904,0 -4.84,1.848 -4.84,4.84 v 2.86 c 0,2.992 1.936,4.84 4.84,4.84 z m -2.706,-7.898 c 0,-1.848 0.968,-2.882 2.706,-2.882 1.738,0 2.706,1.034 2.706,2.882 v 0.572 h -5.412 z m 11.242,7.678 h 2.178 v -7.678 c 0,-1.76 0.968,-2.794 2.552,-2.794 1.518,0 2.464,0.968 2.464,2.728 V 144 h 2.178 v -8.096 c 0,-2.596 -1.562,-4.224 -3.96,-4.224 -1.848,0 -3.036,0.924 -3.234,2.53 h -0.022 v -2.31 h -2.156 z m 12.584,2.42 h 10.56 v -1.87 h -10.56 z m 13.81602,1.54 h 2.178 v -3.498 l -0.044,-2.794 h 0.044 c 0.264,1.584 1.496,2.552 3.3,2.552 2.42,0 3.96,-1.76 3.96,-4.554 v -3.454 c 0,-2.794 -1.562,-4.532 -3.96,-4.532 -1.826,0 -3.058,0.968 -3.3,2.552 h -0.022 V 131.9 h -2.156 z m 4.708,-5.632 c -1.562,0 -2.53,-1.034 -2.53,-2.772 v -3.212 c 0,-1.738 0.968,-2.772 2.53,-2.772 1.606,0 2.552,0.792 2.552,2.662 v 3.432 c 0,1.87 -0.946,2.662 -2.552,2.662 z m 12.03401,1.892 c 2.068,0 3.388,-0.924 3.608,-2.442 h 0.044 V 144 h 2.134 v -8.294 c 0,-2.552 -1.672,-4.026 -4.642,-4.026 -2.75,0 -4.488,1.43 -4.642,3.388 h 2.156 c 0.066,-0.968 1.012,-1.54 2.486,-1.54 1.65,0 2.464,0.726 2.464,2.222 v 0.924 h -3.542 c -2.464,0 -4.114,1.496 -4.114,3.762 0,2.266 1.54,3.784 4.048,3.784 z m 0.572,-1.826 c -1.518,0 -2.42,-0.792 -2.42,-2.068 0,-1.232 0.836,-2.046 2.112,-2.046 h 3.344 v 1.606 c 0,1.54 -1.188,2.508 -3.036,2.508 z m 13.92601,1.826 c 2.86,0 4.73,-1.628 4.818,-4.224 h -2.156 c -0.088,1.452 -1.1,2.288 -2.662,2.288 -1.672,0 -2.728,-0.968 -2.728,-2.728 v -3.234 c 0,-1.738 1.056,-2.728 2.728,-2.728 1.562,0 2.574,0.858 2.662,2.31 h 2.156 c -0.088,-2.596 -1.958,-4.224 -4.818,-4.224 -2.97,0 -4.906,1.76 -4.906,4.642 v 3.234 c 0,2.904 1.936,4.664 4.906,4.664 z m 8.47,-0.22 h 2.178 v -5.302 h 2.244 l 3.388,5.302 h 2.508 l -4.004,-6.314 3.806,-5.786 h -2.464 l -3.256,4.928 h -2.222 v -8.888 h -2.178 z m 17.75401,-8.954 c 1.232,0 1.892,-0.66 1.892,-1.694 0,-1.012 -0.66,-1.672 -1.892,-1.672 -1.232,0 -1.892,0.66 -1.892,1.672 0,1.034 0.66,1.694 1.892,1.694 z m 0,9.174 c 1.232,0 1.892,-0.66 1.892,-1.672 0,-1.034 -0.66,-1.694 -1.892,-1.694 -1.232,0 -1.892,0.66 -1.892,1.694 0,1.012 0.66,1.672 1.892,1.672 z m 25.43201,-5.016 h 1.936 l 0.286,-11.264 h -2.508 z m 0.638,4.906 h 0.66 c 0.814,0 1.364,-0.572 1.364,-1.364 0,-0.792 -0.506,-1.342 -1.364,-1.342 h -0.66 c -0.792,0 -1.364,0.55 -1.364,1.342 0,0.814 0.572,1.364 1.364,1.364 z m 12.73801,0.11 c 1.804,0 3.036,-0.968 3.3,-2.574 V 144 h 2.156 v -16.06 h -2.178 v 3.476 l 0.044,2.816 c -0.264,-1.584 -1.54,-2.552 -3.322,-2.552 -2.442,0 -3.982,1.738 -3.982,4.532 v 3.476 c 0,2.794 1.562,4.532 3.982,4.532 z m 0.748,-1.892 c -1.606,0 -2.552,-0.792 -2.552,-2.662 v -3.432 c 0,-1.87 0.946,-2.662 2.552,-2.662 1.562,0 2.53,1.034 2.53,2.772 v 3.212 c 0,1.738 -0.968,2.772 -2.53,2.772 z m 13.24401,1.892 c 2.574,0 4.444,-1.298 4.73,-3.344 h -2.178 c -0.176,0.924 -1.166,1.496 -2.552,1.496 -1.672,0 -2.706,-1.056 -2.706,-2.816 V 138.5 h 7.546 v -2.178 c 0,-2.794 -1.914,-4.642 -4.84,-4.642 -2.904,0 -4.84,1.848 -4.84,4.84 v 2.86 c 0,2.992 1.936,4.84 4.84,4.84 z m -2.706,-7.898 c 0,-1.848 0.968,-2.882 2.706,-2.882 1.738,0 2.706,1.034 2.706,2.882 v 0.572 h -5.412 z M 265.04215,144 h 2.178 v -8.47 h 4.884 v -1.98 h -4.884 v -2.42 c 0,-0.792 0.506,-1.232 1.342,-1.232 h 3.542 v -1.958 h -3.542 c -2.178,0 -3.52,1.21 -3.52,3.168 v 2.442 h -3.476 v 1.98 h 3.476 z m 14.03601,0.22 c 2.068,0 3.388,-0.924 3.608,-2.442 h 0.044 V 144 h 2.134 v -8.294 c 0,-2.552 -1.672,-4.026 -4.642,-4.026 -2.75,0 -4.488,1.43 -4.642,3.388 h 2.156 c 0.066,-0.968 1.012,-1.54 2.486,-1.54 1.65,0 2.464,0.726 2.464,2.222 v 0.924 h -3.542 c -2.464,0 -4.114,1.496 -4.114,3.762 0,2.266 1.54,3.784 4.048,3.784 z m 0.572,-1.826 c -1.518,0 -2.42,-0.792 -2.42,-2.068 0,-1.232 0.836,-2.046 2.112,-2.046 h 3.344 v 1.606 c 0,1.54 -1.188,2.508 -3.036,2.508 z m 13.728,1.826 c 2.86,0 4.73,-1.782 4.73,-4.664 V 131.9 h -2.178 v 7.656 c 0,1.694 -0.99,2.75 -2.552,2.75 -1.54,0 -2.508,-1.056 -2.508,-2.75 V 131.9 h -2.178 v 7.656 c 0,2.86 1.826,4.664 4.686,4.664 z M 308.40418,144 h 3.74 v -1.98 h -3.674 c -0.924,0 -1.518,-0.616 -1.518,-1.584 V 127.94 h -6.314 v 1.98 h 4.136 v 10.538 c 0,2.134 1.43,3.542 3.63,3.542 z m 12.60598,0 h 3.586 v -1.98 h -3.542 c -0.77,0 -1.254,-0.528 -1.254,-1.342 v -6.798 h 4.906 v -1.98 h -4.906 v -3.41 h -2.178 v 3.41 h -3.454 v 1.98 h 3.454 v 6.82 c 0,2.002 1.32,3.3 3.388,3.3 z"
       id="text6"
       class="mono ink"
       style="font-weight:500;font-size:22px;font-family:'JetBrains Mono', 'SF Mono', Menlo, monospace;fill:#111111"
       aria-label="- token_pack: !default" />
    <g
       id="text7"
       class="mono ink"
       style="font-weight:500;font-size:22px;font-family:'JetBrains Mono', 'SF Mono', Menlo, monospace;fill:#111111"
       aria-label="reason: &gt;">
      <path
         style="fill:#6b6b6b"
         d="m 2.376,180 h 2.178 v -7.634 c 0,-1.804 0.902,-2.794 2.552,-2.794 1.606,0 2.486,0.836 2.486,2.53 v 1.034 h 2.178 v -1.056 c 0,-2.794 -1.43,-4.4 -3.938,-4.4 -1.87,0 -3.036,0.968 -3.278,2.552 H 4.532 V 167.9 H 2.376 Z m 17.424008,0.22 c 2.574,0 4.444,-1.298 4.73,-3.344 h -2.178 c -0.176,0.924 -1.166,1.496 -2.552,1.496 -1.672,0 -2.706,-1.056 -2.706,-2.816 V 174.5 h 7.546 v -2.178 c 0,-2.794 -1.914,-4.642 -4.84,-4.642 -2.904,0 -4.84,1.848 -4.84,4.84 v 2.86 c 0,2.992 1.936,4.84 4.84,4.84 z m -2.706,-7.898 c 0,-1.848 0.968,-2.882 2.706,-2.882 1.738,0 2.706,1.034 2.706,2.882 v 0.572 h -5.412 z m 14.784009,7.898 c 2.068,0 3.388,-0.924 3.608,-2.442 h 0.044 V 180 h 2.134 v -8.294 c 0,-2.552 -1.672,-4.026 -4.642,-4.026 -2.75,0 -4.488,1.43 -4.642,3.388 h 2.156 c 0.066,-0.968 1.012,-1.54 2.486,-1.54 1.65,0 2.464,0.726 2.464,2.222 v 0.924 h -3.542 c -2.464,0 -4.114,1.496 -4.114,3.762 0,2.266 1.54,3.784 4.048,3.784 z m 0.572,-1.826 c -1.518,0 -2.42,-0.792 -2.42,-2.068 0,-1.232 0.836,-2.046 2.112,-2.046 h 3.344 v 1.606 c 0,1.54 -1.188,2.508 -3.036,2.508 z m 13.266008,1.782 h 0.968 c 2.794,0 4.356,-1.298 4.356,-3.586 0,-2.134 -1.056,-3.366 -3.146,-3.652 l -3.058,-0.44 c -0.792,-0.11 -1.21,-0.55 -1.21,-1.364 0,-1.012 0.748,-1.628 2.068,-1.628 h 0.968 c 1.188,0 1.958,0.594 2.002,1.43 h 2.2 c -0.088,-1.914 -1.76,-3.212 -4.202,-3.212 h -0.968 c -2.64,0 -4.18,1.276 -4.18,3.432 0,1.87 0.968,3.058 2.706,3.322 l 3.256,0.462 c 0.99,0.132 1.452,0.66 1.452,1.65 0,1.122 -0.814,1.76 -2.244,1.76 h -0.968 c -1.386,0 -2.2,-0.616 -2.2,-1.694 h -2.156 c 0,2.244 1.606,3.52 4.356,3.52 z m 13.684009,0 c 2.948,0 4.84,-1.804 4.84,-4.84 v -2.772 c 0,-3.058 -1.87,-4.84 -4.84,-4.84 -2.97,0 -4.84,1.782 -4.84,4.84 v 2.772 c 0,3.036 1.892,4.84 4.84,4.84 z m 0,-1.914 c -1.65,0 -2.662,-0.946 -2.662,-2.728 v -3.168 c 0,-1.782 1.012,-2.728 2.662,-2.728 1.65,0 2.662,0.946 2.662,2.728 v 3.168 c 0,1.782 -1.012,2.728 -2.662,2.728 z M 67.936046,180 h 2.178 v -7.678 c 0,-1.76 0.968,-2.794 2.552,-2.794 1.518,0 2.464,0.968 2.464,2.728 V 180 h 2.178 v -8.096 c 0,-2.596 -1.562,-4.224 -3.96,-4.224 -1.848,0 -3.036,0.924 -3.234,2.53 h -0.022 v -2.31 h -2.156 z"
         id="path342" />
      <path
         d="m 85.80005,171.046 c 1.232,0 1.892,-0.66 1.892,-1.694 0,-1.012 -0.66,-1.672 -1.892,-1.672 -1.232,0 -1.892,0.66 -1.892,1.672 0,1.034 0.66,1.694 1.892,1.694 z m 0,9.174 c 1.232,0 1.892,-0.66 1.892,-1.672 0,-1.034 -0.66,-1.694 -1.892,-1.694 -1.232,0 -1.892,0.66 -1.892,1.694 0,1.012 0.66,1.672 1.892,1.672 z m 21.62602,-1.606 9.548,-4.708 v -2.332 l -9.548,-4.708 V 169 l 6.71,3.256 c 0.506,0.242 1.078,0.462 1.364,0.528 -0.264,0.066 -0.814,0.264 -1.364,0.528 l -6.71,3.234 z"
         id="path343" />
    </g>
    <path
       d="m 37.936,219.96 h 2.178 v -3.498 l -0.044,-2.794 h 0.044 c 0.264,1.584 1.496,2.552 3.3,2.552 2.42,0 3.96,-1.76 3.96,-4.554 v -3.454 c 0,-2.794 -1.562,-4.532 -3.96,-4.532 -1.826,0 -3.058,0.968 -3.3,2.552 H 40.092 V 203.9 h -2.156 z m 4.708,-5.632 c -1.562,0 -2.53,-1.034 -2.53,-2.772 v -3.212 c 0,-1.738 0.968,-2.772 2.53,-2.772 1.606,0 2.552,0.792 2.552,2.662 v 3.432 c 0,1.87 -0.946,2.662 -2.552,2.662 z m 13.134008,1.892 c 2.86,0 4.73,-1.782 4.73,-4.664 V 203.9 h -2.178 v 7.656 c 0,1.694 -0.99,2.75 -2.552,2.75 -1.54,0 -2.508,-1.056 -2.508,-2.75 V 203.9 h -2.178 v 7.656 c 0,2.86 1.826,4.664 4.686,4.664 z M 64.776017,216 h 2.178 v -7.634 c 0,-1.804 0.902,-2.794 2.552,-2.794 1.606,0 2.486,0.836 2.486,2.53 v 1.034 h 2.178 v -1.056 c 0,-2.794 -1.43,-4.4 -3.938,-4.4 -1.87,0 -3.036,0.968 -3.278,2.552 h -0.022 V 203.9 h -2.156 z m 12.760008,3.96 h 2.178 v -3.498 l -0.044,-2.794 h 0.044 c 0.264,1.584 1.496,2.552 3.3,2.552 2.42,0 3.96,-1.76 3.96,-4.554 v -3.454 c 0,-2.794 -1.562,-4.532 -3.96,-4.532 -1.826,0 -3.058,0.968 -3.3,2.552 h -0.022 V 203.9 h -2.156 z m 4.708,-5.632 c -1.562,0 -2.53,-1.034 -2.53,-2.772 v -3.212 c 0,-1.738 0.968,-2.772 2.53,-2.772 1.606,0 2.552,0.792 2.552,2.662 v 3.432 c 0,1.87 -0.946,2.662 -2.552,2.662 z M 97.204034,216 h 3.739996 v -1.98 h -3.673996 c -0.924,0 -1.518,-0.616 -1.518,-1.584 V 199.94 h -6.314 v 1.98 h 4.136 v 10.538 c 0,2.134 1.43,3.542 3.63,3.542 z m 11.396016,0.22 c 2.574,0 4.444,-1.298 4.73,-3.344 h -2.178 c -0.176,0.924 -1.166,1.496 -2.552,1.496 -1.672,0 -2.706,-1.056 -2.706,-2.816 V 210.5 h 7.546 v -2.178 c 0,-2.794 -1.914,-4.642 -4.84,-4.642 -2.904,0 -4.84,1.848 -4.84,4.84 v 2.86 c 0,2.992 1.936,4.84 4.84,4.84 z m -2.706,-7.898 c 0,-1.848 0.968,-2.882 2.706,-2.882 1.738,0 2.706,1.034 2.706,2.882 v 0.572 h -5.412 z m 26.004,11.638 h 3.41 c 2.662,0 4.334,-1.54 4.334,-4.004 V 203.9 h -2.134 v 2.09 h -0.022 c -0.308,-1.452 -1.496,-2.31 -3.212,-2.31 -2.486,0 -4.026,1.76 -4.026,4.532 v 2.486 c 0,2.794 1.54,4.488 4.026,4.488 1.738,0 2.948,-0.858 3.234,-2.354 h 0.022 l -0.044,2.09 v 1.012 c 0,1.298 -0.836,2.09 -2.178,2.09 h -3.41 z m 3.058,-6.6 c -1.606,0 -2.53,-0.99 -2.53,-2.574 v -2.64 c 0,-1.584 0.924,-2.574 2.53,-2.574 1.562,0 2.53,1.012 2.53,2.75 v 2.266 c 0,1.738 -0.968,2.772 -2.53,2.772 z m 9.02002,2.64 h 2.178 v -7.634 c 0,-1.804 0.902,-2.794 2.552,-2.794 1.606,0 2.486,0.836 2.486,2.53 v 1.034 h 2.178 v -1.056 c 0,-2.794 -1.43,-4.4 -3.938,-4.4 -1.87,0 -3.036,0.968 -3.278,2.552 h -0.022 V 203.9 h -2.156 z m 16.30201,0.22 c 2.068,0 3.388,-0.924 3.608,-2.442 h 0.044 V 216 h 2.134 v -8.294 c 0,-2.552 -1.672,-4.026 -4.642,-4.026 -2.75,0 -4.488,1.43 -4.642,3.388 h 2.156 c 0.066,-0.968 1.012,-1.54 2.486,-1.54 1.65,0 2.464,0.726 2.464,2.222 v 0.924 h -3.542 c -2.464,0 -4.114,1.496 -4.114,3.762 0,2.266 1.54,3.784 4.048,3.784 z m 0.572,-1.826 c -1.518,0 -2.42,-0.792 -2.42,-2.068 0,-1.232 0.836,-2.046 2.112,-2.046 h 3.344 v 1.606 c 0,1.54 -1.188,2.508 -3.036,2.508 z m 12.95801,1.826 c 1.804,0 3.036,-0.968 3.3,-2.574 V 216 h 2.156 v -16.06 h -2.178 v 3.476 l 0.044,2.816 c -0.264,-1.584 -1.54,-2.552 -3.322,-2.552 -2.442,0 -3.982,1.738 -3.982,4.532 v 3.476 c 0,2.794 1.562,4.532 3.982,4.532 z m 0.748,-1.892 c -1.606,0 -2.552,-0.792 -2.552,-2.662 v -3.432 c 0,-1.87 0.946,-2.662 2.552,-2.662 1.562,0 2.53,1.034 2.53,2.772 v 3.212 c 0,1.738 -0.968,2.772 -2.53,2.772 z m 13.596,-12.562 c 0.99,0 1.628,-0.55 1.628,-1.43 0,-0.924 -0.638,-1.474 -1.628,-1.474 -1.012,0 -1.628,0.55 -1.628,1.474 0,0.88 0.616,1.43 1.628,1.43 z m -5.126,14.234 h 10.406 v -1.98 h -3.982 V 203.9 h -5.984 v 1.98 h 3.806 v 8.14 h -4.246 z m 17.97401,0.22 c 2.574,0 4.444,-1.298 4.73,-3.344 h -2.178 c -0.176,0.924 -1.166,1.496 -2.552,1.496 -1.672,0 -2.706,-1.056 -2.706,-2.816 V 210.5 h 7.546 v -2.178 c 0,-2.794 -1.914,-4.642 -4.84,-4.642 -2.904,0 -4.84,1.848 -4.84,4.84 v 2.86 c 0,2.992 1.936,4.84 4.84,4.84 z m -2.706,-7.898 c 0,-1.848 0.968,-2.882 2.706,-2.882 1.738,0 2.706,1.034 2.706,2.882 v 0.572 h -5.412 z M 209.53611,216 h 2.178 v -7.678 c 0,-1.76 0.968,-2.794 2.552,-2.794 1.518,0 2.464,0.968 2.464,2.728 V 216 h 2.178 v -8.096 c 0,-2.596 -1.562,-4.224 -3.96,-4.224 -1.848,0 -3.036,0.924 -3.234,2.53 h -0.022 v -2.31 h -2.156 z m 19.074,0 h 3.586 v -1.98 h -3.542 c -0.77,0 -1.254,-0.528 -1.254,-1.342 v -6.798 h 4.906 v -1.98 h -4.906 v -3.41 h -2.178 v 3.41 h -3.454 v 1.98 h 3.454 v 6.82 c 0,2.002 1.32,3.3 3.388,3.3 z m 25.36602,0.22 c 2.926,0 4.818,-1.804 4.818,-4.664 h -2.178 c 0,1.76 -0.99,2.728 -2.64,2.728 -1.672,0 -2.662,-0.968 -2.662,-2.728 v -7.194 c 0,-1.738 0.99,-2.706 2.662,-2.706 1.65,0 2.64,0.968 2.64,2.706 h 2.178 c 0,-2.838 -1.892,-4.642 -4.818,-4.642 -2.97,0 -4.84,1.76 -4.84,4.642 v 7.194 c 0,2.904 1.87,4.664 4.84,4.664 z M 265.92215,216 h 2.178 v -14.08 h 4.334 v -1.98 h -10.868 v 1.98 h 4.356 z m 8.69001,0 h 2.222 l 1.012,-4.18 h 4.708 l 1.012,4.18 h 2.222 l -4.136,-16.06 h -2.882 z m 3.652,-5.984 1.188,-4.818 c 0.418,-1.738 0.682,-3.036 0.748,-3.476 0.066,0.44 0.33,1.738 0.748,3.498 l 1.166,4.796 z m 14.652,6.16 h 0.968 c 2.794,0 4.356,-1.298 4.356,-3.586 0,-2.134 -1.056,-3.366 -3.146,-3.652 l -3.058,-0.44 c -0.792,-0.11 -1.21,-0.55 -1.21,-1.364 0,-1.012 0.748,-1.628 2.068,-1.628 h 0.968 c 1.188,0 1.958,0.594 2.002,1.43 h 2.2 c -0.088,-1.914 -1.76,-3.212 -4.202,-3.212 h -0.968 c -2.64,0 -4.18,1.276 -4.18,3.432 0,1.87 0.968,3.058 2.706,3.322 l 3.256,0.462 c 0.99,0.132 1.452,0.66 1.452,1.65 0,1.122 -0.814,1.76 -2.244,1.76 h -0.968 c -1.386,0 -2.2,-0.616 -2.2,-1.694 h -2.156 c 0,2.244 1.606,3.52 4.356,3.52 z"
       id="text8"
       class="mono ink"
       style="font-weight:500;font-size:22px;font-family:'JetBrains Mono', 'SF Mono', Menlo, monospace;fill:#111111"
       aria-label="purple gradient CTAs" />
    <path
       d="m 41.478,246.22 c 2.068,0 3.388,-0.924 3.608,-2.442 H 45.13 V 246 h 2.134 v -8.294 c 0,-2.552 -1.672,-4.026 -4.642,-4.026 -2.75,0 -4.488,1.43 -4.642,3.388 h 2.156 c 0.066,-0.968 1.012,-1.54 2.486,-1.54 1.65,0 2.464,0.726 2.464,2.222 v 0.924 h -3.542 c -2.464,0 -4.114,1.496 -4.114,3.762 0,2.266 1.54,3.784 4.048,3.784 z m 0.572,-1.826 c -1.518,0 -2.42,-0.792 -2.42,-2.068 0,-1.232 0.836,-2.046 2.112,-2.046 h 3.344 v 1.606 c 0,1.54 -1.188,2.508 -3.036,2.508 z M 51.576008,246 h 2.178 v -7.634 c 0,-1.804 0.902,-2.794 2.552,-2.794 1.606,0 2.486,0.836 2.486,2.53 v 1.034 h 2.178 v -1.056 c 0,-2.794 -1.43,-4.4 -3.938,-4.4 -1.87,0 -3.036,0.968 -3.278,2.552 h -0.022 V 233.9 h -2.156 z m 17.424009,0.22 c 2.574,0 4.444,-1.298 4.73,-3.344 h -2.178 c -0.176,0.924 -1.166,1.496 -2.552,1.496 -1.672,0 -2.706,-1.056 -2.706,-2.816 V 240.5 h 7.546 v -2.178 c 0,-2.794 -1.914,-4.642 -4.84,-4.642 -2.904,0 -4.84,1.848 -4.84,4.84 v 2.86 c 0,2.992 1.936,4.84 4.84,4.84 z m -2.706,-7.898 c 0,-1.848 0.968,-2.882 2.706,-2.882 1.738,0 2.706,1.034 2.706,2.882 v 0.572 h -5.412 z M 96.610034,246 h 3.585996 v -1.98 h -3.541996 c -0.77,0 -1.254,-0.528 -1.254,-1.342 v -6.798 h 4.905996 v -1.98 h -4.905996 v -3.41 h -2.178 v 3.41 h -3.454 v 1.98 h 3.454 v 6.82 c 0,2.002 1.32,3.3 3.388,3.3 z m 7.326016,0 h 2.178 v -7.678 c 0,-1.76 0.968,-2.794 2.552,-2.794 1.518,0 2.464,0.968 2.464,2.706 V 246 h 2.178 v -8.096 c 0,-2.596 -1.562,-4.224 -3.96,-4.224 -1.848,0 -3.036,0.924 -3.234,2.53 h -0.022 l 0.022,-2.31 v -3.96 h -2.178 z m 17.864,0.22 c 2.574,0 4.444,-1.298 4.73,-3.344 h -2.178 c -0.176,0.924 -1.166,1.496 -2.552,1.496 -1.672,0 -2.706,-1.056 -2.706,-2.816 V 240.5 h 7.546 v -2.178 c 0,-2.794 -1.914,-4.642 -4.84,-4.642 -2.904,0 -4.84,1.848 -4.84,4.84 v 2.86 c 0,2.992 1.936,4.84 4.84,4.84 z m -2.706,-7.898 c 0,-1.848 0.968,-2.882 2.706,-2.882 1.738,0 2.706,1.034 2.706,2.882 v 0.572 h -5.412 z M 142.61207,246 h 2.222 l 1.012,-4.18 h 4.708 l 1.012,4.18 h 2.222 l -4.136,-16.06 h -2.882 z m 3.652,-5.984 1.188,-4.818 c 0.418,-1.738 0.682,-3.036 0.748,-3.476 0.066,0.44 0.33,1.738 0.748,3.498 l 1.166,4.796 z M 157.02208,246 h 8.756 v -1.98 h -3.278 v -12.1 h 3.278 v -1.98 h -8.756 v 1.98 h 3.278 v 12.1 h -3.278 z m 14.05801,-6.292 h 7.04 v -1.958 h -7.04 z m 15.928,6.512 c 1.804,0 3.036,-0.968 3.3,-2.574 V 246 h 2.156 v -16.06 h -2.178 v 3.476 l 0.044,2.816 c -0.264,-1.584 -1.54,-2.552 -3.322,-2.552 -2.442,0 -3.982,1.738 -3.982,4.532 v 3.476 c 0,2.794 1.562,4.532 3.982,4.532 z m 0.748,-1.892 c -1.606,0 -2.552,-0.792 -2.552,-2.662 v -3.432 c 0,-1.87 0.946,-2.662 2.552,-2.662 1.562,0 2.53,1.034 2.53,2.772 v 3.212 c 0,1.738 -0.968,2.772 -2.53,2.772 z m 13.24401,1.892 c 2.574,0 4.444,-1.298 4.73,-3.344 h -2.178 c -0.176,0.924 -1.166,1.496 -2.552,1.496 -1.672,0 -2.706,-1.056 -2.706,-2.816 V 240.5 h 7.546 v -2.178 c 0,-2.794 -1.914,-4.642 -4.84,-4.642 -2.904,0 -4.84,1.848 -4.84,4.84 v 2.86 c 0,2.992 1.936,4.84 4.84,4.84 z m -2.706,-7.898 c 0,-1.848 0.968,-2.882 2.706,-2.882 1.738,0 2.706,1.034 2.706,2.882 v 0.572 h -5.412 z m 15.42201,7.854 h 0.968 c 2.794,0 4.356,-1.298 4.356,-3.586 0,-2.134 -1.056,-3.366 -3.146,-3.652 l -3.058,-0.44 c -0.792,-0.11 -1.21,-0.55 -1.21,-1.364 0,-1.012 0.748,-1.628 2.068,-1.628 h 0.968 c 1.188,0 1.958,0.594 2.002,1.43 h 2.2 c -0.088,-1.914 -1.76,-3.212 -4.202,-3.212 h -0.968 c -2.64,0 -4.18,1.276 -4.18,3.432 0,1.87 0.968,3.058 2.706,3.322 l 3.256,0.462 c 0.99,0.132 1.452,0.66 1.452,1.65 0,1.122 -0.814,1.76 -2.244,1.76 h -0.968 c -1.386,0 -2.2,-0.616 -2.2,-1.694 h -2.156 c 0,2.244 1.606,3.52 4.356,3.52 z m 14.036,-14.41 c 0.99,0 1.628,-0.55 1.628,-1.43 0,-0.924 -0.638,-1.474 -1.628,-1.474 -1.012,0 -1.628,0.55 -1.628,1.474 0,0.88 0.616,1.43 1.628,1.43 z m -5.126,14.234 h 10.406 v -1.98 h -3.982 V 233.9 h -5.984 v 1.98 h 3.806 v 8.14 h -4.246 z m 14.87201,3.96 h 3.41 c 2.662,0 4.334,-1.54 4.334,-4.004 V 233.9 h -2.134 v 2.09 h -0.022 c -0.308,-1.452 -1.496,-2.31 -3.212,-2.31 -2.486,0 -4.026,1.76 -4.026,4.532 v 2.486 c 0,2.794 1.54,4.488 4.026,4.488 1.738,0 2.948,-0.858 3.234,-2.354 h 0.022 l -0.044,2.09 v 1.012 c 0,1.298 -0.836,2.09 -2.178,2.09 h -3.41 z m 3.058,-6.6 c -1.606,0 -2.53,-0.99 -2.53,-2.574 v -2.64 c 0,-1.584 0.924,-2.574 2.53,-2.574 1.562,0 2.53,1.012 2.53,2.75 v 2.266 c 0,1.738 -0.968,2.772 -2.53,2.772 z m 8.58001,2.64 h 2.178 v -7.678 c 0,-1.76 0.968,-2.794 2.552,-2.794 1.518,0 2.464,0.968 2.464,2.728 V 246 h 2.178 v -8.096 c 0,-2.596 -1.562,-4.224 -3.96,-4.224 -1.848,0 -3.036,0.924 -3.234,2.53 h -0.022 v -2.31 h -2.156 z m 32.27403,0 h 3.586 v -1.98 h -3.542 c -0.77,0 -1.254,-0.528 -1.254,-1.342 v -6.798 h 4.906 v -1.98 h -4.906 v -3.41 h -2.178 v 3.41 h -3.454 v 1.98 h 3.454 v 6.82 c 0,2.002 1.32,3.3 3.388,3.3 z m 11.99,0.22 c 2.574,0 4.444,-1.298 4.73,-3.344 h -2.178 c -0.176,0.924 -1.166,1.496 -2.552,1.496 -1.672,0 -2.706,-1.056 -2.706,-2.816 V 240.5 h 7.546 v -2.178 c 0,-2.794 -1.914,-4.642 -4.84,-4.642 -2.904,0 -4.84,1.848 -4.84,4.84 v 2.86 c 0,2.992 1.936,4.84 4.84,4.84 z m -2.706,-7.898 c 0,-1.848 0.968,-2.882 2.706,-2.882 1.738,0 2.706,1.034 2.706,2.882 v 0.572 h -5.412 z M 308.40418,246 h 3.74 v -1.98 h -3.674 c -0.924,0 -1.518,-0.616 -1.518,-1.584 V 229.94 h -6.314 v 1.98 h 4.136 v 10.538 c 0,2.134 1.43,3.542 3.63,3.542 z m 13.19998,0 h 3.74 v -1.98 h -3.674 c -0.924,0 -1.518,-0.616 -1.518,-1.584 V 229.94 h -6.314 v 1.98 h 4.136 v 10.538 c 0,2.134 1.43,3.542 3.63,3.542 z m 11.39602,0.22 c 1.122,0 1.87,-0.726 1.87,-1.804 0,-1.122 -0.748,-1.892 -1.87,-1.892 -1.122,0 -1.87,0.77 -1.87,1.892 0,1.078 0.748,1.804 1.87,1.804 z"
       id="text9"
       class="mono ink"
       style="font-weight:500;font-size:22px;font-family:'JetBrains Mono', 'SF Mono', Menlo, monospace;fill:#111111"
       aria-label="are the AI-design tell." />
  </g>
  <!-- Footer divider -->
  <line
     x1="52"
     y1="446"
     x2="548"
     y2="446"
     stroke="#111"
     stroke-width="1"
     id="line9" />
  <!-- Wordmark + subtitle (bottom-left, baseline-aligned with QR center) -->
  <path
     d="m 53.4375,540 15.09375,-46.5625 h 17.25 L 101.4375,540 H 87.125 l -2.6875,-8.9375 H 70.125 L 67.5625,540 Z m 19.375,-18.375 h 8.8125 q -1.28125,-4.25 -2.4375,-8.75 -1.125,-4.53125 -2.15625,-9.09375 -0.96875,4.5625 -2,9.09375 -1,4.5 -2.21875,8.75 z M 103.315,540 v -46.5625 h 12.625 v 17.6875 h 16.75 v -17.6875 h 12.625 V 540 H 132.69 V 521.3125 H 115.94 V 540 Z m 63.3775,0 H 148.755 v -46.5625 h 17.75 q 7.1875,0 12.40625,2.8125 5.21875,2.78125 8.0625,8 2.84375,5.21875 2.84375,12.5 0,7.25 -2.84375,12.46875 -2.8125,5.21875 -8,8 Q 173.78625,540 166.6925,540 Z M 161.38,529.25 h 4.8125 q 3.46875,0 5.90625,-1.09375 2.46875,-1.09375 3.75,-3.8125 1.28125,-2.75 1.28125,-7.59375 0,-4.875 -1.3125,-7.59375 -1.3125,-2.75 -3.84375,-3.84375 -2.5,-1.125 -6.15625,-1.125 H 161.38 Z"
     id="text10"
     class="ink mark"
     style="font-weight:900;font-size:64px;font-family:Inter, 'Helvetica Neue', sans-serif;letter-spacing:-0.04em;fill:#111111"
     aria-label="AHD" />
  <path
     d="m 52.330078,566 3.434082,-9.45801 h 1.396485 L 60.63916,566 h -1.269531 l -0.945801,-2.64063 H 54.526367 L 53.612305,566 Z m 2.564453,-3.69434 h 3.154785 l -0.685546,-1.91699 q -0.171387,-0.47607 -0.387208,-1.16162 -0.21582,-0.69189 -0.520507,-1.72021 -0.29834,1.04736 -0.520508,1.7456 -0.222168,0.69824 -0.374512,1.13623 z M 64.312168,566 v -7.09668 h 1.104492 v 1.0918 h 0.07617 q 0.196778,-0.53955 0.698242,-0.86328 0.507813,-0.33008 1.142578,-0.33008 0.126954,0 0.29834,0.006 0.177735,0.006 0.279297,0.0127 v 1.14893 q -0.05078,-0.0127 -0.253906,-0.0381 -0.203125,-0.0254 -0.431641,-0.0254 -0.768066,0 -1.269531,0.46973 -0.501465,0.46338 -0.501465,1.18066 V 566 Z m 10.230137,-7.09668 v 0.97754 h -1.459961 v 4.27832 q 0,0.47607 0.19043,0.69824 0.196777,0.21582 0.647461,0.21582 0.10791,0 0.272949,-0.0254 0.171387,-0.0254 0.311035,-0.0508 l 0.234863,0.96484 q -0.177734,0.0635 -0.40625,0.0952 -0.222168,0.0317 -0.444336,0.0317 -0.92041,0 -1.43457,-0.48242 -0.51416,-0.48877 -0.51416,-1.3584 v -4.36719 H 70.87336 v -0.97754 h 1.066406 v -1.68848 h 1.142578 v 1.68848 z M 78.342266,566 v -7.09668 h 1.142578 V 566 Z m 0.577637,-8.2583 q -0.323731,0 -0.558594,-0.22217 -0.234863,-0.22217 -0.234863,-0.5332 0,-0.31738 0.234863,-0.53321 0.234863,-0.22216 0.558594,-0.22216 0.330078,0 0.564941,0.22216 0.234863,0.21583 0.234863,0.53321 0,0.31103 -0.234863,0.5332 -0.234863,0.22217 -0.564941,0.22217 z m 8.211582,1.16162 v 0.97754 H 85.49379 V 566 h -1.142578 v -6.11914 h -1.396485 v -0.97754 h 1.396485 v -0.9458 q 0,-0.61572 0.285644,-1.02832 0.291992,-0.4126 0.755371,-0.62207 0.463379,-0.20947 0.977539,-0.20947 0.40625,0 0.672852,0.0698 0.266601,0.0635 0.393554,0.12061 l -0.317382,0.97753 q -0.08887,-0.0317 -0.234864,-0.0698 -0.139648,-0.0381 -0.380859,-0.0381 -0.526855,0 -0.768066,0.27295 -0.241211,0.26661 -0.241211,0.78077 v 0.69189 z M 90.982227,566 v -7.09668 h 1.142578 V 566 Z m 0.577637,-8.2583 q -0.32373,0 -0.558594,-0.22217 -0.234863,-0.22217 -0.234863,-0.5332 0,-0.31738 0.234863,-0.53321 0.234864,-0.22216 0.558594,-0.22216 0.330078,0 0.564941,0.22216 0.234864,0.21583 0.234864,0.53321 0,0.31103 -0.234864,0.5332 -0.234863,0.22217 -0.564941,0.22217 z m 7.798985,8.41064 q -0.964844,0 -1.694825,-0.45703 -0.723632,-0.45703 -1.129882,-1.28222 -0.40625,-0.8252 -0.40625,-1.917 0,-1.11084 0.40625,-1.93603 0.40625,-0.83154 1.129882,-1.28858 0.729981,-0.45703 1.694825,-0.45703 1.028321,0 1.802731,0.52051 0.78076,0.51416 1.07276,1.44092 l -1.09815,0.31103 q -0.15869,-0.54589 -0.62207,-0.89502 -0.45703,-0.35546 -1.155271,-0.35546 -0.710938,0 -1.167969,0.37451 -0.457031,0.36816 -0.679199,0.97119 -0.222168,0.60303 -0.222168,1.31396 0,0.69825 0.222168,1.30127 0.222168,0.59668 0.679199,0.96485 0.457031,0.36816 1.167969,0.36816 0.717281,0 1.180661,-0.36182 0.46973,-0.36816 0.62842,-0.9458 l 1.0918,0.31104 q -0.28565,0.9458 -1.07276,1.48535 -0.78711,0.5332 -1.828121,0.5332 z M 106.23742,566 v -7.09668 H 107.38 V 566 Z m 0.57764,-8.2583 q -0.32373,0 -0.55859,-0.22217 -0.23487,-0.22217 -0.23487,-0.5332 0,-0.31738 0.23487,-0.53321 0.23486,-0.22216 0.55859,-0.22216 0.33008,0 0.56494,0.22216 0.23486,0.21583 0.23486,0.53321 0,0.31103 -0.23486,0.5332 -0.23486,0.22217 -0.56494,0.22217 z m 6.89762,8.42334 q -0.67285,0 -1.2251,-0.25391 -0.5459,-0.2539 -0.86963,-0.74267 -0.32373,-0.48877 -0.32373,-1.18701 0,-0.60938 0.24121,-0.99024 0.24121,-0.38086 0.64111,-0.59668 0.40625,-0.22217 0.89502,-0.33008 0.48877,-0.10791 0.98389,-0.17138 0.63477,-0.0825 1.03467,-0.12696 0.3999,-0.0444 0.59033,-0.15234 0.19678,-0.10791 0.19678,-0.36816 v -0.0381 q 0,-0.66016 -0.37451,-1.02197 -0.37452,-0.36817 -1.11084,-0.36817 -0.76807,0 -1.19971,0.33643 -0.43164,0.33008 -0.59668,0.70459 l -1.09815,-0.36182 q 0.27295,-0.64746 0.73633,-1.00928 0.46338,-0.36816 1.02198,-0.5205 0.55859,-0.15235 1.10449,-0.15235 0.35547,0 0.80615,0.0889 0.45703,0.0825 0.87598,0.33643 0.42529,0.2539 0.69824,0.75537 0.2793,0.49511 0.2793,1.32666 V 566 h -1.12354 v -0.96484 h -0.0762 q -0.12061,0.24755 -0.38721,0.51416 -0.2666,0.26025 -0.69189,0.43798 -0.4253,0.17774 -1.02832,0.17774 z m 0.19677,-1.00928 q 0.63477,0 1.07276,-0.24756 0.43799,-0.24756 0.6665,-0.64111 0.22852,-0.3999 0.22852,-0.83154 v -0.98389 q -0.0698,0.0825 -0.30469,0.15234 -0.23486,0.0635 -0.53955,0.11426 -0.29834,0.0508 -0.58398,0.0889 -0.2793,0.0317 -0.44434,0.0508 -0.4126,0.0508 -0.77441,0.17773 -0.35547,0.12061 -0.57129,0.36182 -0.21582,0.23486 -0.21582,0.64111 0,0.55225 0.41259,0.83789 0.41895,0.2793 1.05371,0.2793 z m 8.59879,-8.61377 V 566 h -1.14258 v -9.45801 z M 132.99001,566 v -9.45801 h 1.20605 v 4.08789 h 4.96387 v -4.08789 h 1.20605 V 566 h -1.20605 v -4.30371 h -4.96387 V 566 Z m 14.26724,0.0889 q -1.07276,0 -1.73926,-0.66651 -0.6665,-0.6665 -0.6665,-2.0122 v -4.50684 h 1.14257 v 4.41162 q 0,0.81885 0.43164,1.28223 0.43165,0.46338 1.17432,0.46338 0.76172,0 1.26953,-0.49512 0.51416,-0.50147 0.51416,-1.40918 v -4.25293 h 1.14893 V 566 h -1.10449 v -1.32666 q -0.34912,0.77441 -0.91407,1.09814 -0.55859,0.31739 -1.25683,0.31739 z M 154.87849,566 v -7.09668 h 1.11084 l 0.006,1.30127 q 0.26026,-0.71729 0.80615,-1.07275 0.55225,-0.35547 1.18067,-0.35547 0.69824,0 1.15527,0.3999 0.46338,0.39355 0.65381,1.04736 0.25391,-0.67285 0.85693,-1.06006 0.60938,-0.3872 1.37745,-0.3872 0.61572,0 1.12353,0.2666 0.50781,0.2666 0.80615,0.80615 0.30469,0.53955 0.30469,1.36475 V 566 h -1.14258 v -4.75439 q 0,-0.76807 -0.43164,-1.09815 -0.43164,-0.33008 -1.00293,-0.33008 -0.71728,0 -1.12988,0.43799 -0.4126,0.43799 -0.4126,1.11084 V 566 h -1.14258 v -4.86865 q 0,-0.59033 -0.39355,-0.95215 -0.39356,-0.36182 -0.99658,-0.36182 -0.62207,0 -1.1045,0.43164 -0.48242,0.43164 -0.48242,1.28223 V 566 Z m 15.71452,0.16504 q -0.67285,0 -1.2251,-0.25391 -0.5459,-0.2539 -0.86963,-0.74267 -0.32373,-0.48877 -0.32373,-1.18701 0,-0.60938 0.24121,-0.99024 0.24121,-0.38086 0.64112,-0.59668 0.40625,-0.22217 0.89502,-0.33008 0.48877,-0.10791 0.98388,-0.17138 0.63477,-0.0825 1.03467,-0.12696 0.3999,-0.0444 0.59033,-0.15234 0.19678,-0.10791 0.19678,-0.36816 v -0.0381 q 0,-0.66016 -0.37451,-1.02197 -0.37451,-0.36817 -1.11084,-0.36817 -0.76807,0 -1.19971,0.33643 -0.43164,0.33008 -0.59668,0.70459 l -1.09814,-0.36182 q 0.27295,-0.64746 0.73633,-1.00928 0.46337,-0.36816 1.02197,-0.5205 0.55859,-0.15235 1.10449,-0.15235 0.35547,0 0.80615,0.0889 0.45703,0.0825 0.87598,0.33643 0.42529,0.2539 0.69824,0.75537 0.2793,0.49511 0.2793,1.32666 V 566 h -1.12354 v -0.96484 h -0.0762 q -0.1206,0.24755 -0.38721,0.51416 -0.2666,0.26025 -0.69189,0.43798 -0.42529,0.17774 -1.02832,0.17774 z m 0.19678,-1.00928 q 0.63476,0 1.07275,-0.24756 0.43799,-0.24756 0.66651,-0.64111 0.22851,-0.3999 0.22851,-0.83154 v -0.98389 q -0.0698,0.0825 -0.30469,0.15234 -0.23486,0.0635 -0.53955,0.11426 -0.29834,0.0508 -0.58398,0.0889 -0.2793,0.0317 -0.44434,0.0508 -0.4126,0.0508 -0.77441,0.17773 -0.35547,0.12061 -0.57129,0.36182 -0.21582,0.23486 -0.21582,0.64111 0,0.55225 0.4126,0.83789 0.41894,0.2793 1.05371,0.2793 z m 8.59879,-3.40869 V 566 H 178.246 v -7.09668 h 1.09815 l 0.006,1.31397 q 0.34278,-0.75538 0.89502,-1.07911 0.5586,-0.32373 1.27588,-0.32373 1.0791,0 1.73926,0.66651 0.66016,0.6665 0.66016,2.0122 V 566 h -1.14258 v -4.41162 q 0,-0.81885 -0.43164,-1.28223 -0.42529,-0.46338 -1.16797,-0.46338 -0.76807,0 -1.28223,0.50147 -0.50781,0.49512 -0.50781,1.40283 z M 197.35422,566 h -2.95166 v -9.45801 h 3.07226 q 1.38379,0 2.36133,0.56494 0.98389,0.56494 1.5044,1.625 0.52685,1.05371 0.52685,2.52002 0,1.47901 -0.52685,2.54541 -0.52686,1.06006 -1.53614,1.63135 Q 198.79514,566 197.35422,566 Z m -1.74561,-1.06641 h 1.66944 q 1.72656,0 2.5708,-0.97754 0.85058,-0.98388 0.85058,-2.7041 0,-1.70752 -0.83154,-2.67236 -0.83154,-0.97119 -2.47559,-0.97119 h -1.78369 z m 13.35953,1.21875 q -1.02832,0 -1.77734,-0.45703 -0.74268,-0.45703 -1.14893,-1.27588 -0.3999,-0.81884 -0.3999,-1.91064 0,-1.0918 0.39355,-1.92334 0.39356,-0.83154 1.11084,-1.30127 0.72364,-0.46973 1.68848,-0.46973 0.56494,0 1.11084,0.19043 0.55224,0.18408 0.99658,0.60303 0.45068,0.4126 0.71729,1.0918 0.2666,0.6792 0.2666,1.66308 v 0.47608 h -5.12891 q 0.0444,1.11084 0.63477,1.70752 0.59668,0.59033 1.54248,0.59033 0.62842,0 1.0791,-0.27295 0.45703,-0.2793 0.65381,-0.81885 l 1.10449,0.30469 q -0.24756,0.80615 -1.00293,1.30762 -0.74902,0.49511 -1.84082,0.49511 z m -2.16455,-4.27832 h 3.96094 q -0.0825,-0.90771 -0.57129,-1.47265 -0.48242,-0.57129 -1.3584,-0.57129 -0.60938,0 -1.05371,0.28564 -0.43799,0.28565 -0.6919,0.74903 -0.2539,0.46337 -0.28564,1.00927 z m 11.51237,4.27832 q -1.09179,0 -1.81543,-0.47607 -0.72363,-0.47607 -0.91406,-1.39648 l 1.08545,-0.26026 q 0.15234,0.58399 0.57129,0.85693 0.42529,0.27295 1.06006,0.27295 0.74267,0 1.18066,-0.31738 0.44434,-0.31738 0.44434,-0.75537 0,-0.72998 -1.04102,-0.97754 l -1.18066,-0.2793 q -1.9043,-0.45068 -1.9043,-1.93603 0,-0.60938 0.34278,-1.07275 0.34277,-0.46973 0.9331,-0.72999 0.59668,-0.2666 1.35205,-0.2666 1.09815,0 1.70117,0.48242 0.60938,0.47608 0.85059,1.2251 l -1.03467,0.2666 q -0.14599,-0.38086 -0.48877,-0.69189 -0.33642,-0.31104 -1.02197,-0.31104 -0.63477,0 -1.06006,0.292 -0.41894,0.29199 -0.41894,0.73632 0,0.39356 0.28564,0.63477 0.28564,0.23486 0.90771,0.38086 l 1.07276,0.25391 q 0.96484,0.22851 1.42822,0.71093 0.46338,0.47608 0.46338,1.20606 0,0.62207 -0.35547,1.11084 -0.34912,0.48242 -0.98389,0.76172 -0.62841,0.27929 -1.45996,0.27929 z M 225.10567,566 v -7.09668 h 1.14258 V 566 Z m 0.57763,-8.2583 q -0.32373,0 -0.55859,-0.22217 -0.23486,-0.22217 -0.23486,-0.5332 0,-0.31738 0.23486,-0.53321 0.23486,-0.22216 0.55859,-0.22216 0.33008,0 0.56495,0.22216 0.23486,0.21583 0.23486,0.53321 0,0.31103 -0.23486,0.5332 -0.23487,0.22217 -0.56495,0.22217 z m 7.78629,11.06396 q -1.18066,0 -1.88525,-0.43164 -0.70459,-0.43164 -1.03467,-1.01562 l 0.92676,-0.59668 q 0.15234,0.20312 0.37451,0.45068 0.22851,0.24756 0.60937,0.41895 0.38721,0.17773 1.00928,0.17773 0.85059,0 1.39648,-0.40625 0.55225,-0.40625 0.55225,-1.28222 v -1.42188 h -0.10791 q -0.12061,0.20313 -0.34277,0.48242 -0.21582,0.2793 -0.62842,0.49512 -0.40625,0.20947 -1.0918,0.20947 -0.85058,0 -1.52978,-0.3999 -0.6792,-0.40625 -1.07276,-1.18066 -0.39355,-0.77442 -0.39355,-1.88526 0,-1.09814 0.3872,-1.9043 0.38721,-0.8125 1.06641,-1.25683 0.68555,-0.44434 1.56787,-0.44434 0.68555,0 1.0918,0.22852 0.4126,0.22217 0.63476,0.51416 0.22217,0.29199 0.34278,0.48242 h 0.10791 v -1.13623 h 1.11084 v 7.28076 q 0,0.91406 -0.4126,1.4917 -0.4126,0.58399 -1.11719,0.85693 -0.69824,0.27295 -1.56152,0.27295 z m -0.0317,-3.93554 q 0.96484,0 1.479,-0.65381 0.51417,-0.66016 0.51417,-1.82178 0,-1.12988 -0.50782,-1.84082 -0.50146,-0.71728 -1.48535,-0.71728 -0.67285,0 -1.12353,0.34912 -0.45069,0.34277 -0.6792,0.92041 -0.22217,0.57763 -0.22217,1.28857 0,1.0918 0.51416,1.78369 0.51416,0.6919 1.51074,0.6919 z m 8.6115,-3.12305 V 566 h -1.14258 v -7.09668 h 1.09814 l 0.006,1.31397 q 0.34277,-0.75538 0.89502,-1.07911 0.55859,-0.32373 1.27588,-0.32373 1.0791,0 1.73926,0.66651 0.66015,0.6665 0.66015,2.0122 V 566 H 245.439 v -4.41162 q 0,-0.81885 -0.43165,-1.28223 -0.42529,-0.46338 -1.16796,-0.46338 -0.76807,0 -1.28223,0.50147 -0.50781,0.49512 -0.50781,1.40283 z"
     id="text11"
     class="ink sub"
     style="font-size:13px;font-family:Inter, 'Helvetica Neue', sans-serif;letter-spacing:0.18em;text-transform:uppercase;fill:#111111"
     aria-label="Artificial Human Design" />
  <!-- QR (bottom-right). 4.0x scale -> 100px -> ~13mm at 3in print. -->
  <g
     transform="translate(442, 470) scale(4.0)"
     id="g334">
    <rect
       x="0"
       y="0"
       width="1"
       height="1"
       fill="#000000"
       id="rect11" />
    <rect
       x="1"
       y="0"
       width="1"
       height="1"
       fill="#000000"
       id="rect12" />
    <rect
       x="2"
       y="0"
       width="1"
       height="1"
       fill="#000000"
       id="rect13" />
    <rect
       x="3"
       y="0"
       width="1"
       height="1"
       fill="#000000"
       id="rect14" />
    <rect
       x="4"
       y="0"
       width="1"
       height="1"
       fill="#000000"
       id="rect15" />
    <rect
       x="5"
       y="0"
       width="1"
       height="1"
       fill="#000000"
       id="rect16" />
    <rect
       x="6"
       y="0"
       width="1"
       height="1"
       fill="#000000"
       id="rect17" />
    <rect
       x="8"
       y="0"
       width="1"
       height="1"
       fill="#000000"
       id="rect18" />
    <rect
       x="9"
       y="0"
       width="1"
       height="1"
       fill="#000000"
       id="rect19" />
    <rect
       x="10"
       y="0"
       width="1"
       height="1"
       fill="#000000"
       id="rect20" />
    <rect
       x="11"
       y="0"
       width="1"
       height="1"
       fill="#000000"
       id="rect21" />
    <rect
       x="13"
       y="0"
       width="1"
       height="1"
       fill="#000000"
       id="rect22" />
    <rect
       x="18"
       y="0"
       width="1"
       height="1"
       fill="#000000"
       id="rect23" />
    <rect
       x="19"
       y="0"
       width="1"
       height="1"
       fill="#000000"
       id="rect24" />
    <rect
       x="20"
       y="0"
       width="1"
       height="1"
       fill="#000000"
       id="rect25" />
    <rect
       x="21"
       y="0"
       width="1"
       height="1"
       fill="#000000"
       id="rect26" />
    <rect
       x="22"
       y="0"
       width="1"
       height="1"
       fill="#000000"
       id="rect27" />
    <rect
       x="23"
       y="0"
       width="1"
       height="1"
       fill="#000000"
       id="rect28" />
    <rect
       x="24"
       y="0"
       width="1"
       height="1"
       fill="#000000"
       id="rect29" />
    <rect
       x="0"
       y="1"
       width="1"
       height="1"
       fill="#000000"
       id="rect30" />
    <rect
       x="6"
       y="1"
       width="1"
       height="1"
       fill="#000000"
       id="rect31" />
    <rect
       x="8"
       y="1"
       width="1"
       height="1"
       fill="#000000"
       id="rect32" />
    <rect
       x="11"
       y="1"
       width="1"
       height="1"
       fill="#000000"
       id="rect33" />
    <rect
       x="13"
       y="1"
       width="1"
       height="1"
       fill="#000000"
       id="rect34" />
    <rect
       x="18"
       y="1"
       width="1"
       height="1"
       fill="#000000"
       id="rect35" />
    <rect
       x="24"
       y="1"
       width="1"
       height="1"
       fill="#000000"
       id="rect36" />
    <rect
       x="0"
       y="2"
       width="1"
       height="1"
       fill="#000000"
       id="rect37" />
    <rect
       x="2"
       y="2"
       width="1"
       height="1"
       fill="#000000"
       id="rect38" />
    <rect
       x="3"
       y="2"
       width="1"
       height="1"
       fill="#000000"
       id="rect39" />
    <rect
       x="4"
       y="2"
       width="1"
       height="1"
       fill="#000000"
       id="rect40" />
    <rect
       x="6"
       y="2"
       width="1"
       height="1"
       fill="#000000"
       id="rect41" />
    <rect
       x="9"
       y="2"
       width="1"
       height="1"
       fill="#000000"
       id="rect42" />
    <rect
       x="13"
       y="2"
       width="1"
       height="1"
       fill="#000000"
       id="rect43" />
    <rect
       x="14"
       y="2"
       width="1"
       height="1"
       fill="#000000"
       id="rect44" />
    <rect
       x="15"
       y="2"
       width="1"
       height="1"
       fill="#000000"
       id="rect45" />
    <rect
       x="18"
       y="2"
       width="1"
       height="1"
       fill="#000000"
       id="rect46" />
    <rect
       x="20"
       y="2"
       width="1"
       height="1"
       fill="#000000"
       id="rect47" />
    <rect
       x="21"
       y="2"
       width="1"
       height="1"
       fill="#000000"
       id="rect48" />
    <rect
       x="22"
       y="2"
       width="1"
       height="1"
       fill="#000000"
       id="rect49" />
    <rect
       x="24"
       y="2"
       width="1"
       height="1"
       fill="#000000"
       id="rect50" />
    <rect
       x="0"
       y="3"
       width="1"
       height="1"
       fill="#000000"
       id="rect51" />
    <rect
       x="2"
       y="3"
       width="1"
       height="1"
       fill="#000000"
       id="rect52" />
    <rect
       x="3"
       y="3"
       width="1"
       height="1"
       fill="#000000"
       id="rect53" />
    <rect
       x="4"
       y="3"
       width="1"
       height="1"
       fill="#000000"
       id="rect54" />
    <rect
       x="6"
       y="3"
       width="1"
       height="1"
       fill="#000000"
       id="rect55" />
    <rect
       x="11"
       y="3"
       width="1"
       height="1"
       fill="#000000"
       id="rect56" />
    <rect
       x="13"
       y="3"
       width="1"
       height="1"
       fill="#000000"
       id="rect57" />
    <rect
       x="14"
       y="3"
       width="1"
       height="1"
       fill="#000000"
       id="rect58" />
    <rect
       x="16"
       y="3"
       width="1"
       height="1"
       fill="#000000"
       id="rect59" />
    <rect
       x="18"
       y="3"
       width="1"
       height="1"
       fill="#000000"
       id="rect60" />
    <rect
       x="20"
       y="3"
       width="1"
       height="1"
       fill="#000000"
       id="rect61" />
    <rect
       x="21"
       y="3"
       width="1"
       height="1"
       fill="#000000"
       id="rect62" />
    <rect
       x="22"
       y="3"
       width="1"
       height="1"
       fill="#000000"
       id="rect63" />
    <rect
       x="24"
       y="3"
       width="1"
       height="1"
       fill="#000000"
       id="rect64" />
    <rect
       x="0"
       y="4"
       width="1"
       height="1"
       fill="#000000"
       id="rect65" />
    <rect
       x="2"
       y="4"
       width="1"
       height="1"
       fill="#000000"
       id="rect66" />
    <rect
       x="3"
       y="4"
       width="1"
       height="1"
       fill="#000000"
       id="rect67" />
    <rect
       x="4"
       y="4"
       width="1"
       height="1"
       fill="#000000"
       id="rect68" />
    <rect
       x="6"
       y="4"
       width="1"
       height="1"
       fill="#000000"
       id="rect69" />
    <rect
       x="8"
       y="4"
       width="1"
       height="1"
       fill="#000000"
       id="rect70" />
    <rect
       x="11"
       y="4"
       width="1"
       height="1"
       fill="#000000"
       id="rect71" />
    <rect
       x="12"
       y="4"
       width="1"
       height="1"
       fill="#000000"
       id="rect72" />
    <rect
       x="13"
       y="4"
       width="1"
       height="1"
       fill="#000000"
       id="rect73" />
    <rect
       x="14"
       y="4"
       width="1"
       height="1"
       fill="#000000"
       id="rect74" />
    <rect
       x="18"
       y="4"
       width="1"
       height="1"
       fill="#000000"
       id="rect75" />
    <rect
       x="20"
       y="4"
       width="1"
       height="1"
       fill="#000000"
       id="rect76" />
    <rect
       x="21"
       y="4"
       width="1"
       height="1"
       fill="#000000"
       id="rect77" />
    <rect
       x="22"
       y="4"
       width="1"
       height="1"
       fill="#000000"
       id="rect78" />
    <rect
       x="24"
       y="4"
       width="1"
       height="1"
       fill="#000000"
       id="rect79" />
    <rect
       x="0"
       y="5"
       width="1"
       height="1"
       fill="#000000"
       id="rect80" />
    <rect
       x="6"
       y="5"
       width="1"
       height="1"
       fill="#000000"
       id="rect81" />
    <rect
       x="8"
       y="5"
       width="1"
       height="1"
       fill="#000000"
       id="rect82" />
    <rect
       x="9"
       y="5"
       width="1"
       height="1"
       fill="#000000"
       id="rect83" />
    <rect
       x="10"
       y="5"
       width="1"
       height="1"
       fill="#000000"
       id="rect84" />
    <rect
       x="16"
       y="5"
       width="1"
       height="1"
       fill="#000000"
       id="rect85" />
    <rect
       x="18"
       y="5"
       width="1"
       height="1"
       fill="#000000"
       id="rect86" />
    <rect
       x="24"
       y="5"
       width="1"
       height="1"
       fill="#000000"
       id="rect87" />
    <rect
       x="0"
       y="6"
       width="1"
       height="1"
       fill="#000000"
       id="rect88" />
    <rect
       x="1"
       y="6"
       width="1"
       height="1"
       fill="#000000"
       id="rect89" />
    <rect
       x="2"
       y="6"
       width="1"
       height="1"
       fill="#000000"
       id="rect90" />
    <rect
       x="3"
       y="6"
       width="1"
       height="1"
       fill="#000000"
       id="rect91" />
    <rect
       x="4"
       y="6"
       width="1"
       height="1"
       fill="#000000"
       id="rect92" />
    <rect
       x="5"
       y="6"
       width="1"
       height="1"
       fill="#000000"
       id="rect93" />
    <rect
       x="6"
       y="6"
       width="1"
       height="1"
       fill="#000000"
       id="rect94" />
    <rect
       x="8"
       y="6"
       width="1"
       height="1"
       fill="#000000"
       id="rect95" />
    <rect
       x="10"
       y="6"
       width="1"
       height="1"
       fill="#000000"
       id="rect96" />
    <rect
       x="12"
       y="6"
       width="1"
       height="1"
       fill="#000000"
       id="rect97" />
    <rect
       x="14"
       y="6"
       width="1"
       height="1"
       fill="#000000"
       id="rect98" />
    <rect
       x="16"
       y="6"
       width="1"
       height="1"
       fill="#000000"
       id="rect99" />
    <rect
       x="18"
       y="6"
       width="1"
       height="1"
       fill="#000000"
       id="rect100" />
    <rect
       x="19"
       y="6"
       width="1"
       height="1"
       fill="#000000"
       id="rect101" />
    <rect
       x="20"
       y="6"
       width="1"
       height="1"
       fill="#000000"
       id="rect102" />
    <rect
       x="21"
       y="6"
       width="1"
       height="1"
       fill="#000000"
       id="rect103" />
    <rect
       x="22"
       y="6"
       width="1"
       height="1"
       fill="#000000"
       id="rect104" />
    <rect
       x="23"
       y="6"
       width="1"
       height="1"
       fill="#000000"
       id="rect105" />
    <rect
       x="24"
       y="6"
       width="1"
       height="1"
       fill="#000000"
       id="rect106" />
    <rect
       x="8"
       y="7"
       width="1"
       height="1"
       fill="#000000"
       id="rect107" />
    <rect
       x="9"
       y="7"
       width="1"
       height="1"
       fill="#000000"
       id="rect108" />
    <rect
       x="11"
       y="7"
       width="1"
       height="1"
       fill="#000000"
       id="rect109" />
    <rect
       x="14"
       y="7"
       width="1"
       height="1"
       fill="#000000"
       id="rect110" />
    <rect
       x="15"
       y="7"
       width="1"
       height="1"
       fill="#000000"
       id="rect111" />
    <rect
       x="0"
       y="8"
       width="1"
       height="1"
       fill="#000000"
       id="rect112" />
    <rect
       x="1"
       y="8"
       width="1"
       height="1"
       fill="#000000"
       id="rect113" />
    <rect
       x="2"
       y="8"
       width="1"
       height="1"
       fill="#000000"
       id="rect114" />
    <rect
       x="5"
       y="8"
       width="1"
       height="1"
       fill="#000000"
       id="rect115" />
    <rect
       x="6"
       y="8"
       width="1"
       height="1"
       fill="#000000"
       id="rect116" />
    <rect
       x="8"
       y="8"
       width="1"
       height="1"
       fill="#000000"
       id="rect117" />
    <rect
       x="9"
       y="8"
       width="1"
       height="1"
       fill="#000000"
       id="rect118" />
    <rect
       x="11"
       y="8"
       width="1"
       height="1"
       fill="#000000"
       id="rect119" />
    <rect
       x="14"
       y="8"
       width="1"
       height="1"
       fill="#000000"
       id="rect120" />
    <rect
       x="15"
       y="8"
       width="1"
       height="1"
       fill="#000000"
       id="rect121" />
    <rect
       x="17"
       y="8"
       width="1"
       height="1"
       fill="#000000"
       id="rect122" />
    <rect
       x="18"
       y="8"
       width="1"
       height="1"
       fill="#000000"
       id="rect123" />
    <rect
       x="19"
       y="8"
       width="1"
       height="1"
       fill="#000000"
       id="rect124" />
    <rect
       x="20"
       y="8"
       width="1"
       height="1"
       fill="#000000"
       id="rect125" />
    <rect
       x="23"
       y="8"
       width="1"
       height="1"
       fill="#000000"
       id="rect126" />
    <rect
       x="24"
       y="8"
       width="1"
       height="1"
       fill="#000000"
       id="rect127" />
    <rect
       x="0"
       y="9"
       width="1"
       height="1"
       fill="#000000"
       id="rect128" />
    <rect
       x="1"
       y="9"
       width="1"
       height="1"
       fill="#000000"
       id="rect129" />
    <rect
       x="4"
       y="9"
       width="1"
       height="1"
       fill="#000000"
       id="rect130" />
    <rect
       x="5"
       y="9"
       width="1"
       height="1"
       fill="#000000"
       id="rect131" />
    <rect
       x="7"
       y="9"
       width="1"
       height="1"
       fill="#000000"
       id="rect132" />
    <rect
       x="11"
       y="9"
       width="1"
       height="1"
       fill="#000000"
       id="rect133" />
    <rect
       x="12"
       y="9"
       width="1"
       height="1"
       fill="#000000"
       id="rect134" />
    <rect
       x="13"
       y="9"
       width="1"
       height="1"
       fill="#000000"
       id="rect135" />
    <rect
       x="15"
       y="9"
       width="1"
       height="1"
       fill="#000000"
       id="rect136" />
    <rect
       x="16"
       y="9"
       width="1"
       height="1"
       fill="#000000"
       id="rect137" />
    <rect
       x="18"
       y="9"
       width="1"
       height="1"
       fill="#000000"
       id="rect138" />
    <rect
       x="19"
       y="9"
       width="1"
       height="1"
       fill="#000000"
       id="rect139" />
    <rect
       x="21"
       y="9"
       width="1"
       height="1"
       fill="#000000"
       id="rect140" />
    <rect
       x="23"
       y="9"
       width="1"
       height="1"
       fill="#000000"
       id="rect141" />
    <rect
       x="24"
       y="9"
       width="1"
       height="1"
       fill="#000000"
       id="rect142" />
    <rect
       x="0"
       y="10"
       width="1"
       height="1"
       fill="#000000"
       id="rect143" />
    <rect
       x="2"
       y="10"
       width="1"
       height="1"
       fill="#000000"
       id="rect144" />
    <rect
       x="5"
       y="10"
       width="1"
       height="1"
       fill="#000000"
       id="rect145" />
    <rect
       x="6"
       y="10"
       width="1"
       height="1"
       fill="#000000"
       id="rect146" />
    <rect
       x="8"
       y="10"
       width="1"
       height="1"
       fill="#000000"
       id="rect147" />
    <rect
       x="9"
       y="10"
       width="1"
       height="1"
       fill="#000000"
       id="rect148" />
    <rect
       x="10"
       y="10"
       width="1"
       height="1"
       fill="#000000"
       id="rect149" />
    <rect
       x="11"
       y="10"
       width="1"
       height="1"
       fill="#000000"
       id="rect150" />
    <rect
       x="15"
       y="10"
       width="1"
       height="1"
       fill="#000000"
       id="rect151" />
    <rect
       x="17"
       y="10"
       width="1"
       height="1"
       fill="#000000"
       id="rect152" />
    <rect
       x="20"
       y="10"
       width="1"
       height="1"
       fill="#000000"
       id="rect153" />
    <rect
       x="21"
       y="10"
       width="1"
       height="1"
       fill="#000000"
       id="rect154" />
    <rect
       x="22"
       y="10"
       width="1"
       height="1"
       fill="#000000"
       id="rect155" />
    <rect
       x="24"
       y="10"
       width="1"
       height="1"
       fill="#000000"
       id="rect156" />
    <rect
       x="0"
       y="11"
       width="1"
       height="1"
       fill="#000000"
       id="rect157" />
    <rect
       x="1"
       y="11"
       width="1"
       height="1"
       fill="#000000"
       id="rect158" />
    <rect
       x="3"
       y="11"
       width="1"
       height="1"
       fill="#000000"
       id="rect159" />
    <rect
       x="5"
       y="11"
       width="1"
       height="1"
       fill="#000000"
       id="rect160" />
    <rect
       x="7"
       y="11"
       width="1"
       height="1"
       fill="#000000"
       id="rect161" />
    <rect
       x="8"
       y="11"
       width="1"
       height="1"
       fill="#000000"
       id="rect162" />
    <rect
       x="10"
       y="11"
       width="1"
       height="1"
       fill="#000000"
       id="rect163" />
    <rect
       x="12"
       y="11"
       width="1"
       height="1"
       fill="#000000"
       id="rect164" />
    <rect
       x="21"
       y="11"
       width="1"
       height="1"
       fill="#000000"
       id="rect165" />
    <rect
       x="1"
       y="12"
       width="1"
       height="1"
       fill="#000000"
       id="rect166" />
    <rect
       x="6"
       y="12"
       width="1"
       height="1"
       fill="#000000"
       id="rect167" />
    <rect
       x="7"
       y="12"
       width="1"
       height="1"
       fill="#000000"
       id="rect168" />
    <rect
       x="8"
       y="12"
       width="1"
       height="1"
       fill="#000000"
       id="rect169" />
    <rect
       x="9"
       y="12"
       width="1"
       height="1"
       fill="#000000"
       id="rect170" />
    <rect
       x="10"
       y="12"
       width="1"
       height="1"
       fill="#000000"
       id="rect171" />
    <rect
       x="11"
       y="12"
       width="1"
       height="1"
       fill="#000000"
       id="rect172" />
    <rect
       x="12"
       y="12"
       width="1"
       height="1"
       fill="#000000"
       id="rect173" />
    <rect
       x="15"
       y="12"
       width="1"
       height="1"
       fill="#000000"
       id="rect174" />
    <rect
       x="16"
       y="12"
       width="1"
       height="1"
       fill="#000000"
       id="rect175" />
    <rect
       x="18"
       y="12"
       width="1"
       height="1"
       fill="#000000"
       id="rect176" />
    <rect
       x="19"
       y="12"
       width="1"
       height="1"
       fill="#000000"
       id="rect177" />
    <rect
       x="24"
       y="12"
       width="1"
       height="1"
       fill="#000000"
       id="rect178" />
    <rect
       x="1"
       y="13"
       width="1"
       height="1"
       fill="#000000"
       id="rect179" />
    <rect
       x="2"
       y="13"
       width="1"
       height="1"
       fill="#000000"
       id="rect180" />
    <rect
       x="3"
       y="13"
       width="1"
       height="1"
       fill="#000000"
       id="rect181" />
    <rect
       x="4"
       y="13"
       width="1"
       height="1"
       fill="#000000"
       id="rect182" />
    <rect
       x="7"
       y="13"
       width="1"
       height="1"
       fill="#000000"
       id="rect183" />
    <rect
       x="9"
       y="13"
       width="1"
       height="1"
       fill="#000000"
       id="rect184" />
    <rect
       x="10"
       y="13"
       width="1"
       height="1"
       fill="#000000"
       id="rect185" />
    <rect
       x="11"
       y="13"
       width="1"
       height="1"
       fill="#000000"
       id="rect186" />
    <rect
       x="12"
       y="13"
       width="1"
       height="1"
       fill="#000000"
       id="rect187" />
    <rect
       x="15"
       y="13"
       width="1"
       height="1"
       fill="#000000"
       id="rect188" />
    <rect
       x="16"
       y="13"
       width="1"
       height="1"
       fill="#000000"
       id="rect189" />
    <rect
       x="18"
       y="13"
       width="1"
       height="1"
       fill="#000000"
       id="rect190" />
    <rect
       x="19"
       y="13"
       width="1"
       height="1"
       fill="#000000"
       id="rect191" />
    <rect
       x="23"
       y="13"
       width="1"
       height="1"
       fill="#000000"
       id="rect192" />
    <rect
       x="24"
       y="13"
       width="1"
       height="1"
       fill="#000000"
       id="rect193" />
    <rect
       x="0"
       y="14"
       width="1"
       height="1"
       fill="#000000"
       id="rect194" />
    <rect
       x="1"
       y="14"
       width="1"
       height="1"
       fill="#000000"
       id="rect195" />
    <rect
       x="2"
       y="14"
       width="1"
       height="1"
       fill="#000000"
       id="rect196" />
    <rect
       x="3"
       y="14"
       width="1"
       height="1"
       fill="#000000"
       id="rect197" />
    <rect
       x="6"
       y="14"
       width="1"
       height="1"
       fill="#000000"
       id="rect198" />
    <rect
       x="7"
       y="14"
       width="1"
       height="1"
       fill="#000000"
       id="rect199" />
    <rect
       x="9"
       y="14"
       width="1"
       height="1"
       fill="#000000"
       id="rect200" />
    <rect
       x="11"
       y="14"
       width="1"
       height="1"
       fill="#000000"
       id="rect201" />
    <rect
       x="12"
       y="14"
       width="1"
       height="1"
       fill="#000000"
       id="rect202" />
    <rect
       x="14"
       y="14"
       width="1"
       height="1"
       fill="#000000"
       id="rect203" />
    <rect
       x="15"
       y="14"
       width="1"
       height="1"
       fill="#000000"
       id="rect204" />
    <rect
       x="16"
       y="14"
       width="1"
       height="1"
       fill="#000000"
       id="rect205" />
    <rect
       x="18"
       y="14"
       width="1"
       height="1"
       fill="#000000"
       id="rect206" />
    <rect
       x="21"
       y="14"
       width="1"
       height="1"
       fill="#000000"
       id="rect207" />
    <rect
       x="22"
       y="14"
       width="1"
       height="1"
       fill="#000000"
       id="rect208" />
    <rect
       x="24"
       y="14"
       width="1"
       height="1"
       fill="#000000"
       id="rect209" />
    <rect
       x="4"
       y="15"
       width="1"
       height="1"
       fill="#000000"
       id="rect210" />
    <rect
       x="5"
       y="15"
       width="1"
       height="1"
       fill="#000000"
       id="rect211" />
    <rect
       x="8"
       y="15"
       width="1"
       height="1"
       fill="#000000"
       id="rect212" />
    <rect
       x="12"
       y="15"
       width="1"
       height="1"
       fill="#000000"
       id="rect213" />
    <rect
       x="14"
       y="15"
       width="1"
       height="1"
       fill="#000000"
       id="rect214" />
    <rect
       x="16"
       y="15"
       width="1"
       height="1"
       fill="#000000"
       id="rect215" />
    <rect
       x="19"
       y="15"
       width="1"
       height="1"
       fill="#000000"
       id="rect216" />
    <rect
       x="20"
       y="15"
       width="1"
       height="1"
       fill="#000000"
       id="rect217" />
    <rect
       x="21"
       y="15"
       width="1"
       height="1"
       fill="#000000"
       id="rect218" />
    <rect
       x="0"
       y="16"
       width="1"
       height="1"
       fill="#000000"
       id="rect219" />
    <rect
       x="1"
       y="16"
       width="1"
       height="1"
       fill="#000000"
       id="rect220" />
    <rect
       x="3"
       y="16"
       width="1"
       height="1"
       fill="#000000"
       id="rect221" />
    <rect
       x="4"
       y="16"
       width="1"
       height="1"
       fill="#000000"
       id="rect222" />
    <rect
       x="5"
       y="16"
       width="1"
       height="1"
       fill="#000000"
       id="rect223" />
    <rect
       x="6"
       y="16"
       width="1"
       height="1"
       fill="#000000"
       id="rect224" />
    <rect
       x="8"
       y="16"
       width="1"
       height="1"
       fill="#000000"
       id="rect225" />
    <rect
       x="9"
       y="16"
       width="1"
       height="1"
       fill="#000000"
       id="rect226" />
    <rect
       x="10"
       y="16"
       width="1"
       height="1"
       fill="#000000"
       id="rect227" />
    <rect
       x="11"
       y="16"
       width="1"
       height="1"
       fill="#000000"
       id="rect228" />
    <rect
       x="15"
       y="16"
       width="1"
       height="1"
       fill="#000000"
       id="rect229" />
    <rect
       x="16"
       y="16"
       width="1"
       height="1"
       fill="#000000"
       id="rect230" />
    <rect
       x="17"
       y="16"
       width="1"
       height="1"
       fill="#000000"
       id="rect231" />
    <rect
       x="18"
       y="16"
       width="1"
       height="1"
       fill="#000000"
       id="rect232" />
    <rect
       x="19"
       y="16"
       width="1"
       height="1"
       fill="#000000"
       id="rect233" />
    <rect
       x="20"
       y="16"
       width="1"
       height="1"
       fill="#000000"
       id="rect234" />
    <rect
       x="23"
       y="16"
       width="1"
       height="1"
       fill="#000000"
       id="rect235" />
    <rect
       x="8"
       y="17"
       width="1"
       height="1"
       fill="#000000"
       id="rect236" />
    <rect
       x="9"
       y="17"
       width="1"
       height="1"
       fill="#000000"
       id="rect237" />
    <rect
       x="11"
       y="17"
       width="1"
       height="1"
       fill="#000000"
       id="rect238" />
    <rect
       x="12"
       y="17"
       width="1"
       height="1"
       fill="#000000"
       id="rect239" />
    <rect
       x="13"
       y="17"
       width="1"
       height="1"
       fill="#000000"
       id="rect240" />
    <rect
       x="16"
       y="17"
       width="1"
       height="1"
       fill="#000000"
       id="rect241" />
    <rect
       x="20"
       y="17"
       width="1"
       height="1"
       fill="#000000"
       id="rect242" />
    <rect
       x="24"
       y="17"
       width="1"
       height="1"
       fill="#000000"
       id="rect243" />
    <rect
       x="0"
       y="18"
       width="1"
       height="1"
       fill="#000000"
       id="rect244" />
    <rect
       x="1"
       y="18"
       width="1"
       height="1"
       fill="#000000"
       id="rect245" />
    <rect
       x="2"
       y="18"
       width="1"
       height="1"
       fill="#000000"
       id="rect246" />
    <rect
       x="3"
       y="18"
       width="1"
       height="1"
       fill="#000000"
       id="rect247" />
    <rect
       x="4"
       y="18"
       width="1"
       height="1"
       fill="#000000"
       id="rect248" />
    <rect
       x="5"
       y="18"
       width="1"
       height="1"
       fill="#000000"
       id="rect249" />
    <rect
       x="6"
       y="18"
       width="1"
       height="1"
       fill="#000000"
       id="rect250" />
    <rect
       x="10"
       y="18"
       width="1"
       height="1"
       fill="#000000"
       id="rect251" />
    <rect
       x="11"
       y="18"
       width="1"
       height="1"
       fill="#000000"
       id="rect252" />
    <rect
       x="16"
       y="18"
       width="1"
       height="1"
       fill="#000000"
       id="rect253" />
    <rect
       x="18"
       y="18"
       width="1"
       height="1"
       fill="#000000"
       id="rect254" />
    <rect
       x="20"
       y="18"
       width="1"
       height="1"
       fill="#000000"
       id="rect255" />
    <rect
       x="24"
       y="18"
       width="1"
       height="1"
       fill="#000000"
       id="rect256" />
    <rect
       x="0"
       y="19"
       width="1"
       height="1"
       fill="#000000"
       id="rect257" />
    <rect
       x="6"
       y="19"
       width="1"
       height="1"
       fill="#000000"
       id="rect258" />
    <rect
       x="8"
       y="19"
       width="1"
       height="1"
       fill="#000000"
       id="rect259" />
    <rect
       x="10"
       y="19"
       width="1"
       height="1"
       fill="#000000"
       id="rect260" />
    <rect
       x="12"
       y="19"
       width="1"
       height="1"
       fill="#000000"
       id="rect261" />
    <rect
       x="14"
       y="19"
       width="1"
       height="1"
       fill="#000000"
       id="rect262" />
    <rect
       x="15"
       y="19"
       width="1"
       height="1"
       fill="#000000"
       id="rect263" />
    <rect
       x="16"
       y="19"
       width="1"
       height="1"
       fill="#000000"
       id="rect264" />
    <rect
       x="20"
       y="19"
       width="1"
       height="1"
       fill="#000000"
       id="rect265" />
    <rect
       x="0"
       y="20"
       width="1"
       height="1"
       fill="#000000"
       id="rect266" />
    <rect
       x="2"
       y="20"
       width="1"
       height="1"
       fill="#000000"
       id="rect267" />
    <rect
       x="3"
       y="20"
       width="1"
       height="1"
       fill="#000000"
       id="rect268" />
    <rect
       x="4"
       y="20"
       width="1"
       height="1"
       fill="#000000"
       id="rect269" />
    <rect
       x="6"
       y="20"
       width="1"
       height="1"
       fill="#000000"
       id="rect270" />
    <rect
       x="10"
       y="20"
       width="1"
       height="1"
       fill="#000000"
       id="rect271" />
    <rect
       x="11"
       y="20"
       width="1"
       height="1"
       fill="#000000"
       id="rect272" />
    <rect
       x="15"
       y="20"
       width="1"
       height="1"
       fill="#000000"
       id="rect273" />
    <rect
       x="16"
       y="20"
       width="1"
       height="1"
       fill="#000000"
       id="rect274" />
    <rect
       x="17"
       y="20"
       width="1"
       height="1"
       fill="#000000"
       id="rect275" />
    <rect
       x="18"
       y="20"
       width="1"
       height="1"
       fill="#000000"
       id="rect276" />
    <rect
       x="19"
       y="20"
       width="1"
       height="1"
       fill="#000000"
       id="rect277" />
    <rect
       x="20"
       y="20"
       width="1"
       height="1"
       fill="#000000"
       id="rect278" />
    <rect
       x="0"
       y="21"
       width="1"
       height="1"
       fill="#000000"
       id="rect279" />
    <rect
       x="2"
       y="21"
       width="1"
       height="1"
       fill="#000000"
       id="rect280" />
    <rect
       x="3"
       y="21"
       width="1"
       height="1"
       fill="#000000"
       id="rect281" />
    <rect
       x="4"
       y="21"
       width="1"
       height="1"
       fill="#000000"
       id="rect282" />
    <rect
       x="6"
       y="21"
       width="1"
       height="1"
       fill="#000000"
       id="rect283" />
    <rect
       x="10"
       y="21"
       width="1"
       height="1"
       fill="#000000"
       id="rect284" />
    <rect
       x="11"
       y="21"
       width="1"
       height="1"
       fill="#000000"
       id="rect285" />
    <rect
       x="12"
       y="21"
       width="1"
       height="1"
       fill="#000000"
       id="rect286" />
    <rect
       x="13"
       y="21"
       width="1"
       height="1"
       fill="#000000"
       id="rect287" />
    <rect
       x="15"
       y="21"
       width="1"
       height="1"
       fill="#000000"
       id="rect288" />
    <rect
       x="20"
       y="21"
       width="1"
       height="1"
       fill="#000000"
       id="rect289" />
    <rect
       x="22"
       y="21"
       width="1"
       height="1"
       fill="#000000"
       id="rect290" />
    <rect
       x="23"
       y="21"
       width="1"
       height="1"
       fill="#000000"
       id="rect291" />
    <rect
       x="0"
       y="22"
       width="1"
       height="1"
       fill="#000000"
       id="rect292" />
    <rect
       x="2"
       y="22"
       width="1"
       height="1"
       fill="#000000"
       id="rect293" />
    <rect
       x="3"
       y="22"
       width="1"
       height="1"
       fill="#000000"
       id="rect294" />
    <rect
       x="4"
       y="22"
       width="1"
       height="1"
       fill="#000000"
       id="rect295" />
    <rect
       x="6"
       y="22"
       width="1"
       height="1"
       fill="#000000"
       id="rect296" />
    <rect
       x="8"
       y="22"
       width="1"
       height="1"
       fill="#000000"
       id="rect297" />
    <rect
       x="10"
       y="22"
       width="1"
       height="1"
       fill="#000000"
       id="rect298" />
    <rect
       x="11"
       y="22"
       width="1"
       height="1"
       fill="#000000"
       id="rect299" />
    <rect
       x="12"
       y="22"
       width="1"
       height="1"
       fill="#000000"
       id="rect300" />
    <rect
       x="13"
       y="22"
       width="1"
       height="1"
       fill="#000000"
       id="rect301" />
    <rect
       x="15"
       y="22"
       width="1"
       height="1"
       fill="#000000"
       id="rect302" />
    <rect
       x="16"
       y="22"
       width="1"
       height="1"
       fill="#000000"
       id="rect303" />
    <rect
       x="17"
       y="22"
       width="1"
       height="1"
       fill="#000000"
       id="rect304" />
    <rect
       x="19"
       y="22"
       width="1"
       height="1"
       fill="#000000"
       id="rect305" />
    <rect
       x="20"
       y="22"
       width="1"
       height="1"
       fill="#000000"
       id="rect306" />
    <rect
       x="21"
       y="22"
       width="1"
       height="1"
       fill="#000000"
       id="rect307" />
    <rect
       x="23"
       y="22"
       width="1"
       height="1"
       fill="#000000"
       id="rect308" />
    <rect
       x="24"
       y="22"
       width="1"
       height="1"
       fill="#000000"
       id="rect309" />
    <rect
       x="0"
       y="23"
       width="1"
       height="1"
       fill="#000000"
       id="rect310" />
    <rect
       x="6"
       y="23"
       width="1"
       height="1"
       fill="#000000"
       id="rect311" />
    <rect
       x="8"
       y="23"
       width="1"
       height="1"
       fill="#000000"
       id="rect312" />
    <rect
       x="9"
       y="23"
       width="1"
       height="1"
       fill="#000000"
       id="rect313" />
    <rect
       x="10"
       y="23"
       width="1"
       height="1"
       fill="#000000"
       id="rect314" />
    <rect
       x="14"
       y="23"
       width="1"
       height="1"
       fill="#000000"
       id="rect315" />
    <rect
       x="16"
       y="23"
       width="1"
       height="1"
       fill="#000000"
       id="rect316" />
    <rect
       x="17"
       y="23"
       width="1"
       height="1"
       fill="#000000"
       id="rect317" />
    <rect
       x="18"
       y="23"
       width="1"
       height="1"
       fill="#000000"
       id="rect318" />
    <rect
       x="19"
       y="23"
       width="1"
       height="1"
       fill="#000000"
       id="rect319" />
    <rect
       x="20"
       y="23"
       width="1"
       height="1"
       fill="#000000"
       id="rect320" />
    <rect
       x="0"
       y="24"
       width="1"
       height="1"
       fill="#000000"
       id="rect321" />
    <rect
       x="1"
       y="24"
       width="1"
       height="1"
       fill="#000000"
       id="rect322" />
    <rect
       x="2"
       y="24"
       width="1"
       height="1"
       fill="#000000"
       id="rect323" />
    <rect
       x="3"
       y="24"
       width="1"
       height="1"
       fill="#000000"
       id="rect324" />
    <rect
       x="4"
       y="24"
       width="1"
       height="1"
       fill="#000000"
       id="rect325" />
    <rect
       x="5"
       y="24"
       width="1"
       height="1"
       fill="#000000"
       id="rect326" />
    <rect
       x="6"
       y="24"
       width="1"
       height="1"
       fill="#000000"
       id="rect327" />
    <rect
       x="8"
       y="24"
       width="1"
       height="1"
       fill="#000000"
       id="rect328" />
    <rect
       x="9"
       y="24"
       width="1"
       height="1"
       fill="#000000"
       id="rect329" />
    <rect
       x="11"
       y="24"
       width="1"
       height="1"
       fill="#000000"
       id="rect330" />
    <rect
       x="16"
       y="24"
       width="1"
       height="1"
       fill="#000000"
       id="rect331" />
    <rect
       x="17"
       y="24"
       width="1"
       height="1"
       fill="#000000"
       id="rect332" />
    <rect
       x="21"
       y="24"
       width="1"
       height="1"
       fill="#000000"
       id="rect333" />
    <rect
       x="24"
       y="24"
       width="1"
       height="1"
       fill="#000000"
       id="rect334" />
  </g>
</svg>
